G04 #@! TF.FileFunction,Soldermask,Bot*
%FSLAX46Y46*%
G04 Gerber Fmt 4.6, Leading zero omitted, Abs format (unit mm)*
G04 Created by KiCad (PCBNEW 4.0.7) date 2019 March 19, Tuesday 10:43:39*
%MOMM*%
%LPD*%
G01*
G04 APERTURE LIST*
%ADD10C,0.150000*%
%ADD11R,1.200000X1.100000*%
%ADD12R,1.100000X1.200000*%
%ADD13C,3.900000*%
%ADD14R,2.000000X2.000000*%
%ADD15C,2.000000*%
%ADD16C,2.400000*%
%ADD17R,1.100000X0.650000*%
%ADD18R,0.650000X1.100000*%
%ADD19R,3.550000X5.550000*%
%ADD20R,1.400000X0.900000*%
%ADD21R,1.000000X1.400000*%
G04 APERTURE END LIST*
D10*
D11*
X49600000Y-20600000D03*
X49600000Y-19200000D03*
D12*
X45700000Y-24900000D03*
X47100000Y-24900000D03*
D13*
X80950000Y-86400000D03*
X49050000Y-86400000D03*
X49050000Y-54400000D03*
X80950000Y-54400000D03*
X49050000Y-3600000D03*
X80950000Y-3600000D03*
X80950000Y-35600000D03*
X49050000Y-35600000D03*
D14*
X28175000Y-33270000D03*
D15*
X26905000Y-30730000D03*
X25635000Y-33270000D03*
X24365000Y-30730000D03*
X23095000Y-33270000D03*
X21825000Y-30730000D03*
D16*
X20425000Y-32530000D03*
D14*
X68175000Y-33270000D03*
D15*
X66905000Y-30730000D03*
X65635000Y-33270000D03*
X64365000Y-30730000D03*
X63095000Y-33270000D03*
X61825000Y-30730000D03*
D16*
X60425000Y-32530000D03*
D13*
X40950000Y-86400000D03*
X9050000Y-86400000D03*
X9050000Y-54400000D03*
X40950000Y-54400000D03*
D17*
X47400000Y-42250000D03*
X47400000Y-42750000D03*
X47400000Y-43250000D03*
X47400000Y-43750000D03*
X47400000Y-44250000D03*
X47400000Y-44750000D03*
X47400000Y-45250000D03*
X47400000Y-45750000D03*
D18*
X46500000Y-48400000D03*
X46000000Y-48400000D03*
X45500000Y-48400000D03*
X45000000Y-48400000D03*
X44500000Y-48400000D03*
X44000000Y-48400000D03*
X43500000Y-48400000D03*
D17*
X42600000Y-47750000D03*
X42600000Y-47250000D03*
X42600000Y-46750000D03*
X42600000Y-46250000D03*
X42600000Y-45750000D03*
X42600000Y-45250000D03*
X42600000Y-44750000D03*
X42600000Y-44250000D03*
D18*
X43500000Y-41600000D03*
X44000000Y-41600000D03*
X44500000Y-41600000D03*
X45000000Y-41600000D03*
X45500000Y-41600000D03*
X46000000Y-41600000D03*
X46500000Y-41600000D03*
D19*
X45000000Y-45000000D03*
D17*
X47400000Y-46250000D03*
X47400000Y-47750000D03*
X47400000Y-47250000D03*
X47400000Y-46750000D03*
X42600000Y-42250000D03*
X42600000Y-43750000D03*
X42600000Y-42750000D03*
X42600000Y-43250000D03*
D11*
X58500000Y-58700000D03*
X58500000Y-57300000D03*
X23900000Y-14300000D03*
X23900000Y-15700000D03*
X25500000Y-14300000D03*
X25500000Y-15700000D03*
X88000000Y-48300000D03*
X88000000Y-49700000D03*
X15900000Y-14300000D03*
X15900000Y-15700000D03*
X86000000Y-48300000D03*
X86000000Y-49700000D03*
X17500000Y-14300000D03*
X17500000Y-15700000D03*
D12*
X41200000Y-43300000D03*
X39800000Y-43300000D03*
D11*
X17500000Y-19200000D03*
X17500000Y-17800000D03*
X19100000Y-19200000D03*
X19100000Y-17800000D03*
X53000000Y-14300000D03*
X53000000Y-15700000D03*
X71500000Y-31300000D03*
X71500000Y-32700000D03*
X18500000Y-58700000D03*
X18500000Y-57300000D03*
X31500000Y-31300000D03*
X31500000Y-32700000D03*
D12*
X41200000Y-41700000D03*
X39800000Y-41700000D03*
D20*
X22000000Y-14050000D03*
X22000000Y-15000000D03*
X22000000Y-15950000D03*
X19400000Y-15950000D03*
X19400000Y-14050000D03*
D11*
X15900000Y-17800000D03*
X15900000Y-19200000D03*
D14*
X61825000Y-56730000D03*
D15*
X63095000Y-59270000D03*
X64365000Y-56730000D03*
X65635000Y-59270000D03*
X66905000Y-56730000D03*
X68175000Y-59270000D03*
D16*
X69575000Y-57470000D03*
D14*
X21825000Y-56730000D03*
D15*
X23095000Y-59270000D03*
X24365000Y-56730000D03*
X25635000Y-59270000D03*
X26905000Y-56730000D03*
X28175000Y-59270000D03*
D16*
X29575000Y-57470000D03*
D14*
X40555000Y-16270000D03*
D15*
X41825000Y-13730000D03*
X43095000Y-16270000D03*
X44365000Y-13730000D03*
X45635000Y-16270000D03*
X46905000Y-13730000D03*
X48175000Y-16270000D03*
X49445000Y-13730000D03*
D16*
X50845000Y-15530000D03*
D21*
X44050000Y-19250000D03*
X45950000Y-19250000D03*
X45000000Y-21550000D03*
D11*
X27100000Y-15700000D03*
X27100000Y-14300000D03*
X20700000Y-19200000D03*
X20700000Y-17800000D03*
X22300000Y-19200000D03*
X22300000Y-17800000D03*
X48000000Y-20600000D03*
X48000000Y-19200000D03*
D12*
X42900000Y-26500000D03*
X44300000Y-26500000D03*
X45700000Y-26500000D03*
X47100000Y-26500000D03*
X42900000Y-24900000D03*
X44300000Y-24900000D03*
X42900000Y-23300000D03*
X44300000Y-23300000D03*
X45700000Y-23300000D03*
X47100000Y-23300000D03*
D13*
X9050000Y-3600000D03*
X40950000Y-3600000D03*
X40950000Y-35600000D03*
X9050000Y-35600000D03*
D12*
X41200000Y-44900000D03*
X39800000Y-44900000D03*
M02*
