G04 #@! TF.FileFunction,Copper,L1,Top,Signal*
%FSLAX46Y46*%
G04 Gerber Fmt 4.6, Leading zero omitted, Abs format (unit mm)*
G04 Created by KiCad (PCBNEW 4.0.7) date 2019 March 19, Tuesday 10:43:39*
%MOMM*%
%LPD*%
G01*
G04 APERTURE LIST*
%ADD10C,0.150000*%
%ADD11C,3.500000*%
%ADD12R,1.600000X1.600000*%
%ADD13C,1.600000*%
%ADD14C,2.000000*%
%ADD15R,0.350000X0.600000*%
%ADD16C,6.000000*%
%ADD17C,0.600000*%
%ADD18C,0.250000*%
%ADD19C,0.600000*%
G04 APERTURE END LIST*
D10*
D11*
X80950000Y-86400000D03*
X49050000Y-86400000D03*
X49050000Y-54400000D03*
X80950000Y-54400000D03*
X49050000Y-3600000D03*
X80950000Y-3600000D03*
X80950000Y-35600000D03*
X49050000Y-35600000D03*
D12*
X28175000Y-33270000D03*
D13*
X26905000Y-30730000D03*
X25635000Y-33270000D03*
X24365000Y-30730000D03*
X23095000Y-33270000D03*
X21825000Y-30730000D03*
D14*
X20425000Y-32530000D03*
D12*
X68175000Y-33270000D03*
D13*
X66905000Y-30730000D03*
X65635000Y-33270000D03*
X64365000Y-30730000D03*
X63095000Y-33270000D03*
X61825000Y-30730000D03*
D14*
X60425000Y-32530000D03*
D11*
X40950000Y-86400000D03*
X9050000Y-86400000D03*
X9050000Y-54400000D03*
X40950000Y-54400000D03*
D15*
X87975000Y-43912068D03*
X87325000Y-43912068D03*
X86675000Y-43912068D03*
X86025000Y-43912068D03*
X86025000Y-46062068D03*
X86675000Y-46062068D03*
X87325000Y-46062068D03*
X88000000Y-46062068D03*
D12*
X61825000Y-56730000D03*
D13*
X63095000Y-59270000D03*
X64365000Y-56730000D03*
X65635000Y-59270000D03*
X66905000Y-56730000D03*
X68175000Y-59270000D03*
D14*
X69575000Y-57470000D03*
D12*
X21825000Y-56730000D03*
D13*
X23095000Y-59270000D03*
X24365000Y-56730000D03*
X25635000Y-59270000D03*
X26905000Y-56730000D03*
X28175000Y-59270000D03*
D14*
X29575000Y-57470000D03*
D12*
X40555000Y-16270000D03*
D13*
X41825000Y-13730000D03*
X43095000Y-16270000D03*
X44365000Y-13730000D03*
X45635000Y-16270000D03*
X46905000Y-13730000D03*
X48175000Y-16270000D03*
X49445000Y-13730000D03*
D14*
X50845000Y-15530000D03*
D16*
X3000000Y-3000000D03*
X3000000Y-87000000D03*
X87000000Y-87000000D03*
X87000000Y-3000000D03*
D11*
X9050000Y-3600000D03*
X40950000Y-3600000D03*
X40950000Y-35600000D03*
X9050000Y-35600000D03*
D17*
X87400000Y-42800000D03*
X53000000Y-16600000D03*
X45950000Y-18350000D03*
X28100000Y-14300000D03*
X26905000Y-27405000D03*
X42600000Y-40900000D03*
X48358414Y-43762020D03*
X48350000Y-44750000D03*
X48050000Y-26500000D03*
X23400000Y-17800000D03*
X17500000Y-16850000D03*
X38900000Y-44900000D03*
X38900000Y-41700000D03*
X38900000Y-43300000D03*
X20800000Y-15000000D03*
X87000000Y-48050000D03*
X53000000Y-13300000D03*
X88000000Y-47000000D03*
X86500000Y-47000000D03*
X53500000Y-25100000D03*
X52900000Y-26600000D03*
X86675000Y-41775000D03*
X86500000Y-40350000D03*
X87503204Y-38739610D03*
X38900000Y-38000000D03*
X34500000Y-35300000D03*
D18*
X87587068Y-42987068D02*
X87400000Y-42800000D01*
X87600000Y-42987068D02*
X87587068Y-42987068D01*
X87975000Y-43912068D02*
X87975000Y-43362068D01*
X87975000Y-43362068D02*
X87600000Y-42987068D01*
D19*
X26905000Y-30730000D02*
X26905000Y-27405000D01*
D18*
X87325000Y-47725000D02*
X87000000Y-48050000D01*
X87325000Y-47225000D02*
X87325000Y-47725000D01*
X87325000Y-46825000D02*
X87325000Y-47225000D01*
X87975000Y-43912068D02*
X87975000Y-44462068D01*
X87975000Y-44462068D02*
X87325000Y-45112068D01*
X87325000Y-45112068D02*
X87325000Y-45512068D01*
X87325000Y-45512068D02*
X87325000Y-46062068D01*
X87325000Y-46062068D02*
X87325000Y-46825000D01*
D19*
X40555000Y-16270000D02*
X40555000Y-14870000D01*
X40555000Y-14870000D02*
X40524999Y-14839999D01*
X40524999Y-14839999D02*
X40524999Y-13105999D01*
X40524999Y-13105999D02*
X41200999Y-12429999D01*
X41200999Y-12429999D02*
X52129999Y-12429999D01*
X52129999Y-12429999D02*
X52700001Y-13000001D01*
X52700001Y-13000001D02*
X53000000Y-13300000D01*
D18*
X87325000Y-43912068D02*
X87325000Y-44462068D01*
X87325000Y-44462068D02*
X86675000Y-45112068D01*
X86675000Y-45112068D02*
X86675000Y-45512068D01*
X86675000Y-45512068D02*
X86675000Y-46062068D01*
X88000000Y-47000000D02*
X88000000Y-46062068D01*
X86500000Y-47000000D02*
X86675000Y-46825000D01*
X86675000Y-46825000D02*
X86675000Y-46062068D01*
X53199999Y-25400001D02*
X53500000Y-25100000D01*
X52900000Y-26600000D02*
X53199999Y-26300001D01*
X53199999Y-26300001D02*
X53199999Y-25400001D01*
X86675000Y-43912068D02*
X86675000Y-41775000D01*
X86500000Y-40350000D02*
X86025000Y-40825000D01*
X86025000Y-40825000D02*
X86025000Y-43912068D01*
X86025000Y-43362068D02*
X86025000Y-43912068D01*
X87078940Y-38739610D02*
X87503204Y-38739610D01*
X85524999Y-45012067D02*
X85524999Y-40293551D01*
X85524999Y-40293551D02*
X87078940Y-38739610D01*
X86025000Y-46062068D02*
X86025000Y-45512068D01*
X86025000Y-45512068D02*
X85524999Y-45012067D01*
D19*
X36200000Y-35300000D02*
X38900000Y-38000000D01*
X34500000Y-35300000D02*
X36200000Y-35300000D01*
D18*
G36*
X84140483Y-1085720D02*
X83625587Y-2325726D01*
X83624416Y-3668384D01*
X84137146Y-4909286D01*
X85085720Y-5859517D01*
X86325726Y-6374413D01*
X87668384Y-6375584D01*
X88909286Y-5862854D01*
X89550000Y-5223257D01*
X89550000Y-84777313D01*
X88914280Y-84140483D01*
X87674274Y-83625587D01*
X86331616Y-83624416D01*
X85090714Y-84137146D01*
X84140483Y-85085720D01*
X83625587Y-86325726D01*
X83624416Y-87668384D01*
X84137146Y-88909286D01*
X84776743Y-89550000D01*
X5222687Y-89550000D01*
X5859517Y-88914280D01*
X6374413Y-87674274D01*
X6375157Y-86820834D01*
X6924632Y-86820834D01*
X7247462Y-87602143D01*
X7844713Y-88200437D01*
X8625457Y-88524630D01*
X9470834Y-88525368D01*
X10252143Y-88202538D01*
X10850437Y-87605287D01*
X11174630Y-86824543D01*
X11174633Y-86820834D01*
X38824632Y-86820834D01*
X39147462Y-87602143D01*
X39744713Y-88200437D01*
X40525457Y-88524630D01*
X41370834Y-88525368D01*
X42152143Y-88202538D01*
X42750437Y-87605287D01*
X43074630Y-86824543D01*
X43074633Y-86820834D01*
X46924632Y-86820834D01*
X47247462Y-87602143D01*
X47844713Y-88200437D01*
X48625457Y-88524630D01*
X49470834Y-88525368D01*
X50252143Y-88202538D01*
X50850437Y-87605287D01*
X51174630Y-86824543D01*
X51174633Y-86820834D01*
X78824632Y-86820834D01*
X79147462Y-87602143D01*
X79744713Y-88200437D01*
X80525457Y-88524630D01*
X81370834Y-88525368D01*
X82152143Y-88202538D01*
X82750437Y-87605287D01*
X83074630Y-86824543D01*
X83075368Y-85979166D01*
X82752538Y-85197857D01*
X82155287Y-84599563D01*
X81374543Y-84275370D01*
X80529166Y-84274632D01*
X79747857Y-84597462D01*
X79149563Y-85194713D01*
X78825370Y-85975457D01*
X78824632Y-86820834D01*
X51174633Y-86820834D01*
X51175368Y-85979166D01*
X50852538Y-85197857D01*
X50255287Y-84599563D01*
X49474543Y-84275370D01*
X48629166Y-84274632D01*
X47847857Y-84597462D01*
X47249563Y-85194713D01*
X46925370Y-85975457D01*
X46924632Y-86820834D01*
X43074633Y-86820834D01*
X43075368Y-85979166D01*
X42752538Y-85197857D01*
X42155287Y-84599563D01*
X41374543Y-84275370D01*
X40529166Y-84274632D01*
X39747857Y-84597462D01*
X39149563Y-85194713D01*
X38825370Y-85975457D01*
X38824632Y-86820834D01*
X11174633Y-86820834D01*
X11175368Y-85979166D01*
X10852538Y-85197857D01*
X10255287Y-84599563D01*
X9474543Y-84275370D01*
X8629166Y-84274632D01*
X7847857Y-84597462D01*
X7249563Y-85194713D01*
X6925370Y-85975457D01*
X6924632Y-86820834D01*
X6375157Y-86820834D01*
X6375584Y-86331616D01*
X5862854Y-85090714D01*
X4914280Y-84140483D01*
X3674274Y-83625587D01*
X2331616Y-83624416D01*
X1090714Y-84137146D01*
X450000Y-84776743D01*
X450000Y-60051734D01*
X22313973Y-60051734D01*
X22390627Y-60240337D01*
X22815576Y-60436027D01*
X23283065Y-60454199D01*
X23721922Y-60292087D01*
X23799373Y-60240337D01*
X23876027Y-60051734D01*
X23095000Y-59270707D01*
X22313973Y-60051734D01*
X450000Y-60051734D01*
X450000Y-59458065D01*
X21910801Y-59458065D01*
X22072913Y-59896922D01*
X22124663Y-59974373D01*
X22313266Y-60051027D01*
X23094293Y-59270000D01*
X23095707Y-59270000D01*
X23876734Y-60051027D01*
X24065337Y-59974373D01*
X24261027Y-59549424D01*
X24262843Y-59502697D01*
X24459796Y-59502697D01*
X24638302Y-59934715D01*
X24968547Y-60265536D01*
X25400253Y-60444796D01*
X25867697Y-60445204D01*
X26299715Y-60266698D01*
X26630536Y-59936453D01*
X26809796Y-59504747D01*
X26809797Y-59502697D01*
X26999796Y-59502697D01*
X27178302Y-59934715D01*
X27508547Y-60265536D01*
X27940253Y-60444796D01*
X28407697Y-60445204D01*
X28839715Y-60266698D01*
X29055053Y-60051734D01*
X62313973Y-60051734D01*
X62390627Y-60240337D01*
X62815576Y-60436027D01*
X63283065Y-60454199D01*
X63721922Y-60292087D01*
X63799373Y-60240337D01*
X63876027Y-60051734D01*
X63095000Y-59270707D01*
X62313973Y-60051734D01*
X29055053Y-60051734D01*
X29170536Y-59936453D01*
X29349796Y-59504747D01*
X29349836Y-59458065D01*
X61910801Y-59458065D01*
X62072913Y-59896922D01*
X62124663Y-59974373D01*
X62313266Y-60051027D01*
X63094293Y-59270000D01*
X63095707Y-59270000D01*
X63876734Y-60051027D01*
X64065337Y-59974373D01*
X64261027Y-59549424D01*
X64262843Y-59502697D01*
X64459796Y-59502697D01*
X64638302Y-59934715D01*
X64968547Y-60265536D01*
X65400253Y-60444796D01*
X65867697Y-60445204D01*
X66299715Y-60266698D01*
X66630536Y-59936453D01*
X66809796Y-59504747D01*
X66809797Y-59502697D01*
X66999796Y-59502697D01*
X67178302Y-59934715D01*
X67508547Y-60265536D01*
X67940253Y-60444796D01*
X68407697Y-60445204D01*
X68839715Y-60266698D01*
X69170536Y-59936453D01*
X69349796Y-59504747D01*
X69350204Y-59037303D01*
X69264507Y-58829900D01*
X69300296Y-58844761D01*
X69847305Y-58845238D01*
X70352857Y-58636348D01*
X70739989Y-58249892D01*
X70949761Y-57744704D01*
X70950238Y-57197695D01*
X70741348Y-56692143D01*
X70354892Y-56305011D01*
X69849704Y-56095239D01*
X69302695Y-56094762D01*
X68797143Y-56303652D01*
X68410011Y-56690108D01*
X68200239Y-57195296D01*
X68199762Y-57742305D01*
X68345554Y-58095148D01*
X67942303Y-58094796D01*
X67510285Y-58273302D01*
X67179464Y-58603547D01*
X67000204Y-59035253D01*
X66999796Y-59502697D01*
X66809797Y-59502697D01*
X66810204Y-59037303D01*
X66631698Y-58605285D01*
X66301453Y-58274464D01*
X65869747Y-58095204D01*
X65402303Y-58094796D01*
X64970285Y-58273302D01*
X64639464Y-58603547D01*
X64460204Y-59035253D01*
X64459796Y-59502697D01*
X64262843Y-59502697D01*
X64279199Y-59081935D01*
X64117087Y-58643078D01*
X64065337Y-58565627D01*
X63876734Y-58488973D01*
X63095707Y-59270000D01*
X63094293Y-59270000D01*
X62313266Y-58488973D01*
X62124663Y-58565627D01*
X61928973Y-58990576D01*
X61910801Y-59458065D01*
X29349836Y-59458065D01*
X29350204Y-59037303D01*
X29264507Y-58829900D01*
X29300296Y-58844761D01*
X29847305Y-58845238D01*
X30352857Y-58636348D01*
X30501198Y-58488266D01*
X62313973Y-58488266D01*
X63095000Y-59269293D01*
X63876027Y-58488266D01*
X63799373Y-58299663D01*
X63374424Y-58103973D01*
X62906935Y-58085801D01*
X62468078Y-58247913D01*
X62390627Y-58299663D01*
X62313973Y-58488266D01*
X30501198Y-58488266D01*
X30739989Y-58249892D01*
X30949761Y-57744704D01*
X30950238Y-57197695D01*
X30741348Y-56692143D01*
X30354892Y-56305011D01*
X29849704Y-56095239D01*
X29302695Y-56094762D01*
X28797143Y-56303652D01*
X28410011Y-56690108D01*
X28200239Y-57195296D01*
X28199762Y-57742305D01*
X28345554Y-58095148D01*
X27942303Y-58094796D01*
X27510285Y-58273302D01*
X27179464Y-58603547D01*
X27000204Y-59035253D01*
X26999796Y-59502697D01*
X26809797Y-59502697D01*
X26810204Y-59037303D01*
X26631698Y-58605285D01*
X26301453Y-58274464D01*
X25869747Y-58095204D01*
X25402303Y-58094796D01*
X24970285Y-58273302D01*
X24639464Y-58603547D01*
X24460204Y-59035253D01*
X24459796Y-59502697D01*
X24262843Y-59502697D01*
X24279199Y-59081935D01*
X24117087Y-58643078D01*
X24065337Y-58565627D01*
X23876734Y-58488973D01*
X23095707Y-59270000D01*
X23094293Y-59270000D01*
X22313266Y-58488973D01*
X22124663Y-58565627D01*
X21928973Y-58990576D01*
X21910801Y-59458065D01*
X450000Y-59458065D01*
X450000Y-58488266D01*
X22313973Y-58488266D01*
X23095000Y-59269293D01*
X23876027Y-58488266D01*
X23799373Y-58299663D01*
X23374424Y-58103973D01*
X22906935Y-58085801D01*
X22468078Y-58247913D01*
X22390627Y-58299663D01*
X22313973Y-58488266D01*
X450000Y-58488266D01*
X450000Y-54820834D01*
X6924632Y-54820834D01*
X7247462Y-55602143D01*
X7844713Y-56200437D01*
X8625457Y-56524630D01*
X9470834Y-56525368D01*
X10252143Y-56202538D01*
X10525156Y-55930000D01*
X20642654Y-55930000D01*
X20642654Y-57530000D01*
X20668802Y-57668966D01*
X20750931Y-57796599D01*
X20876246Y-57882223D01*
X21025000Y-57912346D01*
X22625000Y-57912346D01*
X22763966Y-57886198D01*
X22891599Y-57804069D01*
X22977223Y-57678754D01*
X23007346Y-57530000D01*
X23007346Y-56962697D01*
X23189796Y-56962697D01*
X23368302Y-57394715D01*
X23698547Y-57725536D01*
X24130253Y-57904796D01*
X24597697Y-57905204D01*
X25029715Y-57726698D01*
X25360536Y-57396453D01*
X25539796Y-56964747D01*
X25539797Y-56962697D01*
X25729796Y-56962697D01*
X25908302Y-57394715D01*
X26238547Y-57725536D01*
X26670253Y-57904796D01*
X27137697Y-57905204D01*
X27569715Y-57726698D01*
X27900536Y-57396453D01*
X28079796Y-56964747D01*
X28080204Y-56497303D01*
X27901698Y-56065285D01*
X27571453Y-55734464D01*
X27139747Y-55555204D01*
X26672303Y-55554796D01*
X26240285Y-55733302D01*
X25909464Y-56063547D01*
X25730204Y-56495253D01*
X25729796Y-56962697D01*
X25539797Y-56962697D01*
X25540204Y-56497303D01*
X25361698Y-56065285D01*
X25031453Y-55734464D01*
X24599747Y-55555204D01*
X24132303Y-55554796D01*
X23700285Y-55733302D01*
X23369464Y-56063547D01*
X23190204Y-56495253D01*
X23189796Y-56962697D01*
X23007346Y-56962697D01*
X23007346Y-55930000D01*
X22981198Y-55791034D01*
X22899069Y-55663401D01*
X22773754Y-55577777D01*
X22625000Y-55547654D01*
X21025000Y-55547654D01*
X20886034Y-55573802D01*
X20758401Y-55655931D01*
X20672777Y-55781246D01*
X20642654Y-55930000D01*
X10525156Y-55930000D01*
X10850437Y-55605287D01*
X11174630Y-54824543D01*
X11174633Y-54820834D01*
X38824632Y-54820834D01*
X39147462Y-55602143D01*
X39744713Y-56200437D01*
X40525457Y-56524630D01*
X41370834Y-56525368D01*
X42152143Y-56202538D01*
X42750437Y-55605287D01*
X43074630Y-54824543D01*
X43074633Y-54820834D01*
X46924632Y-54820834D01*
X47247462Y-55602143D01*
X47844713Y-56200437D01*
X48625457Y-56524630D01*
X49470834Y-56525368D01*
X50252143Y-56202538D01*
X50525156Y-55930000D01*
X60642654Y-55930000D01*
X60642654Y-57530000D01*
X60668802Y-57668966D01*
X60750931Y-57796599D01*
X60876246Y-57882223D01*
X61025000Y-57912346D01*
X62625000Y-57912346D01*
X62763966Y-57886198D01*
X62891599Y-57804069D01*
X62977223Y-57678754D01*
X63007346Y-57530000D01*
X63007346Y-56962697D01*
X63189796Y-56962697D01*
X63368302Y-57394715D01*
X63698547Y-57725536D01*
X64130253Y-57904796D01*
X64597697Y-57905204D01*
X65029715Y-57726698D01*
X65360536Y-57396453D01*
X65539796Y-56964747D01*
X65539797Y-56962697D01*
X65729796Y-56962697D01*
X65908302Y-57394715D01*
X66238547Y-57725536D01*
X66670253Y-57904796D01*
X67137697Y-57905204D01*
X67569715Y-57726698D01*
X67900536Y-57396453D01*
X68079796Y-56964747D01*
X68080204Y-56497303D01*
X67901698Y-56065285D01*
X67571453Y-55734464D01*
X67139747Y-55555204D01*
X66672303Y-55554796D01*
X66240285Y-55733302D01*
X65909464Y-56063547D01*
X65730204Y-56495253D01*
X65729796Y-56962697D01*
X65539797Y-56962697D01*
X65540204Y-56497303D01*
X65361698Y-56065285D01*
X65031453Y-55734464D01*
X64599747Y-55555204D01*
X64132303Y-55554796D01*
X63700285Y-55733302D01*
X63369464Y-56063547D01*
X63190204Y-56495253D01*
X63189796Y-56962697D01*
X63007346Y-56962697D01*
X63007346Y-55930000D01*
X62981198Y-55791034D01*
X62899069Y-55663401D01*
X62773754Y-55577777D01*
X62625000Y-55547654D01*
X61025000Y-55547654D01*
X60886034Y-55573802D01*
X60758401Y-55655931D01*
X60672777Y-55781246D01*
X60642654Y-55930000D01*
X50525156Y-55930000D01*
X50850437Y-55605287D01*
X51174630Y-54824543D01*
X51174633Y-54820834D01*
X78824632Y-54820834D01*
X79147462Y-55602143D01*
X79744713Y-56200437D01*
X80525457Y-56524630D01*
X81370834Y-56525368D01*
X82152143Y-56202538D01*
X82750437Y-55605287D01*
X83074630Y-54824543D01*
X83075368Y-53979166D01*
X82752538Y-53197857D01*
X82155287Y-52599563D01*
X81374543Y-52275370D01*
X80529166Y-52274632D01*
X79747857Y-52597462D01*
X79149563Y-53194713D01*
X78825370Y-53975457D01*
X78824632Y-54820834D01*
X51174633Y-54820834D01*
X51175368Y-53979166D01*
X50852538Y-53197857D01*
X50255287Y-52599563D01*
X49474543Y-52275370D01*
X48629166Y-52274632D01*
X47847857Y-52597462D01*
X47249563Y-53194713D01*
X46925370Y-53975457D01*
X46924632Y-54820834D01*
X43074633Y-54820834D01*
X43075368Y-53979166D01*
X42752538Y-53197857D01*
X42155287Y-52599563D01*
X41374543Y-52275370D01*
X40529166Y-52274632D01*
X39747857Y-52597462D01*
X39149563Y-53194713D01*
X38825370Y-53975457D01*
X38824632Y-54820834D01*
X11174633Y-54820834D01*
X11175368Y-53979166D01*
X10852538Y-53197857D01*
X10255287Y-52599563D01*
X9474543Y-52275370D01*
X8629166Y-52274632D01*
X7847857Y-52597462D01*
X7249563Y-53194713D01*
X6925370Y-53975457D01*
X6924632Y-54820834D01*
X450000Y-54820834D01*
X450000Y-36020834D01*
X6924632Y-36020834D01*
X7247462Y-36802143D01*
X7844713Y-37400437D01*
X8625457Y-37724630D01*
X9470834Y-37725368D01*
X10252143Y-37402538D01*
X10850437Y-36805287D01*
X10894155Y-36700000D01*
X16050000Y-36700000D01*
X16050000Y-53300000D01*
X16058647Y-53343471D01*
X16058647Y-53387790D01*
X16134766Y-53770468D01*
X16134766Y-53770473D01*
X16162598Y-53837665D01*
X16201958Y-53932690D01*
X16201963Y-53932695D01*
X16418730Y-54257111D01*
X16418731Y-54257114D01*
X16461618Y-54300000D01*
X16542886Y-54381268D01*
X16542889Y-54381269D01*
X16867307Y-54598039D01*
X16867310Y-54598042D01*
X16948418Y-54631637D01*
X17029527Y-54665234D01*
X17029532Y-54665234D01*
X17412210Y-54741353D01*
X17456529Y-54741353D01*
X17500000Y-54750000D01*
X32500000Y-54750000D01*
X32543471Y-54741353D01*
X32587790Y-54741353D01*
X32970468Y-54665234D01*
X32970473Y-54665234D01*
X33037665Y-54637402D01*
X33132690Y-54598042D01*
X33132695Y-54598037D01*
X33457111Y-54381270D01*
X33457114Y-54381269D01*
X33538382Y-54300000D01*
X33581268Y-54257114D01*
X33581269Y-54257111D01*
X33798039Y-53932693D01*
X33798042Y-53932690D01*
X33832409Y-53849718D01*
X33865234Y-53770473D01*
X33865234Y-53770468D01*
X33941353Y-53387790D01*
X33941353Y-53343471D01*
X33950000Y-53300000D01*
X33950000Y-36700000D01*
X33941353Y-36656529D01*
X33941353Y-36612210D01*
X33865234Y-36229532D01*
X33865234Y-36229527D01*
X33818104Y-36115746D01*
X33798042Y-36067310D01*
X33798039Y-36067307D01*
X33581268Y-35742887D01*
X33581268Y-35742886D01*
X33519191Y-35680809D01*
X33457114Y-35618731D01*
X33457111Y-35618730D01*
X33180159Y-35433677D01*
X33824883Y-35433677D01*
X33927429Y-35681857D01*
X34117144Y-35871903D01*
X34365145Y-35974883D01*
X34633677Y-35975117D01*
X34633960Y-35975000D01*
X35920406Y-35975000D01*
X38422573Y-38477167D01*
X38517144Y-38571903D01*
X38765145Y-38674883D01*
X39033677Y-38675117D01*
X39281857Y-38572571D01*
X39471903Y-38382856D01*
X39574883Y-38134855D01*
X39575117Y-37866323D01*
X39472571Y-37618143D01*
X39282856Y-37428097D01*
X39282574Y-37427980D01*
X37875428Y-36020834D01*
X38824632Y-36020834D01*
X39147462Y-36802143D01*
X39744713Y-37400437D01*
X40525457Y-37724630D01*
X41370834Y-37725368D01*
X42152143Y-37402538D01*
X42750437Y-36805287D01*
X43074630Y-36024543D01*
X43074633Y-36020834D01*
X46924632Y-36020834D01*
X47247462Y-36802143D01*
X47844713Y-37400437D01*
X48625457Y-37724630D01*
X49470834Y-37725368D01*
X50252143Y-37402538D01*
X50850437Y-36805287D01*
X50894155Y-36700000D01*
X56050000Y-36700000D01*
X56050000Y-53300000D01*
X56058647Y-53343471D01*
X56058647Y-53387790D01*
X56134766Y-53770468D01*
X56134766Y-53770473D01*
X56162598Y-53837665D01*
X56201958Y-53932690D01*
X56201963Y-53932695D01*
X56418730Y-54257111D01*
X56418731Y-54257114D01*
X56461618Y-54300000D01*
X56542886Y-54381268D01*
X56542889Y-54381269D01*
X56867307Y-54598039D01*
X56867310Y-54598042D01*
X56948418Y-54631637D01*
X57029527Y-54665234D01*
X57029532Y-54665234D01*
X57412210Y-54741353D01*
X57456529Y-54741353D01*
X57500000Y-54750000D01*
X72500000Y-54750000D01*
X72543471Y-54741353D01*
X72587790Y-54741353D01*
X72970468Y-54665234D01*
X72970473Y-54665234D01*
X73037665Y-54637402D01*
X73132690Y-54598042D01*
X73132695Y-54598037D01*
X73457111Y-54381270D01*
X73457114Y-54381269D01*
X73538382Y-54300000D01*
X73581268Y-54257114D01*
X73581269Y-54257111D01*
X73798039Y-53932693D01*
X73798042Y-53932690D01*
X73832409Y-53849718D01*
X73865234Y-53770473D01*
X73865234Y-53770468D01*
X73941353Y-53387790D01*
X73941353Y-53343471D01*
X73950000Y-53300000D01*
X73950000Y-40293551D01*
X85024999Y-40293551D01*
X85024999Y-45012067D01*
X85054129Y-45158514D01*
X85063059Y-45203409D01*
X85171446Y-45365620D01*
X85484534Y-45678709D01*
X85467654Y-45762068D01*
X85467654Y-46362068D01*
X85493802Y-46501034D01*
X85575931Y-46628667D01*
X85701246Y-46714291D01*
X85850000Y-46744414D01*
X85875249Y-46744414D01*
X85825117Y-46865145D01*
X85824883Y-47133677D01*
X85927429Y-47381857D01*
X86117144Y-47571903D01*
X86365145Y-47674883D01*
X86633677Y-47675117D01*
X86881857Y-47572571D01*
X87071903Y-47382856D01*
X87174883Y-47134855D01*
X87174884Y-47133677D01*
X87324883Y-47133677D01*
X87427429Y-47381857D01*
X87617144Y-47571903D01*
X87865145Y-47674883D01*
X88133677Y-47675117D01*
X88381857Y-47572571D01*
X88571903Y-47382856D01*
X88674883Y-47134855D01*
X88675117Y-46866323D01*
X88572571Y-46618143D01*
X88502117Y-46547566D01*
X88527223Y-46510822D01*
X88557346Y-46362068D01*
X88557346Y-45762068D01*
X88531198Y-45623102D01*
X88449069Y-45495469D01*
X88323754Y-45409845D01*
X88175000Y-45379722D01*
X87825000Y-45379722D01*
X87686034Y-45405870D01*
X87661191Y-45421856D01*
X87574791Y-45386068D01*
X87419500Y-45386068D01*
X87325500Y-45480068D01*
X87325500Y-46061568D01*
X87345500Y-46061568D01*
X87345500Y-46062568D01*
X87325500Y-46062568D01*
X87325500Y-46644068D01*
X87390095Y-46708663D01*
X87325117Y-46865145D01*
X87324883Y-47133677D01*
X87174884Y-47133677D01*
X87175117Y-46866323D01*
X87169489Y-46852703D01*
X87175000Y-46825000D01*
X87175000Y-46738068D01*
X87230500Y-46738068D01*
X87324500Y-46644068D01*
X87324500Y-46062568D01*
X87304500Y-46062568D01*
X87304500Y-46061568D01*
X87324500Y-46061568D01*
X87324500Y-45480068D01*
X87230500Y-45386068D01*
X87175000Y-45386068D01*
X87175000Y-45319174D01*
X87678554Y-44815621D01*
X87786940Y-44653410D01*
X87799937Y-44588068D01*
X87880500Y-44588068D01*
X87974500Y-44494068D01*
X87974500Y-43912568D01*
X87975500Y-43912568D01*
X87975500Y-44494068D01*
X88069500Y-44588068D01*
X88224791Y-44588068D01*
X88362987Y-44530825D01*
X88468757Y-44425055D01*
X88526000Y-44286859D01*
X88526000Y-44006568D01*
X88432000Y-43912568D01*
X87975500Y-43912568D01*
X87974500Y-43912568D01*
X87954500Y-43912568D01*
X87954500Y-43911568D01*
X87974500Y-43911568D01*
X87974500Y-43330068D01*
X87975500Y-43330068D01*
X87975500Y-43911568D01*
X88432000Y-43911568D01*
X88526000Y-43817568D01*
X88526000Y-43537277D01*
X88468757Y-43399081D01*
X88362987Y-43293311D01*
X88224791Y-43236068D01*
X88069500Y-43236068D01*
X87975500Y-43330068D01*
X87974500Y-43330068D01*
X87880500Y-43236068D01*
X87725209Y-43236068D01*
X87655945Y-43264758D01*
X87648754Y-43259845D01*
X87500000Y-43229722D01*
X87175000Y-43229722D01*
X87175000Y-42229634D01*
X87246903Y-42157856D01*
X87349883Y-41909855D01*
X87350117Y-41641323D01*
X87247571Y-41393143D01*
X87057856Y-41203097D01*
X86809855Y-41100117D01*
X86541323Y-41099883D01*
X86525000Y-41106628D01*
X86525000Y-41032106D01*
X86532078Y-41025028D01*
X86633677Y-41025117D01*
X86881857Y-40922571D01*
X87071903Y-40732856D01*
X87174883Y-40484855D01*
X87175117Y-40216323D01*
X87072571Y-39968143D01*
X86882856Y-39778097D01*
X86787256Y-39738400D01*
X87186624Y-39339033D01*
X87368349Y-39414493D01*
X87636881Y-39414727D01*
X87885061Y-39312181D01*
X88075107Y-39122466D01*
X88178087Y-38874465D01*
X88178321Y-38605933D01*
X88075775Y-38357753D01*
X87886060Y-38167707D01*
X87638059Y-38064727D01*
X87369527Y-38064493D01*
X87121347Y-38167039D01*
X87041112Y-38247134D01*
X86887598Y-38277670D01*
X86725386Y-38386057D01*
X85171446Y-39939998D01*
X85063059Y-40102209D01*
X85024999Y-40293551D01*
X73950000Y-40293551D01*
X73950000Y-36700000D01*
X73941353Y-36656529D01*
X73941353Y-36612210D01*
X73865234Y-36229532D01*
X73865234Y-36229527D01*
X73818104Y-36115746D01*
X73798042Y-36067310D01*
X73798039Y-36067307D01*
X73766987Y-36020834D01*
X78824632Y-36020834D01*
X79147462Y-36802143D01*
X79744713Y-37400437D01*
X80525457Y-37724630D01*
X81370834Y-37725368D01*
X82152143Y-37402538D01*
X82750437Y-36805287D01*
X83074630Y-36024543D01*
X83075368Y-35179166D01*
X82752538Y-34397857D01*
X82155287Y-33799563D01*
X81374543Y-33475370D01*
X80529166Y-33474632D01*
X79747857Y-33797462D01*
X79149563Y-34394713D01*
X78825370Y-35175457D01*
X78824632Y-36020834D01*
X73766987Y-36020834D01*
X73581268Y-35742887D01*
X73581268Y-35742886D01*
X73519191Y-35680809D01*
X73457114Y-35618731D01*
X73457111Y-35618730D01*
X73132695Y-35401963D01*
X73132690Y-35401958D01*
X73037665Y-35362598D01*
X72970473Y-35334766D01*
X72970468Y-35334766D01*
X72587790Y-35258647D01*
X72543471Y-35258647D01*
X72500000Y-35250000D01*
X57500000Y-35250000D01*
X57456529Y-35258647D01*
X57412210Y-35258647D01*
X57029532Y-35334766D01*
X56948418Y-35368363D01*
X56867310Y-35401958D01*
X56867307Y-35401961D01*
X56542889Y-35618731D01*
X56542886Y-35618732D01*
X56480809Y-35680809D01*
X56418731Y-35742886D01*
X56418731Y-35742887D01*
X56201963Y-36067305D01*
X56201958Y-36067310D01*
X56167591Y-36150281D01*
X56134766Y-36229527D01*
X56134766Y-36229532D01*
X56058647Y-36612210D01*
X56058647Y-36656529D01*
X56050000Y-36700000D01*
X50894155Y-36700000D01*
X51174630Y-36024543D01*
X51175368Y-35179166D01*
X50852538Y-34397857D01*
X50255287Y-33799563D01*
X49474543Y-33475370D01*
X48629166Y-33474632D01*
X47847857Y-33797462D01*
X47249563Y-34394713D01*
X46925370Y-35175457D01*
X46924632Y-36020834D01*
X43074633Y-36020834D01*
X43075368Y-35179166D01*
X42752538Y-34397857D01*
X42155287Y-33799563D01*
X41374543Y-33475370D01*
X40529166Y-33474632D01*
X39747857Y-33797462D01*
X39149563Y-34394713D01*
X38825370Y-35175457D01*
X38824632Y-36020834D01*
X37875428Y-36020834D01*
X36677297Y-34822703D01*
X36458312Y-34676381D01*
X36200000Y-34625000D01*
X34500589Y-34625000D01*
X34366323Y-34624883D01*
X34118143Y-34727429D01*
X33928097Y-34917144D01*
X33825117Y-35165145D01*
X33824883Y-35433677D01*
X33180159Y-35433677D01*
X33132695Y-35401963D01*
X33132690Y-35401958D01*
X33037665Y-35362598D01*
X32970473Y-35334766D01*
X32970468Y-35334766D01*
X32587790Y-35258647D01*
X32543471Y-35258647D01*
X32500000Y-35250000D01*
X17500000Y-35250000D01*
X17456529Y-35258647D01*
X17412210Y-35258647D01*
X17029532Y-35334766D01*
X16948418Y-35368363D01*
X16867310Y-35401958D01*
X16867307Y-35401961D01*
X16542889Y-35618731D01*
X16542886Y-35618732D01*
X16480809Y-35680809D01*
X16418731Y-35742886D01*
X16418731Y-35742887D01*
X16201963Y-36067305D01*
X16201958Y-36067310D01*
X16167591Y-36150281D01*
X16134766Y-36229527D01*
X16134766Y-36229532D01*
X16058647Y-36612210D01*
X16058647Y-36656529D01*
X16050000Y-36700000D01*
X10894155Y-36700000D01*
X11174630Y-36024543D01*
X11175368Y-35179166D01*
X10852538Y-34397857D01*
X10255287Y-33799563D01*
X9474543Y-33475370D01*
X8629166Y-33474632D01*
X7847857Y-33797462D01*
X7249563Y-34394713D01*
X6925370Y-35175457D01*
X6924632Y-36020834D01*
X450000Y-36020834D01*
X450000Y-32802305D01*
X19049762Y-32802305D01*
X19258652Y-33307857D01*
X19645108Y-33694989D01*
X20150296Y-33904761D01*
X20697305Y-33905238D01*
X21202857Y-33696348D01*
X21396846Y-33502697D01*
X21919796Y-33502697D01*
X22098302Y-33934715D01*
X22428547Y-34265536D01*
X22860253Y-34444796D01*
X23327697Y-34445204D01*
X23759715Y-34266698D01*
X24090536Y-33936453D01*
X24269796Y-33504747D01*
X24269797Y-33502697D01*
X24459796Y-33502697D01*
X24638302Y-33934715D01*
X24968547Y-34265536D01*
X25400253Y-34444796D01*
X25867697Y-34445204D01*
X26299715Y-34266698D01*
X26630536Y-33936453D01*
X26809796Y-33504747D01*
X26810204Y-33037303D01*
X26631698Y-32605285D01*
X26496649Y-32470000D01*
X26992654Y-32470000D01*
X26992654Y-34070000D01*
X27018802Y-34208966D01*
X27100931Y-34336599D01*
X27226246Y-34422223D01*
X27375000Y-34452346D01*
X28975000Y-34452346D01*
X29113966Y-34426198D01*
X29241599Y-34344069D01*
X29327223Y-34218754D01*
X29357346Y-34070000D01*
X29357346Y-32802305D01*
X59049762Y-32802305D01*
X59258652Y-33307857D01*
X59645108Y-33694989D01*
X60150296Y-33904761D01*
X60697305Y-33905238D01*
X61202857Y-33696348D01*
X61396846Y-33502697D01*
X61919796Y-33502697D01*
X62098302Y-33934715D01*
X62428547Y-34265536D01*
X62860253Y-34444796D01*
X63327697Y-34445204D01*
X63759715Y-34266698D01*
X64090536Y-33936453D01*
X64269796Y-33504747D01*
X64269797Y-33502697D01*
X64459796Y-33502697D01*
X64638302Y-33934715D01*
X64968547Y-34265536D01*
X65400253Y-34444796D01*
X65867697Y-34445204D01*
X66299715Y-34266698D01*
X66630536Y-33936453D01*
X66809796Y-33504747D01*
X66810204Y-33037303D01*
X66631698Y-32605285D01*
X66496649Y-32470000D01*
X66992654Y-32470000D01*
X66992654Y-34070000D01*
X67018802Y-34208966D01*
X67100931Y-34336599D01*
X67226246Y-34422223D01*
X67375000Y-34452346D01*
X68975000Y-34452346D01*
X69113966Y-34426198D01*
X69241599Y-34344069D01*
X69327223Y-34218754D01*
X69357346Y-34070000D01*
X69357346Y-32470000D01*
X69331198Y-32331034D01*
X69249069Y-32203401D01*
X69123754Y-32117777D01*
X68975000Y-32087654D01*
X67375000Y-32087654D01*
X67236034Y-32113802D01*
X67108401Y-32195931D01*
X67022777Y-32321246D01*
X66992654Y-32470000D01*
X66496649Y-32470000D01*
X66301453Y-32274464D01*
X65869747Y-32095204D01*
X65402303Y-32094796D01*
X64970285Y-32273302D01*
X64639464Y-32603547D01*
X64460204Y-33035253D01*
X64459796Y-33502697D01*
X64269797Y-33502697D01*
X64270204Y-33037303D01*
X64091698Y-32605285D01*
X63761453Y-32274464D01*
X63329747Y-32095204D01*
X62862303Y-32094796D01*
X62430285Y-32273302D01*
X62099464Y-32603547D01*
X61920204Y-33035253D01*
X61919796Y-33502697D01*
X61396846Y-33502697D01*
X61589989Y-33309892D01*
X61799761Y-32804704D01*
X61800238Y-32257695D01*
X61654446Y-31904852D01*
X62057697Y-31905204D01*
X62489715Y-31726698D01*
X62820536Y-31396453D01*
X62999796Y-30964747D01*
X62999797Y-30962697D01*
X63189796Y-30962697D01*
X63368302Y-31394715D01*
X63698547Y-31725536D01*
X64130253Y-31904796D01*
X64597697Y-31905204D01*
X65029715Y-31726698D01*
X65245053Y-31511734D01*
X66123973Y-31511734D01*
X66200627Y-31700337D01*
X66625576Y-31896027D01*
X67093065Y-31914199D01*
X67531922Y-31752087D01*
X67609373Y-31700337D01*
X67686027Y-31511734D01*
X66905000Y-30730707D01*
X66123973Y-31511734D01*
X65245053Y-31511734D01*
X65360536Y-31396453D01*
X65539796Y-30964747D01*
X65539836Y-30918065D01*
X65720801Y-30918065D01*
X65882913Y-31356922D01*
X65934663Y-31434373D01*
X66123266Y-31511027D01*
X66904293Y-30730000D01*
X66905707Y-30730000D01*
X67686734Y-31511027D01*
X67875337Y-31434373D01*
X68071027Y-31009424D01*
X68089199Y-30541935D01*
X67927087Y-30103078D01*
X67875337Y-30025627D01*
X67686734Y-29948973D01*
X66905707Y-30730000D01*
X66904293Y-30730000D01*
X66123266Y-29948973D01*
X65934663Y-30025627D01*
X65738973Y-30450576D01*
X65720801Y-30918065D01*
X65539836Y-30918065D01*
X65540204Y-30497303D01*
X65361698Y-30065285D01*
X65244883Y-29948266D01*
X66123973Y-29948266D01*
X66905000Y-30729293D01*
X67686027Y-29948266D01*
X67609373Y-29759663D01*
X67184424Y-29563973D01*
X66716935Y-29545801D01*
X66278078Y-29707913D01*
X66200627Y-29759663D01*
X66123973Y-29948266D01*
X65244883Y-29948266D01*
X65031453Y-29734464D01*
X64599747Y-29555204D01*
X64132303Y-29554796D01*
X63700285Y-29733302D01*
X63369464Y-30063547D01*
X63190204Y-30495253D01*
X63189796Y-30962697D01*
X62999797Y-30962697D01*
X63000204Y-30497303D01*
X62821698Y-30065285D01*
X62491453Y-29734464D01*
X62059747Y-29555204D01*
X61592303Y-29554796D01*
X61160285Y-29733302D01*
X60829464Y-30063547D01*
X60650204Y-30495253D01*
X60649796Y-30962697D01*
X60735493Y-31170100D01*
X60699704Y-31155239D01*
X60152695Y-31154762D01*
X59647143Y-31363652D01*
X59260011Y-31750108D01*
X59050239Y-32255296D01*
X59049762Y-32802305D01*
X29357346Y-32802305D01*
X29357346Y-32470000D01*
X29331198Y-32331034D01*
X29249069Y-32203401D01*
X29123754Y-32117777D01*
X28975000Y-32087654D01*
X27375000Y-32087654D01*
X27236034Y-32113802D01*
X27108401Y-32195931D01*
X27022777Y-32321246D01*
X26992654Y-32470000D01*
X26496649Y-32470000D01*
X26301453Y-32274464D01*
X25869747Y-32095204D01*
X25402303Y-32094796D01*
X24970285Y-32273302D01*
X24639464Y-32603547D01*
X24460204Y-33035253D01*
X24459796Y-33502697D01*
X24269797Y-33502697D01*
X24270204Y-33037303D01*
X24091698Y-32605285D01*
X23761453Y-32274464D01*
X23329747Y-32095204D01*
X22862303Y-32094796D01*
X22430285Y-32273302D01*
X22099464Y-32603547D01*
X21920204Y-33035253D01*
X21919796Y-33502697D01*
X21396846Y-33502697D01*
X21589989Y-33309892D01*
X21799761Y-32804704D01*
X21800238Y-32257695D01*
X21654446Y-31904852D01*
X22057697Y-31905204D01*
X22489715Y-31726698D01*
X22820536Y-31396453D01*
X22999796Y-30964747D01*
X22999797Y-30962697D01*
X23189796Y-30962697D01*
X23368302Y-31394715D01*
X23698547Y-31725536D01*
X24130253Y-31904796D01*
X24597697Y-31905204D01*
X25029715Y-31726698D01*
X25245053Y-31511734D01*
X26123973Y-31511734D01*
X26200627Y-31700337D01*
X26625576Y-31896027D01*
X27093065Y-31914199D01*
X27531922Y-31752087D01*
X27609373Y-31700337D01*
X27686027Y-31511734D01*
X26905000Y-30730707D01*
X26123973Y-31511734D01*
X25245053Y-31511734D01*
X25360536Y-31396453D01*
X25539796Y-30964747D01*
X25539836Y-30918065D01*
X25720801Y-30918065D01*
X25882913Y-31356922D01*
X25934663Y-31434373D01*
X26123266Y-31511027D01*
X26904293Y-30730000D01*
X26905707Y-30730000D01*
X27686734Y-31511027D01*
X27875337Y-31434373D01*
X28071027Y-31009424D01*
X28089199Y-30541935D01*
X27927087Y-30103078D01*
X27875337Y-30025627D01*
X27686734Y-29948973D01*
X26905707Y-30730000D01*
X26904293Y-30730000D01*
X26123266Y-29948973D01*
X25934663Y-30025627D01*
X25738973Y-30450576D01*
X25720801Y-30918065D01*
X25539836Y-30918065D01*
X25540204Y-30497303D01*
X25361698Y-30065285D01*
X25244883Y-29948266D01*
X26123973Y-29948266D01*
X26905000Y-30729293D01*
X27686027Y-29948266D01*
X27609373Y-29759663D01*
X27184424Y-29563973D01*
X26716935Y-29545801D01*
X26278078Y-29707913D01*
X26200627Y-29759663D01*
X26123973Y-29948266D01*
X25244883Y-29948266D01*
X25031453Y-29734464D01*
X24599747Y-29555204D01*
X24132303Y-29554796D01*
X23700285Y-29733302D01*
X23369464Y-30063547D01*
X23190204Y-30495253D01*
X23189796Y-30962697D01*
X22999797Y-30962697D01*
X23000204Y-30497303D01*
X22821698Y-30065285D01*
X22491453Y-29734464D01*
X22059747Y-29555204D01*
X21592303Y-29554796D01*
X21160285Y-29733302D01*
X20829464Y-30063547D01*
X20650204Y-30495253D01*
X20649796Y-30962697D01*
X20735493Y-31170100D01*
X20699704Y-31155239D01*
X20152695Y-31154762D01*
X19647143Y-31363652D01*
X19260011Y-31750108D01*
X19050239Y-32255296D01*
X19049762Y-32802305D01*
X450000Y-32802305D01*
X450000Y-26733677D01*
X52224883Y-26733677D01*
X52327429Y-26981857D01*
X52517144Y-27171903D01*
X52765145Y-27274883D01*
X53033677Y-27275117D01*
X53281857Y-27172571D01*
X53471903Y-26982856D01*
X53574883Y-26734855D01*
X53574982Y-26621483D01*
X53618525Y-26556315D01*
X53661939Y-26491343D01*
X53699999Y-26300001D01*
X53699999Y-25747713D01*
X53881857Y-25672571D01*
X54071903Y-25482856D01*
X54174883Y-25234855D01*
X54175117Y-24966323D01*
X54072571Y-24718143D01*
X53882856Y-24528097D01*
X53634855Y-24425117D01*
X53366323Y-24424883D01*
X53118143Y-24527429D01*
X52928097Y-24717144D01*
X52825117Y-24965145D01*
X52825018Y-25078517D01*
X52738059Y-25208659D01*
X52699999Y-25400001D01*
X52699999Y-25952288D01*
X52518143Y-26027429D01*
X52328097Y-26217144D01*
X52225117Y-26465145D01*
X52224883Y-26733677D01*
X450000Y-26733677D01*
X450000Y-15470000D01*
X39372654Y-15470000D01*
X39372654Y-17070000D01*
X39398802Y-17208966D01*
X39480931Y-17336599D01*
X39606246Y-17422223D01*
X39755000Y-17452346D01*
X41355000Y-17452346D01*
X41493966Y-17426198D01*
X41621599Y-17344069D01*
X41707223Y-17218754D01*
X41737346Y-17070000D01*
X41737346Y-17051734D01*
X42313973Y-17051734D01*
X42390627Y-17240337D01*
X42815576Y-17436027D01*
X43283065Y-17454199D01*
X43721922Y-17292087D01*
X43799373Y-17240337D01*
X43876027Y-17051734D01*
X43095000Y-16270707D01*
X42313973Y-17051734D01*
X41737346Y-17051734D01*
X41737346Y-16458065D01*
X41910801Y-16458065D01*
X42072913Y-16896922D01*
X42124663Y-16974373D01*
X42313266Y-17051027D01*
X43094293Y-16270000D01*
X43095707Y-16270000D01*
X43876734Y-17051027D01*
X44065337Y-16974373D01*
X44261027Y-16549424D01*
X44262843Y-16502697D01*
X44459796Y-16502697D01*
X44638302Y-16934715D01*
X44968547Y-17265536D01*
X45400253Y-17444796D01*
X45867697Y-17445204D01*
X46299715Y-17266698D01*
X46630536Y-16936453D01*
X46809796Y-16504747D01*
X46809797Y-16502697D01*
X46999796Y-16502697D01*
X47178302Y-16934715D01*
X47508547Y-17265536D01*
X47940253Y-17444796D01*
X48407697Y-17445204D01*
X48839715Y-17266698D01*
X49170536Y-16936453D01*
X49349796Y-16504747D01*
X49350204Y-16037303D01*
X49171698Y-15605285D01*
X48841453Y-15274464D01*
X48409747Y-15095204D01*
X47942303Y-15094796D01*
X47510285Y-15273302D01*
X47179464Y-15603547D01*
X47000204Y-16035253D01*
X46999796Y-16502697D01*
X46809797Y-16502697D01*
X46810204Y-16037303D01*
X46631698Y-15605285D01*
X46301453Y-15274464D01*
X45869747Y-15095204D01*
X45402303Y-15094796D01*
X44970285Y-15273302D01*
X44639464Y-15603547D01*
X44460204Y-16035253D01*
X44459796Y-16502697D01*
X44262843Y-16502697D01*
X44279199Y-16081935D01*
X44117087Y-15643078D01*
X44065337Y-15565627D01*
X43876734Y-15488973D01*
X43095707Y-16270000D01*
X43094293Y-16270000D01*
X42313266Y-15488973D01*
X42124663Y-15565627D01*
X41928973Y-15990576D01*
X41910801Y-16458065D01*
X41737346Y-16458065D01*
X41737346Y-15488266D01*
X42313973Y-15488266D01*
X43095000Y-16269293D01*
X43876027Y-15488266D01*
X43799373Y-15299663D01*
X43374424Y-15103973D01*
X42906935Y-15085801D01*
X42468078Y-15247913D01*
X42390627Y-15299663D01*
X42313973Y-15488266D01*
X41737346Y-15488266D01*
X41737346Y-15470000D01*
X41711198Y-15331034D01*
X41629069Y-15203401D01*
X41503754Y-15117777D01*
X41355000Y-15087654D01*
X41230000Y-15087654D01*
X41230000Y-14870000D01*
X41205110Y-14744871D01*
X41590253Y-14904796D01*
X42057697Y-14905204D01*
X42489715Y-14726698D01*
X42820536Y-14396453D01*
X42999796Y-13964747D01*
X43000204Y-13497303D01*
X42838107Y-13104999D01*
X43352252Y-13104999D01*
X43190204Y-13495253D01*
X43189796Y-13962697D01*
X43368302Y-14394715D01*
X43698547Y-14725536D01*
X44130253Y-14904796D01*
X44597697Y-14905204D01*
X45029715Y-14726698D01*
X45360536Y-14396453D01*
X45539796Y-13964747D01*
X45540204Y-13497303D01*
X45378107Y-13104999D01*
X45892252Y-13104999D01*
X45730204Y-13495253D01*
X45729796Y-13962697D01*
X45908302Y-14394715D01*
X46238547Y-14725536D01*
X46670253Y-14904796D01*
X47137697Y-14905204D01*
X47569715Y-14726698D01*
X47900536Y-14396453D01*
X48079796Y-13964747D01*
X48080204Y-13497303D01*
X47918107Y-13104999D01*
X48432252Y-13104999D01*
X48270204Y-13495253D01*
X48269796Y-13962697D01*
X48448302Y-14394715D01*
X48778547Y-14725536D01*
X49210253Y-14904796D01*
X49615632Y-14905150D01*
X49470239Y-15255296D01*
X49469762Y-15802305D01*
X49678652Y-16307857D01*
X50065108Y-16694989D01*
X50570296Y-16904761D01*
X51117305Y-16905238D01*
X51622857Y-16696348D01*
X52009989Y-16309892D01*
X52219761Y-15804704D01*
X52220238Y-15257695D01*
X52011348Y-14752143D01*
X51624892Y-14365011D01*
X51119704Y-14155239D01*
X50572695Y-14154762D01*
X50534309Y-14170623D01*
X50619796Y-13964747D01*
X50620204Y-13497303D01*
X50458107Y-13104999D01*
X51850405Y-13104999D01*
X52522573Y-13777167D01*
X52617144Y-13871903D01*
X52741687Y-13923618D01*
X52741688Y-13923619D01*
X52741689Y-13923619D01*
X52865145Y-13974883D01*
X53133677Y-13975117D01*
X53381857Y-13872571D01*
X53571903Y-13682856D01*
X53674883Y-13434855D01*
X53675117Y-13166323D01*
X53572571Y-12918143D01*
X53382856Y-12728097D01*
X53382574Y-12727980D01*
X52607296Y-11952702D01*
X52388311Y-11806380D01*
X52129999Y-11754999D01*
X41200999Y-11754999D01*
X40942688Y-11806380D01*
X40942686Y-11806381D01*
X40942687Y-11806381D01*
X40723702Y-11952702D01*
X40047702Y-12628702D01*
X39901380Y-12847687D01*
X39901380Y-12847688D01*
X39849999Y-13105999D01*
X39849999Y-14839999D01*
X39880000Y-14990826D01*
X39880000Y-15087654D01*
X39755000Y-15087654D01*
X39616034Y-15113802D01*
X39488401Y-15195931D01*
X39402777Y-15321246D01*
X39372654Y-15470000D01*
X450000Y-15470000D01*
X450000Y-5222687D01*
X1085720Y-5859517D01*
X2325726Y-6374413D01*
X3668384Y-6375584D01*
X4909286Y-5862854D01*
X5859517Y-4914280D01*
X6230508Y-4020834D01*
X6924632Y-4020834D01*
X7247462Y-4802143D01*
X7844713Y-5400437D01*
X8625457Y-5724630D01*
X9470834Y-5725368D01*
X10252143Y-5402538D01*
X10850437Y-4805287D01*
X11174630Y-4024543D01*
X11174633Y-4020834D01*
X38824632Y-4020834D01*
X39147462Y-4802143D01*
X39744713Y-5400437D01*
X40525457Y-5724630D01*
X41370834Y-5725368D01*
X42152143Y-5402538D01*
X42750437Y-4805287D01*
X43074630Y-4024543D01*
X43074633Y-4020834D01*
X46924632Y-4020834D01*
X47247462Y-4802143D01*
X47844713Y-5400437D01*
X48625457Y-5724630D01*
X49470834Y-5725368D01*
X50252143Y-5402538D01*
X50850437Y-4805287D01*
X51174630Y-4024543D01*
X51174633Y-4020834D01*
X78824632Y-4020834D01*
X79147462Y-4802143D01*
X79744713Y-5400437D01*
X80525457Y-5724630D01*
X81370834Y-5725368D01*
X82152143Y-5402538D01*
X82750437Y-4805287D01*
X83074630Y-4024543D01*
X83075368Y-3179166D01*
X82752538Y-2397857D01*
X82155287Y-1799563D01*
X81374543Y-1475370D01*
X80529166Y-1474632D01*
X79747857Y-1797462D01*
X79149563Y-2394713D01*
X78825370Y-3175457D01*
X78824632Y-4020834D01*
X51174633Y-4020834D01*
X51175368Y-3179166D01*
X50852538Y-2397857D01*
X50255287Y-1799563D01*
X49474543Y-1475370D01*
X48629166Y-1474632D01*
X47847857Y-1797462D01*
X47249563Y-2394713D01*
X46925370Y-3175457D01*
X46924632Y-4020834D01*
X43074633Y-4020834D01*
X43075368Y-3179166D01*
X42752538Y-2397857D01*
X42155287Y-1799563D01*
X41374543Y-1475370D01*
X40529166Y-1474632D01*
X39747857Y-1797462D01*
X39149563Y-2394713D01*
X38825370Y-3175457D01*
X38824632Y-4020834D01*
X11174633Y-4020834D01*
X11175368Y-3179166D01*
X10852538Y-2397857D01*
X10255287Y-1799563D01*
X9474543Y-1475370D01*
X8629166Y-1474632D01*
X7847857Y-1797462D01*
X7249563Y-2394713D01*
X6925370Y-3175457D01*
X6924632Y-4020834D01*
X6230508Y-4020834D01*
X6374413Y-3674274D01*
X6375584Y-2331616D01*
X5862854Y-1090714D01*
X5223257Y-450000D01*
X84777313Y-450000D01*
X84140483Y-1085720D01*
X84140483Y-1085720D01*
G37*
X84140483Y-1085720D02*
X83625587Y-2325726D01*
X83624416Y-3668384D01*
X84137146Y-4909286D01*
X85085720Y-5859517D01*
X86325726Y-6374413D01*
X87668384Y-6375584D01*
X88909286Y-5862854D01*
X89550000Y-5223257D01*
X89550000Y-84777313D01*
X88914280Y-84140483D01*
X87674274Y-83625587D01*
X86331616Y-83624416D01*
X85090714Y-84137146D01*
X84140483Y-85085720D01*
X83625587Y-86325726D01*
X83624416Y-87668384D01*
X84137146Y-88909286D01*
X84776743Y-89550000D01*
X5222687Y-89550000D01*
X5859517Y-88914280D01*
X6374413Y-87674274D01*
X6375157Y-86820834D01*
X6924632Y-86820834D01*
X7247462Y-87602143D01*
X7844713Y-88200437D01*
X8625457Y-88524630D01*
X9470834Y-88525368D01*
X10252143Y-88202538D01*
X10850437Y-87605287D01*
X11174630Y-86824543D01*
X11174633Y-86820834D01*
X38824632Y-86820834D01*
X39147462Y-87602143D01*
X39744713Y-88200437D01*
X40525457Y-88524630D01*
X41370834Y-88525368D01*
X42152143Y-88202538D01*
X42750437Y-87605287D01*
X43074630Y-86824543D01*
X43074633Y-86820834D01*
X46924632Y-86820834D01*
X47247462Y-87602143D01*
X47844713Y-88200437D01*
X48625457Y-88524630D01*
X49470834Y-88525368D01*
X50252143Y-88202538D01*
X50850437Y-87605287D01*
X51174630Y-86824543D01*
X51174633Y-86820834D01*
X78824632Y-86820834D01*
X79147462Y-87602143D01*
X79744713Y-88200437D01*
X80525457Y-88524630D01*
X81370834Y-88525368D01*
X82152143Y-88202538D01*
X82750437Y-87605287D01*
X83074630Y-86824543D01*
X83075368Y-85979166D01*
X82752538Y-85197857D01*
X82155287Y-84599563D01*
X81374543Y-84275370D01*
X80529166Y-84274632D01*
X79747857Y-84597462D01*
X79149563Y-85194713D01*
X78825370Y-85975457D01*
X78824632Y-86820834D01*
X51174633Y-86820834D01*
X51175368Y-85979166D01*
X50852538Y-85197857D01*
X50255287Y-84599563D01*
X49474543Y-84275370D01*
X48629166Y-84274632D01*
X47847857Y-84597462D01*
X47249563Y-85194713D01*
X46925370Y-85975457D01*
X46924632Y-86820834D01*
X43074633Y-86820834D01*
X43075368Y-85979166D01*
X42752538Y-85197857D01*
X42155287Y-84599563D01*
X41374543Y-84275370D01*
X40529166Y-84274632D01*
X39747857Y-84597462D01*
X39149563Y-85194713D01*
X38825370Y-85975457D01*
X38824632Y-86820834D01*
X11174633Y-86820834D01*
X11175368Y-85979166D01*
X10852538Y-85197857D01*
X10255287Y-84599563D01*
X9474543Y-84275370D01*
X8629166Y-84274632D01*
X7847857Y-84597462D01*
X7249563Y-85194713D01*
X6925370Y-85975457D01*
X6924632Y-86820834D01*
X6375157Y-86820834D01*
X6375584Y-86331616D01*
X5862854Y-85090714D01*
X4914280Y-84140483D01*
X3674274Y-83625587D01*
X2331616Y-83624416D01*
X1090714Y-84137146D01*
X450000Y-84776743D01*
X450000Y-60051734D01*
X22313973Y-60051734D01*
X22390627Y-60240337D01*
X22815576Y-60436027D01*
X23283065Y-60454199D01*
X23721922Y-60292087D01*
X23799373Y-60240337D01*
X23876027Y-60051734D01*
X23095000Y-59270707D01*
X22313973Y-60051734D01*
X450000Y-60051734D01*
X450000Y-59458065D01*
X21910801Y-59458065D01*
X22072913Y-59896922D01*
X22124663Y-59974373D01*
X22313266Y-60051027D01*
X23094293Y-59270000D01*
X23095707Y-59270000D01*
X23876734Y-60051027D01*
X24065337Y-59974373D01*
X24261027Y-59549424D01*
X24262843Y-59502697D01*
X24459796Y-59502697D01*
X24638302Y-59934715D01*
X24968547Y-60265536D01*
X25400253Y-60444796D01*
X25867697Y-60445204D01*
X26299715Y-60266698D01*
X26630536Y-59936453D01*
X26809796Y-59504747D01*
X26809797Y-59502697D01*
X26999796Y-59502697D01*
X27178302Y-59934715D01*
X27508547Y-60265536D01*
X27940253Y-60444796D01*
X28407697Y-60445204D01*
X28839715Y-60266698D01*
X29055053Y-60051734D01*
X62313973Y-60051734D01*
X62390627Y-60240337D01*
X62815576Y-60436027D01*
X63283065Y-60454199D01*
X63721922Y-60292087D01*
X63799373Y-60240337D01*
X63876027Y-60051734D01*
X63095000Y-59270707D01*
X62313973Y-60051734D01*
X29055053Y-60051734D01*
X29170536Y-59936453D01*
X29349796Y-59504747D01*
X29349836Y-59458065D01*
X61910801Y-59458065D01*
X62072913Y-59896922D01*
X62124663Y-59974373D01*
X62313266Y-60051027D01*
X63094293Y-59270000D01*
X63095707Y-59270000D01*
X63876734Y-60051027D01*
X64065337Y-59974373D01*
X64261027Y-59549424D01*
X64262843Y-59502697D01*
X64459796Y-59502697D01*
X64638302Y-59934715D01*
X64968547Y-60265536D01*
X65400253Y-60444796D01*
X65867697Y-60445204D01*
X66299715Y-60266698D01*
X66630536Y-59936453D01*
X66809796Y-59504747D01*
X66809797Y-59502697D01*
X66999796Y-59502697D01*
X67178302Y-59934715D01*
X67508547Y-60265536D01*
X67940253Y-60444796D01*
X68407697Y-60445204D01*
X68839715Y-60266698D01*
X69170536Y-59936453D01*
X69349796Y-59504747D01*
X69350204Y-59037303D01*
X69264507Y-58829900D01*
X69300296Y-58844761D01*
X69847305Y-58845238D01*
X70352857Y-58636348D01*
X70739989Y-58249892D01*
X70949761Y-57744704D01*
X70950238Y-57197695D01*
X70741348Y-56692143D01*
X70354892Y-56305011D01*
X69849704Y-56095239D01*
X69302695Y-56094762D01*
X68797143Y-56303652D01*
X68410011Y-56690108D01*
X68200239Y-57195296D01*
X68199762Y-57742305D01*
X68345554Y-58095148D01*
X67942303Y-58094796D01*
X67510285Y-58273302D01*
X67179464Y-58603547D01*
X67000204Y-59035253D01*
X66999796Y-59502697D01*
X66809797Y-59502697D01*
X66810204Y-59037303D01*
X66631698Y-58605285D01*
X66301453Y-58274464D01*
X65869747Y-58095204D01*
X65402303Y-58094796D01*
X64970285Y-58273302D01*
X64639464Y-58603547D01*
X64460204Y-59035253D01*
X64459796Y-59502697D01*
X64262843Y-59502697D01*
X64279199Y-59081935D01*
X64117087Y-58643078D01*
X64065337Y-58565627D01*
X63876734Y-58488973D01*
X63095707Y-59270000D01*
X63094293Y-59270000D01*
X62313266Y-58488973D01*
X62124663Y-58565627D01*
X61928973Y-58990576D01*
X61910801Y-59458065D01*
X29349836Y-59458065D01*
X29350204Y-59037303D01*
X29264507Y-58829900D01*
X29300296Y-58844761D01*
X29847305Y-58845238D01*
X30352857Y-58636348D01*
X30501198Y-58488266D01*
X62313973Y-58488266D01*
X63095000Y-59269293D01*
X63876027Y-58488266D01*
X63799373Y-58299663D01*
X63374424Y-58103973D01*
X62906935Y-58085801D01*
X62468078Y-58247913D01*
X62390627Y-58299663D01*
X62313973Y-58488266D01*
X30501198Y-58488266D01*
X30739989Y-58249892D01*
X30949761Y-57744704D01*
X30950238Y-57197695D01*
X30741348Y-56692143D01*
X30354892Y-56305011D01*
X29849704Y-56095239D01*
X29302695Y-56094762D01*
X28797143Y-56303652D01*
X28410011Y-56690108D01*
X28200239Y-57195296D01*
X28199762Y-57742305D01*
X28345554Y-58095148D01*
X27942303Y-58094796D01*
X27510285Y-58273302D01*
X27179464Y-58603547D01*
X27000204Y-59035253D01*
X26999796Y-59502697D01*
X26809797Y-59502697D01*
X26810204Y-59037303D01*
X26631698Y-58605285D01*
X26301453Y-58274464D01*
X25869747Y-58095204D01*
X25402303Y-58094796D01*
X24970285Y-58273302D01*
X24639464Y-58603547D01*
X24460204Y-59035253D01*
X24459796Y-59502697D01*
X24262843Y-59502697D01*
X24279199Y-59081935D01*
X24117087Y-58643078D01*
X24065337Y-58565627D01*
X23876734Y-58488973D01*
X23095707Y-59270000D01*
X23094293Y-59270000D01*
X22313266Y-58488973D01*
X22124663Y-58565627D01*
X21928973Y-58990576D01*
X21910801Y-59458065D01*
X450000Y-59458065D01*
X450000Y-58488266D01*
X22313973Y-58488266D01*
X23095000Y-59269293D01*
X23876027Y-58488266D01*
X23799373Y-58299663D01*
X23374424Y-58103973D01*
X22906935Y-58085801D01*
X22468078Y-58247913D01*
X22390627Y-58299663D01*
X22313973Y-58488266D01*
X450000Y-58488266D01*
X450000Y-54820834D01*
X6924632Y-54820834D01*
X7247462Y-55602143D01*
X7844713Y-56200437D01*
X8625457Y-56524630D01*
X9470834Y-56525368D01*
X10252143Y-56202538D01*
X10525156Y-55930000D01*
X20642654Y-55930000D01*
X20642654Y-57530000D01*
X20668802Y-57668966D01*
X20750931Y-57796599D01*
X20876246Y-57882223D01*
X21025000Y-57912346D01*
X22625000Y-57912346D01*
X22763966Y-57886198D01*
X22891599Y-57804069D01*
X22977223Y-57678754D01*
X23007346Y-57530000D01*
X23007346Y-56962697D01*
X23189796Y-56962697D01*
X23368302Y-57394715D01*
X23698547Y-57725536D01*
X24130253Y-57904796D01*
X24597697Y-57905204D01*
X25029715Y-57726698D01*
X25360536Y-57396453D01*
X25539796Y-56964747D01*
X25539797Y-56962697D01*
X25729796Y-56962697D01*
X25908302Y-57394715D01*
X26238547Y-57725536D01*
X26670253Y-57904796D01*
X27137697Y-57905204D01*
X27569715Y-57726698D01*
X27900536Y-57396453D01*
X28079796Y-56964747D01*
X28080204Y-56497303D01*
X27901698Y-56065285D01*
X27571453Y-55734464D01*
X27139747Y-55555204D01*
X26672303Y-55554796D01*
X26240285Y-55733302D01*
X25909464Y-56063547D01*
X25730204Y-56495253D01*
X25729796Y-56962697D01*
X25539797Y-56962697D01*
X25540204Y-56497303D01*
X25361698Y-56065285D01*
X25031453Y-55734464D01*
X24599747Y-55555204D01*
X24132303Y-55554796D01*
X23700285Y-55733302D01*
X23369464Y-56063547D01*
X23190204Y-56495253D01*
X23189796Y-56962697D01*
X23007346Y-56962697D01*
X23007346Y-55930000D01*
X22981198Y-55791034D01*
X22899069Y-55663401D01*
X22773754Y-55577777D01*
X22625000Y-55547654D01*
X21025000Y-55547654D01*
X20886034Y-55573802D01*
X20758401Y-55655931D01*
X20672777Y-55781246D01*
X20642654Y-55930000D01*
X10525156Y-55930000D01*
X10850437Y-55605287D01*
X11174630Y-54824543D01*
X11174633Y-54820834D01*
X38824632Y-54820834D01*
X39147462Y-55602143D01*
X39744713Y-56200437D01*
X40525457Y-56524630D01*
X41370834Y-56525368D01*
X42152143Y-56202538D01*
X42750437Y-55605287D01*
X43074630Y-54824543D01*
X43074633Y-54820834D01*
X46924632Y-54820834D01*
X47247462Y-55602143D01*
X47844713Y-56200437D01*
X48625457Y-56524630D01*
X49470834Y-56525368D01*
X50252143Y-56202538D01*
X50525156Y-55930000D01*
X60642654Y-55930000D01*
X60642654Y-57530000D01*
X60668802Y-57668966D01*
X60750931Y-57796599D01*
X60876246Y-57882223D01*
X61025000Y-57912346D01*
X62625000Y-57912346D01*
X62763966Y-57886198D01*
X62891599Y-57804069D01*
X62977223Y-57678754D01*
X63007346Y-57530000D01*
X63007346Y-56962697D01*
X63189796Y-56962697D01*
X63368302Y-57394715D01*
X63698547Y-57725536D01*
X64130253Y-57904796D01*
X64597697Y-57905204D01*
X65029715Y-57726698D01*
X65360536Y-57396453D01*
X65539796Y-56964747D01*
X65539797Y-56962697D01*
X65729796Y-56962697D01*
X65908302Y-57394715D01*
X66238547Y-57725536D01*
X66670253Y-57904796D01*
X67137697Y-57905204D01*
X67569715Y-57726698D01*
X67900536Y-57396453D01*
X68079796Y-56964747D01*
X68080204Y-56497303D01*
X67901698Y-56065285D01*
X67571453Y-55734464D01*
X67139747Y-55555204D01*
X66672303Y-55554796D01*
X66240285Y-55733302D01*
X65909464Y-56063547D01*
X65730204Y-56495253D01*
X65729796Y-56962697D01*
X65539797Y-56962697D01*
X65540204Y-56497303D01*
X65361698Y-56065285D01*
X65031453Y-55734464D01*
X64599747Y-55555204D01*
X64132303Y-55554796D01*
X63700285Y-55733302D01*
X63369464Y-56063547D01*
X63190204Y-56495253D01*
X63189796Y-56962697D01*
X63007346Y-56962697D01*
X63007346Y-55930000D01*
X62981198Y-55791034D01*
X62899069Y-55663401D01*
X62773754Y-55577777D01*
X62625000Y-55547654D01*
X61025000Y-55547654D01*
X60886034Y-55573802D01*
X60758401Y-55655931D01*
X60672777Y-55781246D01*
X60642654Y-55930000D01*
X50525156Y-55930000D01*
X50850437Y-55605287D01*
X51174630Y-54824543D01*
X51174633Y-54820834D01*
X78824632Y-54820834D01*
X79147462Y-55602143D01*
X79744713Y-56200437D01*
X80525457Y-56524630D01*
X81370834Y-56525368D01*
X82152143Y-56202538D01*
X82750437Y-55605287D01*
X83074630Y-54824543D01*
X83075368Y-53979166D01*
X82752538Y-53197857D01*
X82155287Y-52599563D01*
X81374543Y-52275370D01*
X80529166Y-52274632D01*
X79747857Y-52597462D01*
X79149563Y-53194713D01*
X78825370Y-53975457D01*
X78824632Y-54820834D01*
X51174633Y-54820834D01*
X51175368Y-53979166D01*
X50852538Y-53197857D01*
X50255287Y-52599563D01*
X49474543Y-52275370D01*
X48629166Y-52274632D01*
X47847857Y-52597462D01*
X47249563Y-53194713D01*
X46925370Y-53975457D01*
X46924632Y-54820834D01*
X43074633Y-54820834D01*
X43075368Y-53979166D01*
X42752538Y-53197857D01*
X42155287Y-52599563D01*
X41374543Y-52275370D01*
X40529166Y-52274632D01*
X39747857Y-52597462D01*
X39149563Y-53194713D01*
X38825370Y-53975457D01*
X38824632Y-54820834D01*
X11174633Y-54820834D01*
X11175368Y-53979166D01*
X10852538Y-53197857D01*
X10255287Y-52599563D01*
X9474543Y-52275370D01*
X8629166Y-52274632D01*
X7847857Y-52597462D01*
X7249563Y-53194713D01*
X6925370Y-53975457D01*
X6924632Y-54820834D01*
X450000Y-54820834D01*
X450000Y-36020834D01*
X6924632Y-36020834D01*
X7247462Y-36802143D01*
X7844713Y-37400437D01*
X8625457Y-37724630D01*
X9470834Y-37725368D01*
X10252143Y-37402538D01*
X10850437Y-36805287D01*
X10894155Y-36700000D01*
X16050000Y-36700000D01*
X16050000Y-53300000D01*
X16058647Y-53343471D01*
X16058647Y-53387790D01*
X16134766Y-53770468D01*
X16134766Y-53770473D01*
X16162598Y-53837665D01*
X16201958Y-53932690D01*
X16201963Y-53932695D01*
X16418730Y-54257111D01*
X16418731Y-54257114D01*
X16461618Y-54300000D01*
X16542886Y-54381268D01*
X16542889Y-54381269D01*
X16867307Y-54598039D01*
X16867310Y-54598042D01*
X16948418Y-54631637D01*
X17029527Y-54665234D01*
X17029532Y-54665234D01*
X17412210Y-54741353D01*
X17456529Y-54741353D01*
X17500000Y-54750000D01*
X32500000Y-54750000D01*
X32543471Y-54741353D01*
X32587790Y-54741353D01*
X32970468Y-54665234D01*
X32970473Y-54665234D01*
X33037665Y-54637402D01*
X33132690Y-54598042D01*
X33132695Y-54598037D01*
X33457111Y-54381270D01*
X33457114Y-54381269D01*
X33538382Y-54300000D01*
X33581268Y-54257114D01*
X33581269Y-54257111D01*
X33798039Y-53932693D01*
X33798042Y-53932690D01*
X33832409Y-53849718D01*
X33865234Y-53770473D01*
X33865234Y-53770468D01*
X33941353Y-53387790D01*
X33941353Y-53343471D01*
X33950000Y-53300000D01*
X33950000Y-36700000D01*
X33941353Y-36656529D01*
X33941353Y-36612210D01*
X33865234Y-36229532D01*
X33865234Y-36229527D01*
X33818104Y-36115746D01*
X33798042Y-36067310D01*
X33798039Y-36067307D01*
X33581268Y-35742887D01*
X33581268Y-35742886D01*
X33519191Y-35680809D01*
X33457114Y-35618731D01*
X33457111Y-35618730D01*
X33180159Y-35433677D01*
X33824883Y-35433677D01*
X33927429Y-35681857D01*
X34117144Y-35871903D01*
X34365145Y-35974883D01*
X34633677Y-35975117D01*
X34633960Y-35975000D01*
X35920406Y-35975000D01*
X38422573Y-38477167D01*
X38517144Y-38571903D01*
X38765145Y-38674883D01*
X39033677Y-38675117D01*
X39281857Y-38572571D01*
X39471903Y-38382856D01*
X39574883Y-38134855D01*
X39575117Y-37866323D01*
X39472571Y-37618143D01*
X39282856Y-37428097D01*
X39282574Y-37427980D01*
X37875428Y-36020834D01*
X38824632Y-36020834D01*
X39147462Y-36802143D01*
X39744713Y-37400437D01*
X40525457Y-37724630D01*
X41370834Y-37725368D01*
X42152143Y-37402538D01*
X42750437Y-36805287D01*
X43074630Y-36024543D01*
X43074633Y-36020834D01*
X46924632Y-36020834D01*
X47247462Y-36802143D01*
X47844713Y-37400437D01*
X48625457Y-37724630D01*
X49470834Y-37725368D01*
X50252143Y-37402538D01*
X50850437Y-36805287D01*
X50894155Y-36700000D01*
X56050000Y-36700000D01*
X56050000Y-53300000D01*
X56058647Y-53343471D01*
X56058647Y-53387790D01*
X56134766Y-53770468D01*
X56134766Y-53770473D01*
X56162598Y-53837665D01*
X56201958Y-53932690D01*
X56201963Y-53932695D01*
X56418730Y-54257111D01*
X56418731Y-54257114D01*
X56461618Y-54300000D01*
X56542886Y-54381268D01*
X56542889Y-54381269D01*
X56867307Y-54598039D01*
X56867310Y-54598042D01*
X56948418Y-54631637D01*
X57029527Y-54665234D01*
X57029532Y-54665234D01*
X57412210Y-54741353D01*
X57456529Y-54741353D01*
X57500000Y-54750000D01*
X72500000Y-54750000D01*
X72543471Y-54741353D01*
X72587790Y-54741353D01*
X72970468Y-54665234D01*
X72970473Y-54665234D01*
X73037665Y-54637402D01*
X73132690Y-54598042D01*
X73132695Y-54598037D01*
X73457111Y-54381270D01*
X73457114Y-54381269D01*
X73538382Y-54300000D01*
X73581268Y-54257114D01*
X73581269Y-54257111D01*
X73798039Y-53932693D01*
X73798042Y-53932690D01*
X73832409Y-53849718D01*
X73865234Y-53770473D01*
X73865234Y-53770468D01*
X73941353Y-53387790D01*
X73941353Y-53343471D01*
X73950000Y-53300000D01*
X73950000Y-40293551D01*
X85024999Y-40293551D01*
X85024999Y-45012067D01*
X85054129Y-45158514D01*
X85063059Y-45203409D01*
X85171446Y-45365620D01*
X85484534Y-45678709D01*
X85467654Y-45762068D01*
X85467654Y-46362068D01*
X85493802Y-46501034D01*
X85575931Y-46628667D01*
X85701246Y-46714291D01*
X85850000Y-46744414D01*
X85875249Y-46744414D01*
X85825117Y-46865145D01*
X85824883Y-47133677D01*
X85927429Y-47381857D01*
X86117144Y-47571903D01*
X86365145Y-47674883D01*
X86633677Y-47675117D01*
X86881857Y-47572571D01*
X87071903Y-47382856D01*
X87174883Y-47134855D01*
X87174884Y-47133677D01*
X87324883Y-47133677D01*
X87427429Y-47381857D01*
X87617144Y-47571903D01*
X87865145Y-47674883D01*
X88133677Y-47675117D01*
X88381857Y-47572571D01*
X88571903Y-47382856D01*
X88674883Y-47134855D01*
X88675117Y-46866323D01*
X88572571Y-46618143D01*
X88502117Y-46547566D01*
X88527223Y-46510822D01*
X88557346Y-46362068D01*
X88557346Y-45762068D01*
X88531198Y-45623102D01*
X88449069Y-45495469D01*
X88323754Y-45409845D01*
X88175000Y-45379722D01*
X87825000Y-45379722D01*
X87686034Y-45405870D01*
X87661191Y-45421856D01*
X87574791Y-45386068D01*
X87419500Y-45386068D01*
X87325500Y-45480068D01*
X87325500Y-46061568D01*
X87345500Y-46061568D01*
X87345500Y-46062568D01*
X87325500Y-46062568D01*
X87325500Y-46644068D01*
X87390095Y-46708663D01*
X87325117Y-46865145D01*
X87324883Y-47133677D01*
X87174884Y-47133677D01*
X87175117Y-46866323D01*
X87169489Y-46852703D01*
X87175000Y-46825000D01*
X87175000Y-46738068D01*
X87230500Y-46738068D01*
X87324500Y-46644068D01*
X87324500Y-46062568D01*
X87304500Y-46062568D01*
X87304500Y-46061568D01*
X87324500Y-46061568D01*
X87324500Y-45480068D01*
X87230500Y-45386068D01*
X87175000Y-45386068D01*
X87175000Y-45319174D01*
X87678554Y-44815621D01*
X87786940Y-44653410D01*
X87799937Y-44588068D01*
X87880500Y-44588068D01*
X87974500Y-44494068D01*
X87974500Y-43912568D01*
X87975500Y-43912568D01*
X87975500Y-44494068D01*
X88069500Y-44588068D01*
X88224791Y-44588068D01*
X88362987Y-44530825D01*
X88468757Y-44425055D01*
X88526000Y-44286859D01*
X88526000Y-44006568D01*
X88432000Y-43912568D01*
X87975500Y-43912568D01*
X87974500Y-43912568D01*
X87954500Y-43912568D01*
X87954500Y-43911568D01*
X87974500Y-43911568D01*
X87974500Y-43330068D01*
X87975500Y-43330068D01*
X87975500Y-43911568D01*
X88432000Y-43911568D01*
X88526000Y-43817568D01*
X88526000Y-43537277D01*
X88468757Y-43399081D01*
X88362987Y-43293311D01*
X88224791Y-43236068D01*
X88069500Y-43236068D01*
X87975500Y-43330068D01*
X87974500Y-43330068D01*
X87880500Y-43236068D01*
X87725209Y-43236068D01*
X87655945Y-43264758D01*
X87648754Y-43259845D01*
X87500000Y-43229722D01*
X87175000Y-43229722D01*
X87175000Y-42229634D01*
X87246903Y-42157856D01*
X87349883Y-41909855D01*
X87350117Y-41641323D01*
X87247571Y-41393143D01*
X87057856Y-41203097D01*
X86809855Y-41100117D01*
X86541323Y-41099883D01*
X86525000Y-41106628D01*
X86525000Y-41032106D01*
X86532078Y-41025028D01*
X86633677Y-41025117D01*
X86881857Y-40922571D01*
X87071903Y-40732856D01*
X87174883Y-40484855D01*
X87175117Y-40216323D01*
X87072571Y-39968143D01*
X86882856Y-39778097D01*
X86787256Y-39738400D01*
X87186624Y-39339033D01*
X87368349Y-39414493D01*
X87636881Y-39414727D01*
X87885061Y-39312181D01*
X88075107Y-39122466D01*
X88178087Y-38874465D01*
X88178321Y-38605933D01*
X88075775Y-38357753D01*
X87886060Y-38167707D01*
X87638059Y-38064727D01*
X87369527Y-38064493D01*
X87121347Y-38167039D01*
X87041112Y-38247134D01*
X86887598Y-38277670D01*
X86725386Y-38386057D01*
X85171446Y-39939998D01*
X85063059Y-40102209D01*
X85024999Y-40293551D01*
X73950000Y-40293551D01*
X73950000Y-36700000D01*
X73941353Y-36656529D01*
X73941353Y-36612210D01*
X73865234Y-36229532D01*
X73865234Y-36229527D01*
X73818104Y-36115746D01*
X73798042Y-36067310D01*
X73798039Y-36067307D01*
X73766987Y-36020834D01*
X78824632Y-36020834D01*
X79147462Y-36802143D01*
X79744713Y-37400437D01*
X80525457Y-37724630D01*
X81370834Y-37725368D01*
X82152143Y-37402538D01*
X82750437Y-36805287D01*
X83074630Y-36024543D01*
X83075368Y-35179166D01*
X82752538Y-34397857D01*
X82155287Y-33799563D01*
X81374543Y-33475370D01*
X80529166Y-33474632D01*
X79747857Y-33797462D01*
X79149563Y-34394713D01*
X78825370Y-35175457D01*
X78824632Y-36020834D01*
X73766987Y-36020834D01*
X73581268Y-35742887D01*
X73581268Y-35742886D01*
X73519191Y-35680809D01*
X73457114Y-35618731D01*
X73457111Y-35618730D01*
X73132695Y-35401963D01*
X73132690Y-35401958D01*
X73037665Y-35362598D01*
X72970473Y-35334766D01*
X72970468Y-35334766D01*
X72587790Y-35258647D01*
X72543471Y-35258647D01*
X72500000Y-35250000D01*
X57500000Y-35250000D01*
X57456529Y-35258647D01*
X57412210Y-35258647D01*
X57029532Y-35334766D01*
X56948418Y-35368363D01*
X56867310Y-35401958D01*
X56867307Y-35401961D01*
X56542889Y-35618731D01*
X56542886Y-35618732D01*
X56480809Y-35680809D01*
X56418731Y-35742886D01*
X56418731Y-35742887D01*
X56201963Y-36067305D01*
X56201958Y-36067310D01*
X56167591Y-36150281D01*
X56134766Y-36229527D01*
X56134766Y-36229532D01*
X56058647Y-36612210D01*
X56058647Y-36656529D01*
X56050000Y-36700000D01*
X50894155Y-36700000D01*
X51174630Y-36024543D01*
X51175368Y-35179166D01*
X50852538Y-34397857D01*
X50255287Y-33799563D01*
X49474543Y-33475370D01*
X48629166Y-33474632D01*
X47847857Y-33797462D01*
X47249563Y-34394713D01*
X46925370Y-35175457D01*
X46924632Y-36020834D01*
X43074633Y-36020834D01*
X43075368Y-35179166D01*
X42752538Y-34397857D01*
X42155287Y-33799563D01*
X41374543Y-33475370D01*
X40529166Y-33474632D01*
X39747857Y-33797462D01*
X39149563Y-34394713D01*
X38825370Y-35175457D01*
X38824632Y-36020834D01*
X37875428Y-36020834D01*
X36677297Y-34822703D01*
X36458312Y-34676381D01*
X36200000Y-34625000D01*
X34500589Y-34625000D01*
X34366323Y-34624883D01*
X34118143Y-34727429D01*
X33928097Y-34917144D01*
X33825117Y-35165145D01*
X33824883Y-35433677D01*
X33180159Y-35433677D01*
X33132695Y-35401963D01*
X33132690Y-35401958D01*
X33037665Y-35362598D01*
X32970473Y-35334766D01*
X32970468Y-35334766D01*
X32587790Y-35258647D01*
X32543471Y-35258647D01*
X32500000Y-35250000D01*
X17500000Y-35250000D01*
X17456529Y-35258647D01*
X17412210Y-35258647D01*
X17029532Y-35334766D01*
X16948418Y-35368363D01*
X16867310Y-35401958D01*
X16867307Y-35401961D01*
X16542889Y-35618731D01*
X16542886Y-35618732D01*
X16480809Y-35680809D01*
X16418731Y-35742886D01*
X16418731Y-35742887D01*
X16201963Y-36067305D01*
X16201958Y-36067310D01*
X16167591Y-36150281D01*
X16134766Y-36229527D01*
X16134766Y-36229532D01*
X16058647Y-36612210D01*
X16058647Y-36656529D01*
X16050000Y-36700000D01*
X10894155Y-36700000D01*
X11174630Y-36024543D01*
X11175368Y-35179166D01*
X10852538Y-34397857D01*
X10255287Y-33799563D01*
X9474543Y-33475370D01*
X8629166Y-33474632D01*
X7847857Y-33797462D01*
X7249563Y-34394713D01*
X6925370Y-35175457D01*
X6924632Y-36020834D01*
X450000Y-36020834D01*
X450000Y-32802305D01*
X19049762Y-32802305D01*
X19258652Y-33307857D01*
X19645108Y-33694989D01*
X20150296Y-33904761D01*
X20697305Y-33905238D01*
X21202857Y-33696348D01*
X21396846Y-33502697D01*
X21919796Y-33502697D01*
X22098302Y-33934715D01*
X22428547Y-34265536D01*
X22860253Y-34444796D01*
X23327697Y-34445204D01*
X23759715Y-34266698D01*
X24090536Y-33936453D01*
X24269796Y-33504747D01*
X24269797Y-33502697D01*
X24459796Y-33502697D01*
X24638302Y-33934715D01*
X24968547Y-34265536D01*
X25400253Y-34444796D01*
X25867697Y-34445204D01*
X26299715Y-34266698D01*
X26630536Y-33936453D01*
X26809796Y-33504747D01*
X26810204Y-33037303D01*
X26631698Y-32605285D01*
X26496649Y-32470000D01*
X26992654Y-32470000D01*
X26992654Y-34070000D01*
X27018802Y-34208966D01*
X27100931Y-34336599D01*
X27226246Y-34422223D01*
X27375000Y-34452346D01*
X28975000Y-34452346D01*
X29113966Y-34426198D01*
X29241599Y-34344069D01*
X29327223Y-34218754D01*
X29357346Y-34070000D01*
X29357346Y-32802305D01*
X59049762Y-32802305D01*
X59258652Y-33307857D01*
X59645108Y-33694989D01*
X60150296Y-33904761D01*
X60697305Y-33905238D01*
X61202857Y-33696348D01*
X61396846Y-33502697D01*
X61919796Y-33502697D01*
X62098302Y-33934715D01*
X62428547Y-34265536D01*
X62860253Y-34444796D01*
X63327697Y-34445204D01*
X63759715Y-34266698D01*
X64090536Y-33936453D01*
X64269796Y-33504747D01*
X64269797Y-33502697D01*
X64459796Y-33502697D01*
X64638302Y-33934715D01*
X64968547Y-34265536D01*
X65400253Y-34444796D01*
X65867697Y-34445204D01*
X66299715Y-34266698D01*
X66630536Y-33936453D01*
X66809796Y-33504747D01*
X66810204Y-33037303D01*
X66631698Y-32605285D01*
X66496649Y-32470000D01*
X66992654Y-32470000D01*
X66992654Y-34070000D01*
X67018802Y-34208966D01*
X67100931Y-34336599D01*
X67226246Y-34422223D01*
X67375000Y-34452346D01*
X68975000Y-34452346D01*
X69113966Y-34426198D01*
X69241599Y-34344069D01*
X69327223Y-34218754D01*
X69357346Y-34070000D01*
X69357346Y-32470000D01*
X69331198Y-32331034D01*
X69249069Y-32203401D01*
X69123754Y-32117777D01*
X68975000Y-32087654D01*
X67375000Y-32087654D01*
X67236034Y-32113802D01*
X67108401Y-32195931D01*
X67022777Y-32321246D01*
X66992654Y-32470000D01*
X66496649Y-32470000D01*
X66301453Y-32274464D01*
X65869747Y-32095204D01*
X65402303Y-32094796D01*
X64970285Y-32273302D01*
X64639464Y-32603547D01*
X64460204Y-33035253D01*
X64459796Y-33502697D01*
X64269797Y-33502697D01*
X64270204Y-33037303D01*
X64091698Y-32605285D01*
X63761453Y-32274464D01*
X63329747Y-32095204D01*
X62862303Y-32094796D01*
X62430285Y-32273302D01*
X62099464Y-32603547D01*
X61920204Y-33035253D01*
X61919796Y-33502697D01*
X61396846Y-33502697D01*
X61589989Y-33309892D01*
X61799761Y-32804704D01*
X61800238Y-32257695D01*
X61654446Y-31904852D01*
X62057697Y-31905204D01*
X62489715Y-31726698D01*
X62820536Y-31396453D01*
X62999796Y-30964747D01*
X62999797Y-30962697D01*
X63189796Y-30962697D01*
X63368302Y-31394715D01*
X63698547Y-31725536D01*
X64130253Y-31904796D01*
X64597697Y-31905204D01*
X65029715Y-31726698D01*
X65245053Y-31511734D01*
X66123973Y-31511734D01*
X66200627Y-31700337D01*
X66625576Y-31896027D01*
X67093065Y-31914199D01*
X67531922Y-31752087D01*
X67609373Y-31700337D01*
X67686027Y-31511734D01*
X66905000Y-30730707D01*
X66123973Y-31511734D01*
X65245053Y-31511734D01*
X65360536Y-31396453D01*
X65539796Y-30964747D01*
X65539836Y-30918065D01*
X65720801Y-30918065D01*
X65882913Y-31356922D01*
X65934663Y-31434373D01*
X66123266Y-31511027D01*
X66904293Y-30730000D01*
X66905707Y-30730000D01*
X67686734Y-31511027D01*
X67875337Y-31434373D01*
X68071027Y-31009424D01*
X68089199Y-30541935D01*
X67927087Y-30103078D01*
X67875337Y-30025627D01*
X67686734Y-29948973D01*
X66905707Y-30730000D01*
X66904293Y-30730000D01*
X66123266Y-29948973D01*
X65934663Y-30025627D01*
X65738973Y-30450576D01*
X65720801Y-30918065D01*
X65539836Y-30918065D01*
X65540204Y-30497303D01*
X65361698Y-30065285D01*
X65244883Y-29948266D01*
X66123973Y-29948266D01*
X66905000Y-30729293D01*
X67686027Y-29948266D01*
X67609373Y-29759663D01*
X67184424Y-29563973D01*
X66716935Y-29545801D01*
X66278078Y-29707913D01*
X66200627Y-29759663D01*
X66123973Y-29948266D01*
X65244883Y-29948266D01*
X65031453Y-29734464D01*
X64599747Y-29555204D01*
X64132303Y-29554796D01*
X63700285Y-29733302D01*
X63369464Y-30063547D01*
X63190204Y-30495253D01*
X63189796Y-30962697D01*
X62999797Y-30962697D01*
X63000204Y-30497303D01*
X62821698Y-30065285D01*
X62491453Y-29734464D01*
X62059747Y-29555204D01*
X61592303Y-29554796D01*
X61160285Y-29733302D01*
X60829464Y-30063547D01*
X60650204Y-30495253D01*
X60649796Y-30962697D01*
X60735493Y-31170100D01*
X60699704Y-31155239D01*
X60152695Y-31154762D01*
X59647143Y-31363652D01*
X59260011Y-31750108D01*
X59050239Y-32255296D01*
X59049762Y-32802305D01*
X29357346Y-32802305D01*
X29357346Y-32470000D01*
X29331198Y-32331034D01*
X29249069Y-32203401D01*
X29123754Y-32117777D01*
X28975000Y-32087654D01*
X27375000Y-32087654D01*
X27236034Y-32113802D01*
X27108401Y-32195931D01*
X27022777Y-32321246D01*
X26992654Y-32470000D01*
X26496649Y-32470000D01*
X26301453Y-32274464D01*
X25869747Y-32095204D01*
X25402303Y-32094796D01*
X24970285Y-32273302D01*
X24639464Y-32603547D01*
X24460204Y-33035253D01*
X24459796Y-33502697D01*
X24269797Y-33502697D01*
X24270204Y-33037303D01*
X24091698Y-32605285D01*
X23761453Y-32274464D01*
X23329747Y-32095204D01*
X22862303Y-32094796D01*
X22430285Y-32273302D01*
X22099464Y-32603547D01*
X21920204Y-33035253D01*
X21919796Y-33502697D01*
X21396846Y-33502697D01*
X21589989Y-33309892D01*
X21799761Y-32804704D01*
X21800238Y-32257695D01*
X21654446Y-31904852D01*
X22057697Y-31905204D01*
X22489715Y-31726698D01*
X22820536Y-31396453D01*
X22999796Y-30964747D01*
X22999797Y-30962697D01*
X23189796Y-30962697D01*
X23368302Y-31394715D01*
X23698547Y-31725536D01*
X24130253Y-31904796D01*
X24597697Y-31905204D01*
X25029715Y-31726698D01*
X25245053Y-31511734D01*
X26123973Y-31511734D01*
X26200627Y-31700337D01*
X26625576Y-31896027D01*
X27093065Y-31914199D01*
X27531922Y-31752087D01*
X27609373Y-31700337D01*
X27686027Y-31511734D01*
X26905000Y-30730707D01*
X26123973Y-31511734D01*
X25245053Y-31511734D01*
X25360536Y-31396453D01*
X25539796Y-30964747D01*
X25539836Y-30918065D01*
X25720801Y-30918065D01*
X25882913Y-31356922D01*
X25934663Y-31434373D01*
X26123266Y-31511027D01*
X26904293Y-30730000D01*
X26905707Y-30730000D01*
X27686734Y-31511027D01*
X27875337Y-31434373D01*
X28071027Y-31009424D01*
X28089199Y-30541935D01*
X27927087Y-30103078D01*
X27875337Y-30025627D01*
X27686734Y-29948973D01*
X26905707Y-30730000D01*
X26904293Y-30730000D01*
X26123266Y-29948973D01*
X25934663Y-30025627D01*
X25738973Y-30450576D01*
X25720801Y-30918065D01*
X25539836Y-30918065D01*
X25540204Y-30497303D01*
X25361698Y-30065285D01*
X25244883Y-29948266D01*
X26123973Y-29948266D01*
X26905000Y-30729293D01*
X27686027Y-29948266D01*
X27609373Y-29759663D01*
X27184424Y-29563973D01*
X26716935Y-29545801D01*
X26278078Y-29707913D01*
X26200627Y-29759663D01*
X26123973Y-29948266D01*
X25244883Y-29948266D01*
X25031453Y-29734464D01*
X24599747Y-29555204D01*
X24132303Y-29554796D01*
X23700285Y-29733302D01*
X23369464Y-30063547D01*
X23190204Y-30495253D01*
X23189796Y-30962697D01*
X22999797Y-30962697D01*
X23000204Y-30497303D01*
X22821698Y-30065285D01*
X22491453Y-29734464D01*
X22059747Y-29555204D01*
X21592303Y-29554796D01*
X21160285Y-29733302D01*
X20829464Y-30063547D01*
X20650204Y-30495253D01*
X20649796Y-30962697D01*
X20735493Y-31170100D01*
X20699704Y-31155239D01*
X20152695Y-31154762D01*
X19647143Y-31363652D01*
X19260011Y-31750108D01*
X19050239Y-32255296D01*
X19049762Y-32802305D01*
X450000Y-32802305D01*
X450000Y-26733677D01*
X52224883Y-26733677D01*
X52327429Y-26981857D01*
X52517144Y-27171903D01*
X52765145Y-27274883D01*
X53033677Y-27275117D01*
X53281857Y-27172571D01*
X53471903Y-26982856D01*
X53574883Y-26734855D01*
X53574982Y-26621483D01*
X53618525Y-26556315D01*
X53661939Y-26491343D01*
X53699999Y-26300001D01*
X53699999Y-25747713D01*
X53881857Y-25672571D01*
X54071903Y-25482856D01*
X54174883Y-25234855D01*
X54175117Y-24966323D01*
X54072571Y-24718143D01*
X53882856Y-24528097D01*
X53634855Y-24425117D01*
X53366323Y-24424883D01*
X53118143Y-24527429D01*
X52928097Y-24717144D01*
X52825117Y-24965145D01*
X52825018Y-25078517D01*
X52738059Y-25208659D01*
X52699999Y-25400001D01*
X52699999Y-25952288D01*
X52518143Y-26027429D01*
X52328097Y-26217144D01*
X52225117Y-26465145D01*
X52224883Y-26733677D01*
X450000Y-26733677D01*
X450000Y-15470000D01*
X39372654Y-15470000D01*
X39372654Y-17070000D01*
X39398802Y-17208966D01*
X39480931Y-17336599D01*
X39606246Y-17422223D01*
X39755000Y-17452346D01*
X41355000Y-17452346D01*
X41493966Y-17426198D01*
X41621599Y-17344069D01*
X41707223Y-17218754D01*
X41737346Y-17070000D01*
X41737346Y-17051734D01*
X42313973Y-17051734D01*
X42390627Y-17240337D01*
X42815576Y-17436027D01*
X43283065Y-17454199D01*
X43721922Y-17292087D01*
X43799373Y-17240337D01*
X43876027Y-17051734D01*
X43095000Y-16270707D01*
X42313973Y-17051734D01*
X41737346Y-17051734D01*
X41737346Y-16458065D01*
X41910801Y-16458065D01*
X42072913Y-16896922D01*
X42124663Y-16974373D01*
X42313266Y-17051027D01*
X43094293Y-16270000D01*
X43095707Y-16270000D01*
X43876734Y-17051027D01*
X44065337Y-16974373D01*
X44261027Y-16549424D01*
X44262843Y-16502697D01*
X44459796Y-16502697D01*
X44638302Y-16934715D01*
X44968547Y-17265536D01*
X45400253Y-17444796D01*
X45867697Y-17445204D01*
X46299715Y-17266698D01*
X46630536Y-16936453D01*
X46809796Y-16504747D01*
X46809797Y-16502697D01*
X46999796Y-16502697D01*
X47178302Y-16934715D01*
X47508547Y-17265536D01*
X47940253Y-17444796D01*
X48407697Y-17445204D01*
X48839715Y-17266698D01*
X49170536Y-16936453D01*
X49349796Y-16504747D01*
X49350204Y-16037303D01*
X49171698Y-15605285D01*
X48841453Y-15274464D01*
X48409747Y-15095204D01*
X47942303Y-15094796D01*
X47510285Y-15273302D01*
X47179464Y-15603547D01*
X47000204Y-16035253D01*
X46999796Y-16502697D01*
X46809797Y-16502697D01*
X46810204Y-16037303D01*
X46631698Y-15605285D01*
X46301453Y-15274464D01*
X45869747Y-15095204D01*
X45402303Y-15094796D01*
X44970285Y-15273302D01*
X44639464Y-15603547D01*
X44460204Y-16035253D01*
X44459796Y-16502697D01*
X44262843Y-16502697D01*
X44279199Y-16081935D01*
X44117087Y-15643078D01*
X44065337Y-15565627D01*
X43876734Y-15488973D01*
X43095707Y-16270000D01*
X43094293Y-16270000D01*
X42313266Y-15488973D01*
X42124663Y-15565627D01*
X41928973Y-15990576D01*
X41910801Y-16458065D01*
X41737346Y-16458065D01*
X41737346Y-15488266D01*
X42313973Y-15488266D01*
X43095000Y-16269293D01*
X43876027Y-15488266D01*
X43799373Y-15299663D01*
X43374424Y-15103973D01*
X42906935Y-15085801D01*
X42468078Y-15247913D01*
X42390627Y-15299663D01*
X42313973Y-15488266D01*
X41737346Y-15488266D01*
X41737346Y-15470000D01*
X41711198Y-15331034D01*
X41629069Y-15203401D01*
X41503754Y-15117777D01*
X41355000Y-15087654D01*
X41230000Y-15087654D01*
X41230000Y-14870000D01*
X41205110Y-14744871D01*
X41590253Y-14904796D01*
X42057697Y-14905204D01*
X42489715Y-14726698D01*
X42820536Y-14396453D01*
X42999796Y-13964747D01*
X43000204Y-13497303D01*
X42838107Y-13104999D01*
X43352252Y-13104999D01*
X43190204Y-13495253D01*
X43189796Y-13962697D01*
X43368302Y-14394715D01*
X43698547Y-14725536D01*
X44130253Y-14904796D01*
X44597697Y-14905204D01*
X45029715Y-14726698D01*
X45360536Y-14396453D01*
X45539796Y-13964747D01*
X45540204Y-13497303D01*
X45378107Y-13104999D01*
X45892252Y-13104999D01*
X45730204Y-13495253D01*
X45729796Y-13962697D01*
X45908302Y-14394715D01*
X46238547Y-14725536D01*
X46670253Y-14904796D01*
X47137697Y-14905204D01*
X47569715Y-14726698D01*
X47900536Y-14396453D01*
X48079796Y-13964747D01*
X48080204Y-13497303D01*
X47918107Y-13104999D01*
X48432252Y-13104999D01*
X48270204Y-13495253D01*
X48269796Y-13962697D01*
X48448302Y-14394715D01*
X48778547Y-14725536D01*
X49210253Y-14904796D01*
X49615632Y-14905150D01*
X49470239Y-15255296D01*
X49469762Y-15802305D01*
X49678652Y-16307857D01*
X50065108Y-16694989D01*
X50570296Y-16904761D01*
X51117305Y-16905238D01*
X51622857Y-16696348D01*
X52009989Y-16309892D01*
X52219761Y-15804704D01*
X52220238Y-15257695D01*
X52011348Y-14752143D01*
X51624892Y-14365011D01*
X51119704Y-14155239D01*
X50572695Y-14154762D01*
X50534309Y-14170623D01*
X50619796Y-13964747D01*
X50620204Y-13497303D01*
X50458107Y-13104999D01*
X51850405Y-13104999D01*
X52522573Y-13777167D01*
X52617144Y-13871903D01*
X52741687Y-13923618D01*
X52741688Y-13923619D01*
X52741689Y-13923619D01*
X52865145Y-13974883D01*
X53133677Y-13975117D01*
X53381857Y-13872571D01*
X53571903Y-13682856D01*
X53674883Y-13434855D01*
X53675117Y-13166323D01*
X53572571Y-12918143D01*
X53382856Y-12728097D01*
X53382574Y-12727980D01*
X52607296Y-11952702D01*
X52388311Y-11806380D01*
X52129999Y-11754999D01*
X41200999Y-11754999D01*
X40942688Y-11806380D01*
X40942686Y-11806381D01*
X40942687Y-11806381D01*
X40723702Y-11952702D01*
X40047702Y-12628702D01*
X39901380Y-12847687D01*
X39901380Y-12847688D01*
X39849999Y-13105999D01*
X39849999Y-14839999D01*
X39880000Y-14990826D01*
X39880000Y-15087654D01*
X39755000Y-15087654D01*
X39616034Y-15113802D01*
X39488401Y-15195931D01*
X39402777Y-15321246D01*
X39372654Y-15470000D01*
X450000Y-15470000D01*
X450000Y-5222687D01*
X1085720Y-5859517D01*
X2325726Y-6374413D01*
X3668384Y-6375584D01*
X4909286Y-5862854D01*
X5859517Y-4914280D01*
X6230508Y-4020834D01*
X6924632Y-4020834D01*
X7247462Y-4802143D01*
X7844713Y-5400437D01*
X8625457Y-5724630D01*
X9470834Y-5725368D01*
X10252143Y-5402538D01*
X10850437Y-4805287D01*
X11174630Y-4024543D01*
X11174633Y-4020834D01*
X38824632Y-4020834D01*
X39147462Y-4802143D01*
X39744713Y-5400437D01*
X40525457Y-5724630D01*
X41370834Y-5725368D01*
X42152143Y-5402538D01*
X42750437Y-4805287D01*
X43074630Y-4024543D01*
X43074633Y-4020834D01*
X46924632Y-4020834D01*
X47247462Y-4802143D01*
X47844713Y-5400437D01*
X48625457Y-5724630D01*
X49470834Y-5725368D01*
X50252143Y-5402538D01*
X50850437Y-4805287D01*
X51174630Y-4024543D01*
X51174633Y-4020834D01*
X78824632Y-4020834D01*
X79147462Y-4802143D01*
X79744713Y-5400437D01*
X80525457Y-5724630D01*
X81370834Y-5725368D01*
X82152143Y-5402538D01*
X82750437Y-4805287D01*
X83074630Y-4024543D01*
X83075368Y-3179166D01*
X82752538Y-2397857D01*
X82155287Y-1799563D01*
X81374543Y-1475370D01*
X80529166Y-1474632D01*
X79747857Y-1797462D01*
X79149563Y-2394713D01*
X78825370Y-3175457D01*
X78824632Y-4020834D01*
X51174633Y-4020834D01*
X51175368Y-3179166D01*
X50852538Y-2397857D01*
X50255287Y-1799563D01*
X49474543Y-1475370D01*
X48629166Y-1474632D01*
X47847857Y-1797462D01*
X47249563Y-2394713D01*
X46925370Y-3175457D01*
X46924632Y-4020834D01*
X43074633Y-4020834D01*
X43075368Y-3179166D01*
X42752538Y-2397857D01*
X42155287Y-1799563D01*
X41374543Y-1475370D01*
X40529166Y-1474632D01*
X39747857Y-1797462D01*
X39149563Y-2394713D01*
X38825370Y-3175457D01*
X38824632Y-4020834D01*
X11174633Y-4020834D01*
X11175368Y-3179166D01*
X10852538Y-2397857D01*
X10255287Y-1799563D01*
X9474543Y-1475370D01*
X8629166Y-1474632D01*
X7847857Y-1797462D01*
X7249563Y-2394713D01*
X6925370Y-3175457D01*
X6924632Y-4020834D01*
X6230508Y-4020834D01*
X6374413Y-3674274D01*
X6375584Y-2331616D01*
X5862854Y-1090714D01*
X5223257Y-450000D01*
X84777313Y-450000D01*
X84140483Y-1085720D01*
M02*
