G04 #@! TF.FileFunction,Copper,L2,Bot,Signal*
%FSLAX46Y46*%
G04 Gerber Fmt 4.6, Leading zero omitted, Abs format (unit mm)*
G04 Created by KiCad (PCBNEW 4.0.7) date 2019 March 19, Tuesday 10:43:39*
%MOMM*%
%LPD*%
G01*
G04 APERTURE LIST*
%ADD10C,0.150000*%
%ADD11R,0.800000X0.700000*%
%ADD12R,0.700000X0.800000*%
%ADD13C,3.500000*%
%ADD14R,1.600000X1.600000*%
%ADD15C,1.600000*%
%ADD16C,2.000000*%
%ADD17R,0.700000X0.250000*%
%ADD18R,0.250000X0.700000*%
%ADD19R,3.150000X5.150000*%
%ADD20R,1.000000X0.500000*%
%ADD21R,0.600000X1.000000*%
%ADD22C,6.000000*%
%ADD23C,0.600000*%
%ADD24C,0.600000*%
%ADD25C,0.250000*%
G04 APERTURE END LIST*
D10*
D11*
X49600000Y-20600000D03*
X49600000Y-19200000D03*
D12*
X45700000Y-24900000D03*
X47100000Y-24900000D03*
D13*
X80950000Y-86400000D03*
X49050000Y-86400000D03*
X49050000Y-54400000D03*
X80950000Y-54400000D03*
X49050000Y-3600000D03*
X80950000Y-3600000D03*
X80950000Y-35600000D03*
X49050000Y-35600000D03*
D14*
X28175000Y-33270000D03*
D15*
X26905000Y-30730000D03*
X25635000Y-33270000D03*
X24365000Y-30730000D03*
X23095000Y-33270000D03*
X21825000Y-30730000D03*
D16*
X20425000Y-32530000D03*
D14*
X68175000Y-33270000D03*
D15*
X66905000Y-30730000D03*
X65635000Y-33270000D03*
X64365000Y-30730000D03*
X63095000Y-33270000D03*
X61825000Y-30730000D03*
D16*
X60425000Y-32530000D03*
D13*
X40950000Y-86400000D03*
X9050000Y-86400000D03*
X9050000Y-54400000D03*
X40950000Y-54400000D03*
D17*
X47400000Y-42250000D03*
X47400000Y-42750000D03*
X47400000Y-43250000D03*
X47400000Y-43750000D03*
X47400000Y-44250000D03*
X47400000Y-44750000D03*
X47400000Y-45250000D03*
X47400000Y-45750000D03*
D18*
X46500000Y-48400000D03*
X46000000Y-48400000D03*
X45500000Y-48400000D03*
X45000000Y-48400000D03*
X44500000Y-48400000D03*
X44000000Y-48400000D03*
X43500000Y-48400000D03*
D17*
X42600000Y-47750000D03*
X42600000Y-47250000D03*
X42600000Y-46750000D03*
X42600000Y-46250000D03*
X42600000Y-45750000D03*
X42600000Y-45250000D03*
X42600000Y-44750000D03*
X42600000Y-44250000D03*
D18*
X43500000Y-41600000D03*
X44000000Y-41600000D03*
X44500000Y-41600000D03*
X45000000Y-41600000D03*
X45500000Y-41600000D03*
X46000000Y-41600000D03*
X46500000Y-41600000D03*
D19*
X45000000Y-45000000D03*
D17*
X47400000Y-46250000D03*
X47400000Y-47750000D03*
X47400000Y-47250000D03*
X47400000Y-46750000D03*
X42600000Y-42250000D03*
X42600000Y-43750000D03*
X42600000Y-42750000D03*
X42600000Y-43250000D03*
D11*
X58500000Y-58700000D03*
X58500000Y-57300000D03*
X23900000Y-14300000D03*
X23900000Y-15700000D03*
X25500000Y-14300000D03*
X25500000Y-15700000D03*
X88000000Y-48300000D03*
X88000000Y-49700000D03*
X15900000Y-14300000D03*
X15900000Y-15700000D03*
X86000000Y-48300000D03*
X86000000Y-49700000D03*
X17500000Y-14300000D03*
X17500000Y-15700000D03*
D12*
X41200000Y-43300000D03*
X39800000Y-43300000D03*
D11*
X17500000Y-19200000D03*
X17500000Y-17800000D03*
X19100000Y-19200000D03*
X19100000Y-17800000D03*
X53000000Y-14300000D03*
X53000000Y-15700000D03*
X71500000Y-31300000D03*
X71500000Y-32700000D03*
X18500000Y-58700000D03*
X18500000Y-57300000D03*
X31500000Y-31300000D03*
X31500000Y-32700000D03*
D12*
X41200000Y-41700000D03*
X39800000Y-41700000D03*
D20*
X22000000Y-14050000D03*
X22000000Y-15000000D03*
X22000000Y-15950000D03*
X19400000Y-15950000D03*
X19400000Y-14050000D03*
D11*
X15900000Y-17800000D03*
X15900000Y-19200000D03*
D14*
X61825000Y-56730000D03*
D15*
X63095000Y-59270000D03*
X64365000Y-56730000D03*
X65635000Y-59270000D03*
X66905000Y-56730000D03*
X68175000Y-59270000D03*
D16*
X69575000Y-57470000D03*
D14*
X21825000Y-56730000D03*
D15*
X23095000Y-59270000D03*
X24365000Y-56730000D03*
X25635000Y-59270000D03*
X26905000Y-56730000D03*
X28175000Y-59270000D03*
D16*
X29575000Y-57470000D03*
D14*
X40555000Y-16270000D03*
D15*
X41825000Y-13730000D03*
X43095000Y-16270000D03*
X44365000Y-13730000D03*
X45635000Y-16270000D03*
X46905000Y-13730000D03*
X48175000Y-16270000D03*
X49445000Y-13730000D03*
D16*
X50845000Y-15530000D03*
D21*
X44050000Y-19250000D03*
X45950000Y-19250000D03*
X45000000Y-21550000D03*
D11*
X27100000Y-15700000D03*
X27100000Y-14300000D03*
X20700000Y-19200000D03*
X20700000Y-17800000D03*
X22300000Y-19200000D03*
X22300000Y-17800000D03*
X48000000Y-20600000D03*
X48000000Y-19200000D03*
D12*
X42900000Y-26500000D03*
X44300000Y-26500000D03*
X45700000Y-26500000D03*
X47100000Y-26500000D03*
X42900000Y-24900000D03*
X44300000Y-24900000D03*
X42900000Y-23300000D03*
X44300000Y-23300000D03*
X45700000Y-23300000D03*
X47100000Y-23300000D03*
D22*
X3000000Y-3000000D03*
X3000000Y-87000000D03*
X87000000Y-87000000D03*
X87000000Y-3000000D03*
D13*
X9050000Y-3600000D03*
X40950000Y-3600000D03*
X40950000Y-35600000D03*
X9050000Y-35600000D03*
D12*
X41200000Y-44900000D03*
X39800000Y-44900000D03*
D23*
X87400000Y-42800000D03*
X53000000Y-16600000D03*
X45950000Y-18350000D03*
X28100000Y-14300000D03*
X26905000Y-27405000D03*
X42600000Y-40900000D03*
X48358414Y-43762020D03*
X48350000Y-44750000D03*
X48050000Y-26500000D03*
X23400000Y-17800000D03*
X17500000Y-16850000D03*
X38900000Y-44900000D03*
X38900000Y-41700000D03*
X38900000Y-43300000D03*
X20800000Y-15000000D03*
X87000000Y-48050000D03*
X53000000Y-13300000D03*
X88000000Y-47000000D03*
X86500000Y-47000000D03*
X53500000Y-25100000D03*
X52900000Y-26600000D03*
X86675000Y-41775000D03*
X86500000Y-40350000D03*
X87503204Y-38739610D03*
X38900000Y-38000000D03*
X34500000Y-35300000D03*
D24*
X41825000Y-13730000D02*
X40693630Y-13730000D01*
X40693630Y-13730000D02*
X40313630Y-13350000D01*
X40313630Y-13350000D02*
X26500000Y-13350000D01*
X26500000Y-13350000D02*
X25550000Y-14300000D01*
X25550000Y-14300000D02*
X25500000Y-14300000D01*
X23900000Y-14300000D02*
X23650000Y-14050000D01*
X23650000Y-14050000D02*
X22000000Y-14050000D01*
X25500000Y-14300000D02*
X23900000Y-14300000D01*
D25*
X27100000Y-14300000D02*
X26900000Y-14300000D01*
X26900000Y-14300000D02*
X25500000Y-15700000D01*
D24*
X23900000Y-15700000D02*
X24500000Y-15700000D01*
X24500000Y-15700000D02*
X25500000Y-15700000D01*
X22000000Y-15000000D02*
X23100000Y-15000000D01*
X23100000Y-15000000D02*
X23800000Y-15700000D01*
X23800000Y-15700000D02*
X24500000Y-15700000D01*
X53000000Y-15700000D02*
X53000000Y-16600000D01*
X45950000Y-19250000D02*
X45950000Y-18350000D01*
X27100000Y-14300000D02*
X28100000Y-14300000D01*
X63095000Y-59270000D02*
X59070000Y-59270000D01*
X59070000Y-59270000D02*
X58500000Y-58700000D01*
X26905000Y-30730000D02*
X30930000Y-30730000D01*
X30930000Y-30730000D02*
X31500000Y-31300000D01*
X66905000Y-30730000D02*
X70930000Y-30730000D01*
X70930000Y-30730000D02*
X71500000Y-31300000D01*
X23095000Y-59270000D02*
X19070000Y-59270000D01*
X19070000Y-59270000D02*
X18500000Y-58700000D01*
D25*
X42600000Y-41875000D02*
X42600000Y-40900000D01*
X42600000Y-42250000D02*
X42600000Y-41875000D01*
X47400000Y-45250000D02*
X47850000Y-45250000D01*
X47850000Y-45250000D02*
X48350000Y-44750000D01*
X47400000Y-43750000D02*
X48358414Y-43762020D01*
X48350000Y-43750000D02*
X48358414Y-43758414D01*
X48358414Y-43758414D02*
X48358414Y-43762020D01*
X47400000Y-44750000D02*
X48350000Y-44750000D01*
D24*
X47100000Y-26500000D02*
X48050000Y-26500000D01*
X22300000Y-17800000D02*
X23400000Y-17800000D01*
X17500000Y-17800000D02*
X17500000Y-16850000D01*
X39800000Y-44900000D02*
X38900000Y-44900000D01*
X39800000Y-41700000D02*
X38900000Y-41700000D01*
X39800000Y-43300000D02*
X38900000Y-43300000D01*
X22000000Y-15000000D02*
X20800000Y-15000000D01*
D25*
X47400000Y-44750000D02*
X47400000Y-45250000D01*
X47400000Y-45250000D02*
X45250000Y-45250000D01*
X45250000Y-45250000D02*
X45000000Y-45000000D01*
X47400000Y-44750000D02*
X45250000Y-44750000D01*
X45250000Y-44750000D02*
X45000000Y-45000000D01*
X47400000Y-43750000D02*
X46250000Y-43750000D01*
X46250000Y-43750000D02*
X45000000Y-45000000D01*
X47400000Y-42250000D02*
X46800000Y-42250000D01*
X46800000Y-42250000D02*
X45000000Y-44050000D01*
X45000000Y-44050000D02*
X45000000Y-45000000D01*
X44500000Y-41600000D02*
X45000000Y-41600000D01*
X44000000Y-41600000D02*
X44500000Y-41600000D01*
X43500000Y-41600000D02*
X44000000Y-41600000D01*
X45000000Y-41600000D02*
X45000000Y-45000000D01*
X44500000Y-41600000D02*
X44500000Y-44500000D01*
X44500000Y-44500000D02*
X45000000Y-45000000D01*
X44000000Y-41600000D02*
X44000000Y-44000000D01*
X44000000Y-44000000D02*
X45000000Y-45000000D01*
X43500000Y-41600000D02*
X43500000Y-42200000D01*
X43500000Y-42200000D02*
X45000000Y-43700000D01*
X45000000Y-43700000D02*
X45000000Y-45000000D01*
X42600000Y-42750000D02*
X43200000Y-42750000D01*
X43200000Y-42750000D02*
X45000000Y-44550000D01*
X45000000Y-44550000D02*
X45000000Y-45000000D01*
X42600000Y-42250000D02*
X43200000Y-42250000D01*
X43200000Y-42250000D02*
X45000000Y-44050000D01*
X42600000Y-42750000D02*
X42600000Y-42250000D01*
D24*
X53000000Y-14300000D02*
X76850000Y-14300000D01*
X76850000Y-14300000D02*
X88397081Y-25847081D01*
X88397081Y-25847081D02*
X88397081Y-46602919D01*
X88299999Y-46700001D02*
X88000000Y-47000000D01*
X88397081Y-46602919D02*
X88299999Y-46700001D01*
D25*
X48000000Y-20600000D02*
X43835000Y-20600000D01*
X43835000Y-20600000D02*
X40555000Y-17320000D01*
X40555000Y-17320000D02*
X40555000Y-16270000D01*
X49600000Y-20600000D02*
X48000000Y-20600000D01*
D24*
X53000000Y-14300000D02*
X53000000Y-13300000D01*
X86500000Y-47000000D02*
X86000000Y-47500000D01*
X86000000Y-47500000D02*
X86000000Y-48300000D01*
X88000000Y-48300000D02*
X88000000Y-47000000D01*
X86500000Y-47000000D02*
X88000000Y-47000000D01*
D25*
X85160201Y-32696611D02*
X85160201Y-40260201D01*
X79063590Y-26600000D02*
X85160201Y-32696611D01*
X52900000Y-26600000D02*
X79063590Y-26600000D01*
X86375001Y-41475001D02*
X86675000Y-41775000D01*
X85160201Y-40260201D02*
X86375001Y-41475001D01*
X53163610Y-24763610D02*
X53163610Y-22113610D01*
X52700000Y-21650000D02*
X50250000Y-19200000D01*
X53500000Y-25100000D02*
X53163610Y-24763610D01*
X53163610Y-22113610D02*
X52700000Y-21650000D01*
X50250000Y-19200000D02*
X49600000Y-19200000D01*
X48175000Y-16270000D02*
X48175000Y-17825000D01*
X48175000Y-17825000D02*
X49550000Y-19200000D01*
X49550000Y-19200000D02*
X49600000Y-19200000D01*
X48000000Y-43250000D02*
X49200000Y-42050000D01*
X47400000Y-43250000D02*
X48000000Y-43250000D01*
X49200000Y-42050000D02*
X49200000Y-40100000D01*
X49200000Y-40100000D02*
X46300000Y-37200000D01*
X46300000Y-37200000D02*
X46300000Y-32950000D01*
X46300000Y-32950000D02*
X52650000Y-26600000D01*
X52650000Y-26600000D02*
X52900000Y-26600000D01*
X86500000Y-40350000D02*
X85610212Y-39460212D01*
X74436401Y-25899991D02*
X52713600Y-25899990D01*
X85610212Y-39460212D02*
X85610212Y-32510212D01*
X85610212Y-32510212D02*
X78999991Y-25899991D01*
X78999991Y-25899991D02*
X74436401Y-25899991D01*
X48000000Y-19200000D02*
X48050000Y-19200000D01*
X48774999Y-19924999D02*
X50260001Y-19924999D01*
X48050000Y-19200000D02*
X48774999Y-19924999D01*
X50260001Y-19924999D02*
X52713600Y-22378598D01*
X52713600Y-22378598D02*
X52713600Y-25899990D01*
X45635000Y-16270000D02*
X48000000Y-18635000D01*
X48000000Y-18635000D02*
X48000000Y-19200000D01*
X47400000Y-42750000D02*
X47863590Y-42750000D01*
X47863590Y-42750000D02*
X48749990Y-41863600D01*
X48749990Y-41863600D02*
X48749990Y-40286400D01*
X48749990Y-40286400D02*
X45849990Y-37386400D01*
X45849990Y-37386400D02*
X45849990Y-32763600D01*
X45849990Y-32763600D02*
X47863590Y-30750000D01*
X47863590Y-30750000D02*
X52713600Y-25899990D01*
X27100000Y-15700000D02*
X27050000Y-15700000D01*
X27050000Y-15700000D02*
X26374999Y-16375001D01*
X26374999Y-16375001D02*
X23175001Y-16375001D01*
X23175001Y-16375001D02*
X22750000Y-15950000D01*
X22750000Y-15950000D02*
X22000000Y-15950000D01*
X49445000Y-13730000D02*
X48319999Y-12604999D01*
X48319999Y-12604999D02*
X43535001Y-12604999D01*
X42950001Y-13189999D02*
X42950001Y-14270001D01*
X43535001Y-12604999D02*
X42950001Y-13189999D01*
X42950001Y-14270001D02*
X42075003Y-15144999D01*
X42075003Y-15144999D02*
X28305001Y-15144999D01*
X28305001Y-15144999D02*
X27750000Y-15700000D01*
X27750000Y-15700000D02*
X27100000Y-15700000D01*
X22550000Y-15950000D02*
X22300000Y-15950000D01*
X22300000Y-19200000D02*
X22100000Y-19200000D01*
X22100000Y-19200000D02*
X20700000Y-17800000D01*
X19400000Y-15950000D02*
X19400000Y-16500000D01*
X19400000Y-16500000D02*
X20700000Y-17800000D01*
X47400000Y-45750000D02*
X49650000Y-45750000D01*
X65635000Y-30334998D02*
X65635000Y-32138630D01*
X49650000Y-45750000D02*
X53849972Y-41550028D01*
X53849972Y-41550028D02*
X53849973Y-35234795D01*
X60379789Y-28704979D02*
X64004981Y-28704979D01*
X64004981Y-28704979D02*
X65635000Y-30334998D01*
X53849973Y-35234795D02*
X60379789Y-28704979D01*
X65635000Y-32138630D02*
X65635000Y-33270000D01*
X55149990Y-53286400D02*
X51563590Y-49700000D01*
X51563590Y-49700000D02*
X46736410Y-49700000D01*
X46736410Y-49700000D02*
X46500000Y-49463590D01*
X55149990Y-58113580D02*
X55149990Y-53286400D01*
X57867821Y-60831411D02*
X55149990Y-58113580D01*
X65635000Y-59270000D02*
X64059989Y-60845011D01*
X64059989Y-60845011D02*
X57867821Y-60845011D01*
X57867821Y-60845011D02*
X57867821Y-60831411D01*
X46500000Y-49463590D02*
X46500000Y-48400000D01*
X46500000Y-49000000D02*
X46500000Y-48400000D01*
X46500000Y-48263590D02*
X46500000Y-48400000D01*
X46000000Y-49500000D02*
X46000000Y-48400000D01*
X54699980Y-53472800D02*
X51377190Y-50150010D01*
X51377190Y-50150010D02*
X46550009Y-50150009D01*
X46550009Y-50150009D02*
X46000000Y-49600000D01*
X46000000Y-49600000D02*
X46000000Y-49500000D01*
X54699980Y-58299980D02*
X54699980Y-53472800D01*
X57681421Y-61295021D02*
X57417811Y-61031411D01*
X57417811Y-61031411D02*
X57417811Y-61017811D01*
X57417811Y-61017811D02*
X54699980Y-58299980D01*
X66905000Y-56730000D02*
X66905000Y-59665002D01*
X66905000Y-59665002D02*
X65274981Y-61295021D01*
X65274981Y-61295021D02*
X57681421Y-61295021D01*
X68175000Y-59270000D02*
X65699970Y-61745030D01*
X65699970Y-61745030D02*
X57495020Y-61745030D01*
X57495020Y-61745030D02*
X54249970Y-58499980D01*
X54249970Y-58499980D02*
X54249970Y-53659200D01*
X54249970Y-53659200D02*
X51190789Y-50600019D01*
X51190789Y-50600019D02*
X46350009Y-50600019D01*
X46350009Y-50600019D02*
X45500000Y-49750010D01*
X45500000Y-49750010D02*
X45500000Y-48400000D01*
X44500000Y-48400000D02*
X44500000Y-49272820D01*
X26434999Y-60069999D02*
X25635000Y-59270000D01*
X44500000Y-49272820D02*
X43259201Y-50513619D01*
X43259201Y-50513619D02*
X39765203Y-50513619D01*
X39765203Y-50513619D02*
X29433811Y-60845011D01*
X29433811Y-60845011D02*
X27210011Y-60845011D01*
X27210011Y-60845011D02*
X26434999Y-60069999D01*
X45000000Y-48400000D02*
X45000000Y-49409230D01*
X45000000Y-49409230D02*
X43445601Y-50963629D01*
X39951603Y-50963629D02*
X29620211Y-61295021D01*
X43445601Y-50963629D02*
X39951603Y-50963629D01*
X29620211Y-61295021D02*
X25995019Y-61295021D01*
X25995019Y-61295021D02*
X24365000Y-59665002D01*
X24365000Y-59665002D02*
X24365000Y-57861370D01*
X24365000Y-57861370D02*
X24365000Y-56730000D01*
X43200000Y-49300000D02*
X42886401Y-49613599D01*
X42886401Y-49613599D02*
X39392403Y-49613599D01*
X39392403Y-49613599D02*
X29736002Y-59270000D01*
X29306370Y-59270000D02*
X28175000Y-59270000D01*
X29736002Y-59270000D02*
X29306370Y-59270000D01*
X43200000Y-49300000D02*
X43150010Y-49349990D01*
X43500000Y-48400000D02*
X43500000Y-49000000D01*
X43500000Y-49000000D02*
X43200000Y-49300000D01*
X42600000Y-47750000D02*
X42000000Y-47750000D01*
X42000000Y-47750000D02*
X41550000Y-48200000D01*
X41550000Y-48200000D02*
X36990770Y-48200000D01*
X36990770Y-48200000D02*
X35249970Y-46459200D01*
X35249970Y-33449970D02*
X31404999Y-29604999D01*
X35249970Y-46459200D02*
X35249970Y-33449970D01*
X31404999Y-29604999D02*
X26364999Y-29604999D01*
X26364999Y-29604999D02*
X25635000Y-30334998D01*
X25635000Y-30334998D02*
X25635000Y-32138630D01*
X25635000Y-32138630D02*
X25635000Y-33270000D01*
X42600000Y-47250000D02*
X41863590Y-47250000D01*
X41863590Y-47250000D02*
X41363600Y-47749990D01*
X41363600Y-47749990D02*
X37177168Y-47749988D01*
X37177168Y-47749988D02*
X35699980Y-46272800D01*
X35699980Y-46272800D02*
X35699979Y-33263569D01*
X35699979Y-33263569D02*
X31591399Y-29154989D01*
X31591399Y-29154989D02*
X25940011Y-29154989D01*
X25940011Y-29154989D02*
X25164999Y-29930001D01*
X25164999Y-29930001D02*
X24365000Y-30730000D01*
X42600000Y-46750000D02*
X42350000Y-46750000D01*
X42350000Y-46750000D02*
X42300010Y-46799990D01*
X42300010Y-46799990D02*
X41677189Y-46799991D01*
X41677189Y-46799991D02*
X41177200Y-47299980D01*
X41177200Y-47299980D02*
X37363569Y-47299979D01*
X37363569Y-47299979D02*
X36149990Y-46086400D01*
X36149990Y-46086400D02*
X36149990Y-33077170D01*
X36149990Y-33077170D02*
X31777799Y-28704979D01*
X23095000Y-32138630D02*
X23095000Y-33270000D01*
X31777799Y-28704979D02*
X24725019Y-28704979D01*
X24725019Y-28704979D02*
X23095000Y-30334998D01*
X23095000Y-30334998D02*
X23095000Y-32138630D01*
X42600000Y-46250000D02*
X41590772Y-46250000D01*
X37549970Y-46849970D02*
X36600000Y-45900000D01*
X41590772Y-46250000D02*
X41490788Y-46349982D01*
X41490788Y-46349982D02*
X40990799Y-46849970D01*
X40990799Y-46849970D02*
X37549970Y-46849970D01*
X36600000Y-45900000D02*
X36599999Y-32890769D01*
X36599999Y-32890769D02*
X31964199Y-28254969D01*
X31964199Y-28254969D02*
X24300031Y-28254969D01*
X24300031Y-28254969D02*
X21825000Y-30730000D01*
X42600000Y-45750000D02*
X42600000Y-45250000D01*
X42600000Y-44250000D02*
X42600000Y-44750000D01*
X44300000Y-23300000D02*
X44300000Y-23350000D01*
X44300000Y-23350000D02*
X43600000Y-24050000D01*
X43600000Y-24050000D02*
X43600000Y-38100000D01*
X43600000Y-38100000D02*
X45500000Y-40000000D01*
X45500000Y-40000000D02*
X45500000Y-41000000D01*
X45500000Y-41000000D02*
X45500000Y-41600000D01*
X45000000Y-21550000D02*
X45000000Y-22600000D01*
X45000000Y-22600000D02*
X44300000Y-23300000D01*
X44300000Y-23300000D02*
X45700000Y-23300000D01*
X46000000Y-41600000D02*
X46000000Y-39863590D01*
X44300000Y-38163590D02*
X44300000Y-26500000D01*
X46000000Y-39863590D02*
X44300000Y-38163590D01*
X44300000Y-26500000D02*
X45700000Y-26500000D01*
X44800000Y-28735002D02*
X44800000Y-38027180D01*
X46500000Y-41000000D02*
X46500000Y-41600000D01*
X44800000Y-38027180D02*
X46500000Y-39727180D01*
X46500000Y-39727180D02*
X46500000Y-41000000D01*
X46400000Y-25000000D02*
X46400000Y-27135002D01*
X46400000Y-27135002D02*
X44800000Y-28735002D01*
X45700000Y-24900000D02*
X46300000Y-24900000D01*
X46300000Y-24900000D02*
X46400000Y-25000000D01*
X44300000Y-24900000D02*
X45700000Y-24900000D01*
X54299981Y-41863609D02*
X54299982Y-35421196D01*
X54299982Y-35421196D02*
X60566189Y-29154989D01*
X60566189Y-29154989D02*
X62789989Y-29154989D01*
X62789989Y-29154989D02*
X63565001Y-29930001D01*
X63565001Y-29930001D02*
X64365000Y-30730000D01*
X49913590Y-46250000D02*
X54299981Y-41863609D01*
X47400000Y-46250000D02*
X49913590Y-46250000D01*
X64365000Y-56730000D02*
X64365000Y-59665002D01*
X64365000Y-59665002D02*
X63635001Y-60395001D01*
X63635001Y-60395001D02*
X58067821Y-60395001D01*
X58067821Y-60395001D02*
X55600000Y-57927180D01*
X55600000Y-57927180D02*
X55600000Y-53100000D01*
X55600000Y-53100000D02*
X50250000Y-47750000D01*
X50250000Y-47750000D02*
X48000000Y-47750000D01*
X48000000Y-47750000D02*
X47400000Y-47750000D01*
X55200000Y-42236410D02*
X55200000Y-35793998D01*
X60693630Y-30730000D02*
X61825000Y-30730000D01*
X55200000Y-35793998D02*
X60263998Y-30730000D01*
X60263998Y-30730000D02*
X60693630Y-30730000D01*
X47400000Y-47250000D02*
X50186410Y-47250000D01*
X50186410Y-47250000D02*
X55200000Y-42236410D01*
X47400000Y-46750000D02*
X50050000Y-46750000D01*
X50050000Y-46750000D02*
X54749990Y-42050010D01*
X54749990Y-42050010D02*
X54749991Y-35607597D01*
X54749991Y-35607597D02*
X60752589Y-29604999D01*
X60752589Y-29604999D02*
X62365001Y-29604999D01*
X62365001Y-29604999D02*
X63095000Y-30334998D01*
X63095000Y-30334998D02*
X63095000Y-32138630D01*
X63095000Y-32138630D02*
X63095000Y-33270000D01*
X44000000Y-48400000D02*
X44000000Y-49136410D01*
X44000000Y-49136410D02*
X43072801Y-50063609D01*
X43072801Y-50063609D02*
X39578803Y-50063609D01*
X27634999Y-60395001D02*
X26905000Y-59665002D01*
X26905000Y-59665002D02*
X26905000Y-57861370D01*
X39578803Y-50063609D02*
X29247411Y-60395001D01*
X29247411Y-60395001D02*
X27634999Y-60395001D01*
X26905000Y-57861370D02*
X26905000Y-56730000D01*
X44365000Y-15100000D02*
X48670002Y-15100000D01*
X48670002Y-15100000D02*
X49300001Y-15729999D01*
X49300001Y-15729999D02*
X49300001Y-16300001D01*
X49300001Y-16300001D02*
X50465000Y-17465000D01*
X50465000Y-17465000D02*
X79131104Y-17465000D01*
X79131104Y-17465000D02*
X87772071Y-26105967D01*
X87772071Y-26105967D02*
X87772071Y-38470743D01*
X87772071Y-38470743D02*
X87503204Y-38739610D01*
X44365000Y-15100000D02*
X44365000Y-16665002D01*
X44365000Y-16665002D02*
X45424997Y-17724999D01*
X46575001Y-20010001D02*
X46510001Y-20075001D01*
X45424997Y-17724999D02*
X46250001Y-17724999D01*
X46510001Y-20075001D02*
X45425001Y-20075001D01*
X46250001Y-17724999D02*
X46575001Y-18049999D01*
X46575001Y-18049999D02*
X46575001Y-20010001D01*
X45425001Y-20075001D02*
X44600000Y-19250000D01*
X44600000Y-19250000D02*
X44050000Y-19250000D01*
X44365000Y-13730000D02*
X44365000Y-15100000D01*
D24*
X38000000Y-41300000D02*
X38000000Y-29300000D01*
X21850000Y-20300000D02*
X29000000Y-20300000D01*
X29000000Y-20300000D02*
X38000000Y-29300000D01*
X20700000Y-19200000D02*
X20750000Y-19200000D01*
X20750000Y-19200000D02*
X21850000Y-20300000D01*
D25*
X42000000Y-43750000D02*
X41900000Y-43650000D01*
X41900000Y-43650000D02*
X41700000Y-43450000D01*
X41200000Y-43300000D02*
X41550000Y-43300000D01*
X41550000Y-43300000D02*
X41900000Y-43650000D01*
X42600000Y-43750000D02*
X42000000Y-43750000D01*
D24*
X41200000Y-44900000D02*
X41200000Y-45150002D01*
X38400000Y-45800000D02*
X38000000Y-45400000D01*
X41200000Y-45150002D02*
X40550001Y-45800001D01*
X40550001Y-45800001D02*
X38400000Y-45800000D01*
X38000000Y-45400000D02*
X38000000Y-41300000D01*
X38000000Y-29300000D02*
X40800000Y-26500000D01*
X40800000Y-26500000D02*
X41349998Y-26500000D01*
X41349998Y-26500000D02*
X42900000Y-26500000D01*
X42900000Y-26500000D02*
X42900000Y-24900000D01*
X41200000Y-44900000D02*
X41200000Y-43300000D01*
X42900000Y-23300000D02*
X42900000Y-24900000D01*
D25*
X20700000Y-19200000D02*
X20650000Y-19200000D01*
X20650000Y-19200000D02*
X19925001Y-18475001D01*
X19925001Y-18475001D02*
X16625001Y-18475001D01*
X16625001Y-18475001D02*
X15950000Y-17800000D01*
X15950000Y-17800000D02*
X15900000Y-17800000D01*
D24*
X15900000Y-14300000D02*
X15649998Y-14300000D01*
X14900000Y-16850000D02*
X15850000Y-17800000D01*
X15649998Y-14300000D02*
X14900000Y-15049998D01*
X14900000Y-15049998D02*
X14900000Y-16850000D01*
X15850000Y-17800000D02*
X15900000Y-17800000D01*
X19400000Y-14050000D02*
X17750000Y-14050000D01*
X17750000Y-14050000D02*
X17500000Y-14300000D01*
X15900000Y-14300000D02*
X17500000Y-14300000D01*
X75800000Y-55400000D02*
X75800000Y-58300000D01*
X75800000Y-58300000D02*
X69531501Y-64568499D01*
X69531501Y-64568499D02*
X20768499Y-64568499D01*
X20768499Y-64568499D02*
X15400000Y-59200000D01*
X41200000Y-40300000D02*
X41200000Y-40600000D01*
X38900000Y-38000000D02*
X41200000Y-40300000D01*
X34500000Y-34700000D02*
X34500000Y-35300000D01*
X31500000Y-32700000D02*
X32500000Y-32700000D01*
X32500000Y-32700000D02*
X34500000Y-34700000D01*
X61825000Y-56730000D02*
X59070000Y-56730000D01*
X59070000Y-56730000D02*
X58500000Y-57300000D01*
X28175000Y-33270000D02*
X30930000Y-33270000D01*
X30930000Y-33270000D02*
X31500000Y-32700000D01*
X15400000Y-59200000D02*
X14000000Y-57800000D01*
X18500000Y-57300000D02*
X17500000Y-57300000D01*
X17500000Y-57300000D02*
X15600000Y-59200000D01*
X15600000Y-59200000D02*
X15400000Y-59200000D01*
X14000000Y-57800000D02*
X14000000Y-53800000D01*
X14000000Y-53800000D02*
X14000000Y-34400000D01*
X75800000Y-55400000D02*
X75800000Y-37000000D01*
X61825000Y-56730000D02*
X63125001Y-55429999D01*
X63125001Y-55429999D02*
X75770001Y-55429999D01*
X75770001Y-55429999D02*
X75800000Y-55400000D01*
X68175000Y-33270000D02*
X70930000Y-33270000D01*
X70930000Y-33270000D02*
X71500000Y-32700000D01*
X75800000Y-37000000D02*
X71500000Y-32700000D01*
X14000000Y-21050000D02*
X14000000Y-34400000D01*
X14170001Y-34570001D02*
X14000000Y-34400000D01*
X28175000Y-33270000D02*
X26874999Y-34570001D01*
X26874999Y-34570001D02*
X14170001Y-34570001D01*
X18500000Y-57300000D02*
X21255000Y-57300000D01*
X21255000Y-57300000D02*
X21825000Y-56730000D01*
X15900000Y-19200000D02*
X15850000Y-19200000D01*
X15850000Y-19200000D02*
X14000000Y-21050000D01*
X41200000Y-40600000D02*
X41200000Y-41700000D01*
D25*
X42150000Y-43250000D02*
X41875001Y-42975001D01*
X41875001Y-42425001D02*
X41200000Y-41750000D01*
X41875001Y-42975001D02*
X41875001Y-42425001D01*
X41200000Y-41750000D02*
X41200000Y-41700000D01*
D24*
X17500000Y-19200000D02*
X19100000Y-19200000D01*
X15900000Y-19200000D02*
X17500000Y-19200000D01*
D25*
X42600000Y-43250000D02*
X42150000Y-43250000D01*
G36*
X84140483Y-1085720D02*
X83625587Y-2325726D01*
X83624416Y-3668384D01*
X84137146Y-4909286D01*
X85085720Y-5859517D01*
X86325726Y-6374413D01*
X87668384Y-6375584D01*
X88909286Y-5862854D01*
X89550000Y-5223257D01*
X89550000Y-84777313D01*
X88914280Y-84140483D01*
X87674274Y-83625587D01*
X86331616Y-83624416D01*
X85090714Y-84137146D01*
X84140483Y-85085720D01*
X83625587Y-86325726D01*
X83624416Y-87668384D01*
X84137146Y-88909286D01*
X84776743Y-89550000D01*
X5222687Y-89550000D01*
X5859517Y-88914280D01*
X6374413Y-87674274D01*
X6375157Y-86820834D01*
X6924632Y-86820834D01*
X7247462Y-87602143D01*
X7844713Y-88200437D01*
X8625457Y-88524630D01*
X9470834Y-88525368D01*
X10252143Y-88202538D01*
X10850437Y-87605287D01*
X11174630Y-86824543D01*
X11174633Y-86820834D01*
X38824632Y-86820834D01*
X39147462Y-87602143D01*
X39744713Y-88200437D01*
X40525457Y-88524630D01*
X41370834Y-88525368D01*
X42152143Y-88202538D01*
X42750437Y-87605287D01*
X43074630Y-86824543D01*
X43074633Y-86820834D01*
X46924632Y-86820834D01*
X47247462Y-87602143D01*
X47844713Y-88200437D01*
X48625457Y-88524630D01*
X49470834Y-88525368D01*
X50252143Y-88202538D01*
X50850437Y-87605287D01*
X51174630Y-86824543D01*
X51174633Y-86820834D01*
X78824632Y-86820834D01*
X79147462Y-87602143D01*
X79744713Y-88200437D01*
X80525457Y-88524630D01*
X81370834Y-88525368D01*
X82152143Y-88202538D01*
X82750437Y-87605287D01*
X83074630Y-86824543D01*
X83075368Y-85979166D01*
X82752538Y-85197857D01*
X82155287Y-84599563D01*
X81374543Y-84275370D01*
X80529166Y-84274632D01*
X79747857Y-84597462D01*
X79149563Y-85194713D01*
X78825370Y-85975457D01*
X78824632Y-86820834D01*
X51174633Y-86820834D01*
X51175368Y-85979166D01*
X50852538Y-85197857D01*
X50255287Y-84599563D01*
X49474543Y-84275370D01*
X48629166Y-84274632D01*
X47847857Y-84597462D01*
X47249563Y-85194713D01*
X46925370Y-85975457D01*
X46924632Y-86820834D01*
X43074633Y-86820834D01*
X43075368Y-85979166D01*
X42752538Y-85197857D01*
X42155287Y-84599563D01*
X41374543Y-84275370D01*
X40529166Y-84274632D01*
X39747857Y-84597462D01*
X39149563Y-85194713D01*
X38825370Y-85975457D01*
X38824632Y-86820834D01*
X11174633Y-86820834D01*
X11175368Y-85979166D01*
X10852538Y-85197857D01*
X10255287Y-84599563D01*
X9474543Y-84275370D01*
X8629166Y-84274632D01*
X7847857Y-84597462D01*
X7249563Y-85194713D01*
X6925370Y-85975457D01*
X6924632Y-86820834D01*
X6375157Y-86820834D01*
X6375584Y-86331616D01*
X5862854Y-85090714D01*
X4914280Y-84140483D01*
X3674274Y-83625587D01*
X2331616Y-83624416D01*
X1090714Y-84137146D01*
X450000Y-84776743D01*
X450000Y-54820834D01*
X6924632Y-54820834D01*
X7247462Y-55602143D01*
X7844713Y-56200437D01*
X8625457Y-56524630D01*
X9470834Y-56525368D01*
X10252143Y-56202538D01*
X10850437Y-55605287D01*
X11174630Y-54824543D01*
X11175368Y-53979166D01*
X10852538Y-53197857D01*
X10255287Y-52599563D01*
X9474543Y-52275370D01*
X8629166Y-52274632D01*
X7847857Y-52597462D01*
X7249563Y-53194713D01*
X6925370Y-53975457D01*
X6924632Y-54820834D01*
X450000Y-54820834D01*
X450000Y-36020834D01*
X6924632Y-36020834D01*
X7247462Y-36802143D01*
X7844713Y-37400437D01*
X8625457Y-37724630D01*
X9470834Y-37725368D01*
X10252143Y-37402538D01*
X10850437Y-36805287D01*
X11174630Y-36024543D01*
X11175368Y-35179166D01*
X10852538Y-34397857D01*
X10255287Y-33799563D01*
X9474543Y-33475370D01*
X8629166Y-33474632D01*
X7847857Y-33797462D01*
X7249563Y-34394713D01*
X6925370Y-35175457D01*
X6924632Y-36020834D01*
X450000Y-36020834D01*
X450000Y-21050000D01*
X13325000Y-21050000D01*
X13325000Y-57800000D01*
X13376381Y-58058312D01*
X13522703Y-58277297D01*
X20291202Y-65045796D01*
X20510187Y-65192118D01*
X20768499Y-65243499D01*
X69531501Y-65243499D01*
X69789813Y-65192118D01*
X70008798Y-65045796D01*
X76277297Y-58777297D01*
X76334744Y-58691322D01*
X76423619Y-58558311D01*
X76475000Y-58300000D01*
X76475000Y-54820834D01*
X78824632Y-54820834D01*
X79147462Y-55602143D01*
X79744713Y-56200437D01*
X80525457Y-56524630D01*
X81370834Y-56525368D01*
X82152143Y-56202538D01*
X82750437Y-55605287D01*
X83074630Y-54824543D01*
X83075368Y-53979166D01*
X82752538Y-53197857D01*
X82155287Y-52599563D01*
X81374543Y-52275370D01*
X80529166Y-52274632D01*
X79747857Y-52597462D01*
X79149563Y-53194713D01*
X78825370Y-53975457D01*
X78824632Y-54820834D01*
X76475000Y-54820834D01*
X76475000Y-49794500D01*
X85224000Y-49794500D01*
X85224000Y-50124791D01*
X85281243Y-50262987D01*
X85387013Y-50368757D01*
X85525209Y-50426000D01*
X85905500Y-50426000D01*
X85999500Y-50332000D01*
X85999500Y-49700500D01*
X86000500Y-49700500D01*
X86000500Y-50332000D01*
X86094500Y-50426000D01*
X86474791Y-50426000D01*
X86612987Y-50368757D01*
X86718757Y-50262987D01*
X86776000Y-50124791D01*
X86776000Y-49794500D01*
X87224000Y-49794500D01*
X87224000Y-50124791D01*
X87281243Y-50262987D01*
X87387013Y-50368757D01*
X87525209Y-50426000D01*
X87905500Y-50426000D01*
X87999500Y-50332000D01*
X87999500Y-49700500D01*
X88000500Y-49700500D01*
X88000500Y-50332000D01*
X88094500Y-50426000D01*
X88474791Y-50426000D01*
X88612987Y-50368757D01*
X88718757Y-50262987D01*
X88776000Y-50124791D01*
X88776000Y-49794500D01*
X88682000Y-49700500D01*
X88000500Y-49700500D01*
X87999500Y-49700500D01*
X87318000Y-49700500D01*
X87224000Y-49794500D01*
X86776000Y-49794500D01*
X86682000Y-49700500D01*
X86000500Y-49700500D01*
X85999500Y-49700500D01*
X85318000Y-49700500D01*
X85224000Y-49794500D01*
X76475000Y-49794500D01*
X76475000Y-37000000D01*
X76423619Y-36741689D01*
X76277297Y-36522703D01*
X75775428Y-36020834D01*
X78824632Y-36020834D01*
X79147462Y-36802143D01*
X79744713Y-37400437D01*
X80525457Y-37724630D01*
X81370834Y-37725368D01*
X82152143Y-37402538D01*
X82750437Y-36805287D01*
X83074630Y-36024543D01*
X83075368Y-35179166D01*
X82752538Y-34397857D01*
X82155287Y-33799563D01*
X81374543Y-33475370D01*
X80529166Y-33474632D01*
X79747857Y-33797462D01*
X79149563Y-34394713D01*
X78825370Y-35175457D01*
X78824632Y-36020834D01*
X75775428Y-36020834D01*
X72282346Y-32527752D01*
X72282346Y-32350000D01*
X72256198Y-32211034D01*
X72174069Y-32083401D01*
X72048754Y-31997777D01*
X72044840Y-31996984D01*
X72112987Y-31968757D01*
X72218757Y-31862987D01*
X72276000Y-31724791D01*
X72276000Y-31394500D01*
X72182000Y-31300500D01*
X71500500Y-31300500D01*
X71500500Y-31320500D01*
X71499500Y-31320500D01*
X71499500Y-31300500D01*
X70818000Y-31300500D01*
X70724000Y-31394500D01*
X70724000Y-31724791D01*
X70781243Y-31862987D01*
X70887013Y-31968757D01*
X70955725Y-31997218D01*
X70833401Y-32075931D01*
X70747777Y-32201246D01*
X70717654Y-32350000D01*
X70717654Y-32527752D01*
X70650406Y-32595000D01*
X69357346Y-32595000D01*
X69357346Y-32470000D01*
X69331198Y-32331034D01*
X69249069Y-32203401D01*
X69123754Y-32117777D01*
X68975000Y-32087654D01*
X67375000Y-32087654D01*
X67236034Y-32113802D01*
X67108401Y-32195931D01*
X67022777Y-32321246D01*
X66992654Y-32470000D01*
X66992654Y-34070000D01*
X67018802Y-34208966D01*
X67100931Y-34336599D01*
X67226246Y-34422223D01*
X67375000Y-34452346D01*
X68975000Y-34452346D01*
X69113966Y-34426198D01*
X69241599Y-34344069D01*
X69327223Y-34218754D01*
X69357346Y-34070000D01*
X69357346Y-33945000D01*
X70930000Y-33945000D01*
X71188312Y-33893619D01*
X71407297Y-33747297D01*
X71500000Y-33654594D01*
X75125000Y-37279594D01*
X75125000Y-54754999D01*
X63125001Y-54754999D01*
X62866689Y-54806380D01*
X62647704Y-54952702D01*
X62052752Y-55547654D01*
X61025000Y-55547654D01*
X60886034Y-55573802D01*
X60758401Y-55655931D01*
X60672777Y-55781246D01*
X60642654Y-55930000D01*
X60642654Y-56055000D01*
X59070000Y-56055000D01*
X58811688Y-56106381D01*
X58592703Y-56252703D01*
X58277752Y-56567654D01*
X58100000Y-56567654D01*
X57961034Y-56593802D01*
X57833401Y-56675931D01*
X57747777Y-56801246D01*
X57717654Y-56950000D01*
X57717654Y-57650000D01*
X57743802Y-57788966D01*
X57825931Y-57916599D01*
X57951246Y-58002223D01*
X57955160Y-58003016D01*
X57887013Y-58031243D01*
X57781243Y-58137013D01*
X57724000Y-58275209D01*
X57724000Y-58605500D01*
X57818000Y-58699500D01*
X58499500Y-58699500D01*
X58499500Y-58679500D01*
X58500500Y-58679500D01*
X58500500Y-58699500D01*
X59182000Y-58699500D01*
X59276000Y-58605500D01*
X59276000Y-58275209D01*
X59218757Y-58137013D01*
X59112987Y-58031243D01*
X59044275Y-58002782D01*
X59166599Y-57924069D01*
X59252223Y-57798754D01*
X59282346Y-57650000D01*
X59282346Y-57472248D01*
X59349594Y-57405000D01*
X60642654Y-57405000D01*
X60642654Y-57530000D01*
X60668802Y-57668966D01*
X60750931Y-57796599D01*
X60876246Y-57882223D01*
X61025000Y-57912346D01*
X62625000Y-57912346D01*
X62763966Y-57886198D01*
X62891599Y-57804069D01*
X62977223Y-57678754D01*
X63007346Y-57530000D01*
X63007346Y-56502248D01*
X63315083Y-56194511D01*
X63190204Y-56495253D01*
X63189796Y-56962697D01*
X63368302Y-57394715D01*
X63698547Y-57725536D01*
X63865000Y-57794653D01*
X63865000Y-58461135D01*
X63799373Y-58299663D01*
X63374424Y-58103973D01*
X62906935Y-58085801D01*
X62468078Y-58247913D01*
X62390627Y-58299663D01*
X62313973Y-58488266D01*
X63095000Y-59269293D01*
X63109143Y-59255151D01*
X63109850Y-59255858D01*
X63095707Y-59270000D01*
X63109850Y-59284143D01*
X63109143Y-59284850D01*
X63095000Y-59270707D01*
X63080858Y-59284850D01*
X63080151Y-59284143D01*
X63094293Y-59270000D01*
X62313266Y-58488973D01*
X62124663Y-58565627D01*
X61928973Y-58990576D01*
X61910801Y-59458065D01*
X62072203Y-59895001D01*
X58274927Y-59895001D01*
X57174426Y-58794500D01*
X57724000Y-58794500D01*
X57724000Y-59124791D01*
X57781243Y-59262987D01*
X57887013Y-59368757D01*
X58025209Y-59426000D01*
X58405500Y-59426000D01*
X58499500Y-59332000D01*
X58499500Y-58700500D01*
X58500500Y-58700500D01*
X58500500Y-59332000D01*
X58594500Y-59426000D01*
X58974791Y-59426000D01*
X59112987Y-59368757D01*
X59218757Y-59262987D01*
X59276000Y-59124791D01*
X59276000Y-58794500D01*
X59182000Y-58700500D01*
X58500500Y-58700500D01*
X58499500Y-58700500D01*
X57818000Y-58700500D01*
X57724000Y-58794500D01*
X57174426Y-58794500D01*
X56100000Y-57720074D01*
X56100000Y-53595687D01*
X56134766Y-53770468D01*
X56134766Y-53770473D01*
X56146997Y-53800000D01*
X56201958Y-53932690D01*
X56201963Y-53932695D01*
X56418730Y-54257111D01*
X56418731Y-54257114D01*
X56461618Y-54300000D01*
X56542886Y-54381268D01*
X56542889Y-54381269D01*
X56867307Y-54598039D01*
X56867310Y-54598042D01*
X56948418Y-54631637D01*
X57029527Y-54665234D01*
X57029532Y-54665234D01*
X57412210Y-54741353D01*
X57456529Y-54741353D01*
X57500000Y-54750000D01*
X72500000Y-54750000D01*
X72543471Y-54741353D01*
X72587790Y-54741353D01*
X72970468Y-54665234D01*
X72970473Y-54665234D01*
X73037665Y-54637402D01*
X73132690Y-54598042D01*
X73132695Y-54598037D01*
X73457111Y-54381270D01*
X73457114Y-54381269D01*
X73538382Y-54300000D01*
X73581268Y-54257114D01*
X73581269Y-54257111D01*
X73798039Y-53932693D01*
X73798042Y-53932690D01*
X73853003Y-53800000D01*
X73865234Y-53770473D01*
X73865234Y-53770468D01*
X73941353Y-53387790D01*
X73941353Y-53343471D01*
X73950000Y-53300000D01*
X73950000Y-36700000D01*
X73941353Y-36656529D01*
X73941353Y-36612210D01*
X73865234Y-36229532D01*
X73865234Y-36229527D01*
X73818104Y-36115746D01*
X73798042Y-36067310D01*
X73798039Y-36067307D01*
X73581268Y-35742887D01*
X73581268Y-35742886D01*
X73519191Y-35680809D01*
X73457114Y-35618731D01*
X73457111Y-35618730D01*
X73132695Y-35401963D01*
X73132690Y-35401958D01*
X73037665Y-35362598D01*
X72970473Y-35334766D01*
X72970468Y-35334766D01*
X72587790Y-35258647D01*
X72543471Y-35258647D01*
X72500000Y-35250000D01*
X57500000Y-35250000D01*
X57456529Y-35258647D01*
X57412210Y-35258647D01*
X57029532Y-35334766D01*
X56948418Y-35368363D01*
X56867310Y-35401958D01*
X56867307Y-35401961D01*
X56542889Y-35618731D01*
X56542886Y-35618732D01*
X56480809Y-35680809D01*
X56418731Y-35742886D01*
X56418731Y-35742887D01*
X56201963Y-36067305D01*
X56201958Y-36067310D01*
X56167591Y-36150281D01*
X56134766Y-36229527D01*
X56134766Y-36229532D01*
X56058647Y-36612210D01*
X56058647Y-36656529D01*
X56050000Y-36700000D01*
X56050000Y-52890789D01*
X56005680Y-52824460D01*
X55953554Y-52746447D01*
X50675311Y-47468205D01*
X55553553Y-42589963D01*
X55661940Y-42427752D01*
X55668167Y-42396447D01*
X55700000Y-42236410D01*
X55700000Y-36001104D01*
X59049894Y-32651211D01*
X59049762Y-32802305D01*
X59258652Y-33307857D01*
X59645108Y-33694989D01*
X60150296Y-33904761D01*
X60697305Y-33905238D01*
X61202857Y-33696348D01*
X61589989Y-33309892D01*
X61799761Y-32804704D01*
X61800238Y-32257695D01*
X61654446Y-31904852D01*
X62057697Y-31905204D01*
X62489715Y-31726698D01*
X62595000Y-31621596D01*
X62595000Y-32205243D01*
X62430285Y-32273302D01*
X62099464Y-32603547D01*
X61920204Y-33035253D01*
X61919796Y-33502697D01*
X62098302Y-33934715D01*
X62428547Y-34265536D01*
X62860253Y-34444796D01*
X63327697Y-34445204D01*
X63759715Y-34266698D01*
X64090536Y-33936453D01*
X64269796Y-33504747D01*
X64270204Y-33037303D01*
X64091698Y-32605285D01*
X63761453Y-32274464D01*
X63595000Y-32205347D01*
X63595000Y-31621808D01*
X63698547Y-31725536D01*
X64130253Y-31904796D01*
X64597697Y-31905204D01*
X65029715Y-31726698D01*
X65135000Y-31621596D01*
X65135000Y-32205243D01*
X64970285Y-32273302D01*
X64639464Y-32603547D01*
X64460204Y-33035253D01*
X64459796Y-33502697D01*
X64638302Y-33934715D01*
X64968547Y-34265536D01*
X65400253Y-34444796D01*
X65867697Y-34445204D01*
X66299715Y-34266698D01*
X66630536Y-33936453D01*
X66809796Y-33504747D01*
X66810204Y-33037303D01*
X66631698Y-32605285D01*
X66301453Y-32274464D01*
X66135000Y-32205347D01*
X66135000Y-31538865D01*
X66200627Y-31700337D01*
X66625576Y-31896027D01*
X67093065Y-31914199D01*
X67531922Y-31752087D01*
X67609373Y-31700337D01*
X67686027Y-31511734D01*
X66905000Y-30730707D01*
X66890858Y-30744850D01*
X66890151Y-30744143D01*
X66904293Y-30730000D01*
X66905707Y-30730000D01*
X67686734Y-31511027D01*
X67875337Y-31434373D01*
X68071027Y-31009424D01*
X68076244Y-30875209D01*
X70724000Y-30875209D01*
X70724000Y-31205500D01*
X70818000Y-31299500D01*
X71499500Y-31299500D01*
X71499500Y-30668000D01*
X71500500Y-30668000D01*
X71500500Y-31299500D01*
X72182000Y-31299500D01*
X72276000Y-31205500D01*
X72276000Y-30875209D01*
X72218757Y-30737013D01*
X72112987Y-30631243D01*
X71974791Y-30574000D01*
X71594500Y-30574000D01*
X71500500Y-30668000D01*
X71499500Y-30668000D01*
X71405500Y-30574000D01*
X71025209Y-30574000D01*
X70887013Y-30631243D01*
X70781243Y-30737013D01*
X70724000Y-30875209D01*
X68076244Y-30875209D01*
X68089199Y-30541935D01*
X67927087Y-30103078D01*
X67875337Y-30025627D01*
X67686734Y-29948973D01*
X66905707Y-30730000D01*
X66904293Y-30730000D01*
X66123266Y-29948973D01*
X66000260Y-29998966D01*
X65988553Y-29981445D01*
X65955374Y-29948266D01*
X66123973Y-29948266D01*
X66905000Y-30729293D01*
X67686027Y-29948266D01*
X67609373Y-29759663D01*
X67184424Y-29563973D01*
X66716935Y-29545801D01*
X66278078Y-29707913D01*
X66200627Y-29759663D01*
X66123973Y-29948266D01*
X65955374Y-29948266D01*
X64358534Y-28351426D01*
X64196323Y-28243039D01*
X64004981Y-28204979D01*
X60379789Y-28204979D01*
X60188447Y-28243039D01*
X60026235Y-28351426D01*
X53496420Y-34881242D01*
X53388033Y-35043453D01*
X53349973Y-35234795D01*
X53349972Y-41342921D01*
X49442894Y-45250000D01*
X47827205Y-45250000D01*
X47828412Y-45249500D01*
X48032000Y-45249500D01*
X48126000Y-45155500D01*
X48126000Y-45050209D01*
X48105203Y-45000000D01*
X48126000Y-44949791D01*
X48126000Y-44844500D01*
X48032000Y-44750500D01*
X47828412Y-44750500D01*
X47825998Y-44749500D01*
X48032000Y-44749500D01*
X48126000Y-44655500D01*
X48126000Y-44550209D01*
X48106432Y-44502968D01*
X48132346Y-44375000D01*
X48132346Y-44125000D01*
X48107694Y-43993985D01*
X48126000Y-43949791D01*
X48126000Y-43844500D01*
X48032000Y-43750500D01*
X47788745Y-43750500D01*
X47787608Y-43750270D01*
X47789041Y-43750000D01*
X48000000Y-43750000D01*
X48002514Y-43749500D01*
X48032000Y-43749500D01*
X48039321Y-43742179D01*
X48191342Y-43711940D01*
X48353553Y-43603553D01*
X49553553Y-42403554D01*
X49661940Y-42241342D01*
X49674679Y-42177297D01*
X49700000Y-42050000D01*
X49700000Y-40100000D01*
X49661940Y-39908658D01*
X49598534Y-39813765D01*
X49553553Y-39746446D01*
X46800000Y-36992894D01*
X46800000Y-36020834D01*
X46924632Y-36020834D01*
X47247462Y-36802143D01*
X47844713Y-37400437D01*
X48625457Y-37724630D01*
X49470834Y-37725368D01*
X50252143Y-37402538D01*
X50850437Y-36805287D01*
X51174630Y-36024543D01*
X51175368Y-35179166D01*
X50852538Y-34397857D01*
X50255287Y-33799563D01*
X49474543Y-33475370D01*
X48629166Y-33474632D01*
X47847857Y-33797462D01*
X47249563Y-34394713D01*
X46925370Y-35175457D01*
X46924632Y-36020834D01*
X46800000Y-36020834D01*
X46800000Y-33157106D01*
X52706553Y-27250553D01*
X52765145Y-27274883D01*
X53033677Y-27275117D01*
X53281857Y-27172571D01*
X53354555Y-27100000D01*
X78856484Y-27100000D01*
X84660201Y-32903717D01*
X84660201Y-40260201D01*
X84678770Y-40353554D01*
X84698261Y-40451543D01*
X84806648Y-40613754D01*
X85999972Y-41807079D01*
X85999883Y-41908677D01*
X86102429Y-42156857D01*
X86292144Y-42346903D01*
X86540145Y-42449883D01*
X86808677Y-42450117D01*
X87056857Y-42347571D01*
X87246903Y-42157856D01*
X87349883Y-41909855D01*
X87350117Y-41641323D01*
X87247571Y-41393143D01*
X87057856Y-41203097D01*
X86809855Y-41100117D01*
X86707134Y-41100027D01*
X86632223Y-41025116D01*
X86633677Y-41025117D01*
X86881857Y-40922571D01*
X87071903Y-40732856D01*
X87174883Y-40484855D01*
X87175117Y-40216323D01*
X87072571Y-39968143D01*
X86882856Y-39778097D01*
X86634855Y-39675117D01*
X86532134Y-39675027D01*
X86110212Y-39253106D01*
X86110212Y-32510212D01*
X86072152Y-32318870D01*
X86041704Y-32273302D01*
X85963765Y-32156658D01*
X79353544Y-25546438D01*
X79191333Y-25438051D01*
X79191328Y-25438050D01*
X78999991Y-25399991D01*
X74436401Y-25399991D01*
X54106312Y-25399990D01*
X54174883Y-25234855D01*
X54175117Y-24966323D01*
X54072571Y-24718143D01*
X53882856Y-24528097D01*
X53663610Y-24437057D01*
X53663610Y-22113610D01*
X53625550Y-21922268D01*
X53582136Y-21857296D01*
X53517164Y-21760057D01*
X53053555Y-21296449D01*
X53053553Y-21296446D01*
X50603553Y-18846447D01*
X50441342Y-18738060D01*
X50358170Y-18721516D01*
X50356198Y-18711034D01*
X50274069Y-18583401D01*
X50148754Y-18497777D01*
X50000000Y-18467654D01*
X49524761Y-18467654D01*
X48675000Y-17617894D01*
X48675000Y-17334757D01*
X48839715Y-17266698D01*
X49170536Y-16936453D01*
X49187791Y-16894898D01*
X50111446Y-17818553D01*
X50257796Y-17916341D01*
X50273658Y-17926940D01*
X50465000Y-17965000D01*
X78923998Y-17965000D01*
X87272071Y-26313074D01*
X87272071Y-38104761D01*
X87121347Y-38167039D01*
X86931301Y-38356754D01*
X86828321Y-38604755D01*
X86828087Y-38873287D01*
X86930633Y-39121467D01*
X87120348Y-39311513D01*
X87368349Y-39414493D01*
X87636881Y-39414727D01*
X87722081Y-39379523D01*
X87722081Y-46323325D01*
X87720406Y-46325000D01*
X86500589Y-46325000D01*
X86366323Y-46324883D01*
X86118143Y-46427429D01*
X85928097Y-46617144D01*
X85927980Y-46617426D01*
X85522703Y-47022703D01*
X85376381Y-47241688D01*
X85353166Y-47358401D01*
X85325000Y-47500000D01*
X85325000Y-47688226D01*
X85247777Y-47801246D01*
X85217654Y-47950000D01*
X85217654Y-48650000D01*
X85243802Y-48788966D01*
X85325931Y-48916599D01*
X85451246Y-49002223D01*
X85455160Y-49003016D01*
X85387013Y-49031243D01*
X85281243Y-49137013D01*
X85224000Y-49275209D01*
X85224000Y-49605500D01*
X85318000Y-49699500D01*
X85999500Y-49699500D01*
X85999500Y-49679500D01*
X86000500Y-49679500D01*
X86000500Y-49699500D01*
X86682000Y-49699500D01*
X86776000Y-49605500D01*
X86776000Y-49275209D01*
X86718757Y-49137013D01*
X86612987Y-49031243D01*
X86544275Y-49002782D01*
X86666599Y-48924069D01*
X86752223Y-48798754D01*
X86782346Y-48650000D01*
X86782346Y-47950000D01*
X86756198Y-47811034D01*
X86712096Y-47742498D01*
X86779594Y-47675000D01*
X87325000Y-47675000D01*
X87325000Y-47688226D01*
X87247777Y-47801246D01*
X87217654Y-47950000D01*
X87217654Y-48650000D01*
X87243802Y-48788966D01*
X87325931Y-48916599D01*
X87451246Y-49002223D01*
X87455160Y-49003016D01*
X87387013Y-49031243D01*
X87281243Y-49137013D01*
X87224000Y-49275209D01*
X87224000Y-49605500D01*
X87318000Y-49699500D01*
X87999500Y-49699500D01*
X87999500Y-49679500D01*
X88000500Y-49679500D01*
X88000500Y-49699500D01*
X88682000Y-49699500D01*
X88776000Y-49605500D01*
X88776000Y-49275209D01*
X88718757Y-49137013D01*
X88612987Y-49031243D01*
X88544275Y-49002782D01*
X88666599Y-48924069D01*
X88752223Y-48798754D01*
X88782346Y-48650000D01*
X88782346Y-47950000D01*
X88756198Y-47811034D01*
X88675000Y-47684848D01*
X88675000Y-47279594D01*
X88874378Y-47080216D01*
X89020700Y-46861231D01*
X89072081Y-46602919D01*
X89072081Y-25847081D01*
X89020700Y-25588770D01*
X88874378Y-25369784D01*
X77327297Y-13822703D01*
X77108312Y-13676381D01*
X76850000Y-13625000D01*
X53675000Y-13625000D01*
X53675000Y-13300589D01*
X53675117Y-13166323D01*
X53572571Y-12918143D01*
X53382856Y-12728097D01*
X53134855Y-12625117D01*
X52866323Y-12624883D01*
X52618143Y-12727429D01*
X52428097Y-12917144D01*
X52325117Y-13165145D01*
X52324883Y-13433677D01*
X52325000Y-13433960D01*
X52325000Y-13688226D01*
X52247777Y-13801246D01*
X52217654Y-13950000D01*
X52217654Y-14650000D01*
X52243802Y-14788966D01*
X52325931Y-14916599D01*
X52451246Y-15002223D01*
X52455160Y-15003016D01*
X52387013Y-15031243D01*
X52281243Y-15137013D01*
X52224000Y-15275209D01*
X52224000Y-15605500D01*
X52318000Y-15699500D01*
X52999500Y-15699500D01*
X52999500Y-15679500D01*
X53000500Y-15679500D01*
X53000500Y-15699500D01*
X53682000Y-15699500D01*
X53776000Y-15605500D01*
X53776000Y-15275209D01*
X53718757Y-15137013D01*
X53612987Y-15031243D01*
X53544275Y-15002782D01*
X53587449Y-14975000D01*
X76570406Y-14975000D01*
X78560406Y-16965000D01*
X50672107Y-16965000D01*
X50611904Y-16904797D01*
X51117305Y-16905238D01*
X51622857Y-16696348D01*
X52009989Y-16309892D01*
X52219761Y-15804704D01*
X52219769Y-15794500D01*
X52224000Y-15794500D01*
X52224000Y-16124791D01*
X52281243Y-16262987D01*
X52387013Y-16368757D01*
X52525209Y-16426000D01*
X52905500Y-16426000D01*
X52999500Y-16332000D01*
X52999500Y-15700500D01*
X53000500Y-15700500D01*
X53000500Y-16332000D01*
X53094500Y-16426000D01*
X53474791Y-16426000D01*
X53612987Y-16368757D01*
X53718757Y-16262987D01*
X53776000Y-16124791D01*
X53776000Y-15794500D01*
X53682000Y-15700500D01*
X53000500Y-15700500D01*
X52999500Y-15700500D01*
X52318000Y-15700500D01*
X52224000Y-15794500D01*
X52219769Y-15794500D01*
X52220238Y-15257695D01*
X52011348Y-14752143D01*
X51624892Y-14365011D01*
X51119704Y-14155239D01*
X50572695Y-14154762D01*
X50534309Y-14170623D01*
X50619796Y-13964747D01*
X50620204Y-13497303D01*
X50441698Y-13065285D01*
X50111453Y-12734464D01*
X49679747Y-12555204D01*
X49212303Y-12554796D01*
X49045729Y-12623623D01*
X48673552Y-12251446D01*
X48511341Y-12143059D01*
X48319999Y-12104999D01*
X43535001Y-12104999D01*
X43343659Y-12143059D01*
X43181448Y-12251446D01*
X42596448Y-12836446D01*
X42595169Y-12838361D01*
X42491453Y-12734464D01*
X42059747Y-12555204D01*
X41592303Y-12554796D01*
X41160285Y-12733302D01*
X40905684Y-12987460D01*
X40790927Y-12872703D01*
X40571942Y-12726381D01*
X40313630Y-12675000D01*
X26500000Y-12675000D01*
X26241688Y-12726381D01*
X26022703Y-12872703D01*
X25327752Y-13567654D01*
X25100000Y-13567654D01*
X24961034Y-13593802D01*
X24912551Y-13625000D01*
X24488596Y-13625000D01*
X24448754Y-13597777D01*
X24300000Y-13567654D01*
X24119741Y-13567654D01*
X23908312Y-13426381D01*
X23650000Y-13375000D01*
X22000000Y-13375000D01*
X21785563Y-13417654D01*
X21500000Y-13417654D01*
X21361034Y-13443802D01*
X21233401Y-13525931D01*
X21147777Y-13651246D01*
X21117654Y-13800000D01*
X21117654Y-14300000D01*
X21143802Y-14438966D01*
X21196850Y-14521406D01*
X21181243Y-14537013D01*
X21124000Y-14675209D01*
X21124000Y-14905500D01*
X21218000Y-14999500D01*
X21999500Y-14999500D01*
X21999500Y-14979500D01*
X22000500Y-14979500D01*
X22000500Y-14999500D01*
X22782000Y-14999500D01*
X22876000Y-14905500D01*
X22876000Y-14725000D01*
X23131766Y-14725000D01*
X23143802Y-14788966D01*
X23225931Y-14916599D01*
X23351246Y-15002223D01*
X23355160Y-15003016D01*
X23287013Y-15031243D01*
X23181243Y-15137013D01*
X23124000Y-15275209D01*
X23124000Y-15605500D01*
X23217998Y-15699498D01*
X23206604Y-15699498D01*
X23103553Y-15596447D01*
X22941342Y-15488060D01*
X22818182Y-15463562D01*
X22818757Y-15462987D01*
X22876000Y-15324791D01*
X22876000Y-15094500D01*
X22782000Y-15000500D01*
X22000500Y-15000500D01*
X22000500Y-15020500D01*
X21999500Y-15020500D01*
X21999500Y-15000500D01*
X21218000Y-15000500D01*
X21124000Y-15094500D01*
X21124000Y-15324791D01*
X21181243Y-15462987D01*
X21197187Y-15478931D01*
X21147777Y-15551246D01*
X21117654Y-15700000D01*
X21117654Y-16200000D01*
X21143802Y-16338966D01*
X21225931Y-16466599D01*
X21351246Y-16552223D01*
X21500000Y-16582346D01*
X22500000Y-16582346D01*
X22638966Y-16556198D01*
X22645127Y-16552234D01*
X22821447Y-16728554D01*
X22928375Y-16800001D01*
X22983659Y-16836941D01*
X23175001Y-16875001D01*
X26374999Y-16875001D01*
X26566341Y-16836941D01*
X26728552Y-16728554D01*
X27024760Y-16432346D01*
X27500000Y-16432346D01*
X27638966Y-16406198D01*
X27766599Y-16324069D01*
X27852223Y-16198754D01*
X27856250Y-16178866D01*
X27941342Y-16161940D01*
X28103553Y-16053553D01*
X28512107Y-15644999D01*
X39372654Y-15644999D01*
X39372654Y-17070000D01*
X39398802Y-17208966D01*
X39480931Y-17336599D01*
X39606246Y-17422223D01*
X39755000Y-17452346D01*
X40081325Y-17452346D01*
X40093060Y-17511342D01*
X40201447Y-17673553D01*
X43481446Y-20953553D01*
X43513544Y-20975000D01*
X43643658Y-21061940D01*
X43835000Y-21100000D01*
X44317654Y-21100000D01*
X44317654Y-22050000D01*
X44343802Y-22188966D01*
X44425931Y-22316599D01*
X44500000Y-22367208D01*
X44500000Y-22392893D01*
X44375239Y-22517654D01*
X43950000Y-22517654D01*
X43811034Y-22543802D01*
X43683401Y-22625931D01*
X43598870Y-22749646D01*
X43524069Y-22633401D01*
X43398754Y-22547777D01*
X43250000Y-22517654D01*
X42550000Y-22517654D01*
X42411034Y-22543802D01*
X42283401Y-22625931D01*
X42197777Y-22751246D01*
X42167654Y-22900000D01*
X42167654Y-23700000D01*
X42193802Y-23838966D01*
X42225000Y-23887449D01*
X42225000Y-24311404D01*
X42197777Y-24351246D01*
X42167654Y-24500000D01*
X42167654Y-25300000D01*
X42193802Y-25438966D01*
X42225000Y-25487449D01*
X42225000Y-25825000D01*
X40800000Y-25825000D01*
X40541688Y-25876381D01*
X40322703Y-26022703D01*
X38000000Y-28345406D01*
X29477297Y-19822703D01*
X29258312Y-19676381D01*
X29000000Y-19625000D01*
X23067158Y-19625000D01*
X23082346Y-19550000D01*
X23082346Y-18850000D01*
X23056198Y-18711034D01*
X22974069Y-18583401D01*
X22848754Y-18497777D01*
X22844840Y-18496984D01*
X22912987Y-18468757D01*
X23018757Y-18362987D01*
X23076000Y-18224791D01*
X23076000Y-17894500D01*
X22982000Y-17800500D01*
X22300500Y-17800500D01*
X22300500Y-17820500D01*
X22299500Y-17820500D01*
X22299500Y-17800500D01*
X21618000Y-17800500D01*
X21524000Y-17894500D01*
X21524000Y-17916894D01*
X21482346Y-17875240D01*
X21482346Y-17450000D01*
X21468274Y-17375209D01*
X21524000Y-17375209D01*
X21524000Y-17705500D01*
X21618000Y-17799500D01*
X22299500Y-17799500D01*
X22299500Y-17168000D01*
X22300500Y-17168000D01*
X22300500Y-17799500D01*
X22982000Y-17799500D01*
X23076000Y-17705500D01*
X23076000Y-17375209D01*
X23018757Y-17237013D01*
X22912987Y-17131243D01*
X22774791Y-17074000D01*
X22394500Y-17074000D01*
X22300500Y-17168000D01*
X22299500Y-17168000D01*
X22205500Y-17074000D01*
X21825209Y-17074000D01*
X21687013Y-17131243D01*
X21581243Y-17237013D01*
X21524000Y-17375209D01*
X21468274Y-17375209D01*
X21456198Y-17311034D01*
X21374069Y-17183401D01*
X21248754Y-17097777D01*
X21100000Y-17067654D01*
X20674761Y-17067654D01*
X20114622Y-16507515D01*
X20166599Y-16474069D01*
X20252223Y-16348754D01*
X20282346Y-16200000D01*
X20282346Y-15700000D01*
X20256198Y-15561034D01*
X20174069Y-15433401D01*
X20048754Y-15347777D01*
X19900000Y-15317654D01*
X18900000Y-15317654D01*
X18761034Y-15343802D01*
X18633401Y-15425931D01*
X18547777Y-15551246D01*
X18517654Y-15700000D01*
X18517654Y-16200000D01*
X18543802Y-16338966D01*
X18625931Y-16466599D01*
X18751246Y-16552223D01*
X18900000Y-16582346D01*
X18916380Y-16582346D01*
X18938060Y-16691342D01*
X19046447Y-16853553D01*
X19266894Y-17074000D01*
X19194500Y-17074000D01*
X19100500Y-17168000D01*
X19100500Y-17799500D01*
X19782000Y-17799500D01*
X19876000Y-17705500D01*
X19876000Y-17683107D01*
X19917654Y-17724761D01*
X19917654Y-17975001D01*
X19876000Y-17975001D01*
X19876000Y-17894500D01*
X19782000Y-17800500D01*
X19100500Y-17800500D01*
X19100500Y-17820500D01*
X19099500Y-17820500D01*
X19099500Y-17800500D01*
X18418000Y-17800500D01*
X18324000Y-17894500D01*
X18324000Y-17975001D01*
X18276000Y-17975001D01*
X18276000Y-17894500D01*
X18182000Y-17800500D01*
X17500500Y-17800500D01*
X17500500Y-17820500D01*
X17499500Y-17820500D01*
X17499500Y-17800500D01*
X16818000Y-17800500D01*
X16737803Y-17880697D01*
X16682346Y-17825239D01*
X16682346Y-17450000D01*
X16668274Y-17375209D01*
X16724000Y-17375209D01*
X16724000Y-17705500D01*
X16818000Y-17799500D01*
X17499500Y-17799500D01*
X17499500Y-17168000D01*
X17500500Y-17168000D01*
X17500500Y-17799500D01*
X18182000Y-17799500D01*
X18276000Y-17705500D01*
X18276000Y-17375209D01*
X18324000Y-17375209D01*
X18324000Y-17705500D01*
X18418000Y-17799500D01*
X19099500Y-17799500D01*
X19099500Y-17168000D01*
X19005500Y-17074000D01*
X18625209Y-17074000D01*
X18487013Y-17131243D01*
X18381243Y-17237013D01*
X18324000Y-17375209D01*
X18276000Y-17375209D01*
X18218757Y-17237013D01*
X18112987Y-17131243D01*
X17974791Y-17074000D01*
X17594500Y-17074000D01*
X17500500Y-17168000D01*
X17499500Y-17168000D01*
X17405500Y-17074000D01*
X17025209Y-17074000D01*
X16887013Y-17131243D01*
X16781243Y-17237013D01*
X16724000Y-17375209D01*
X16668274Y-17375209D01*
X16656198Y-17311034D01*
X16574069Y-17183401D01*
X16448754Y-17097777D01*
X16300000Y-17067654D01*
X16072248Y-17067654D01*
X15575000Y-16570406D01*
X15575000Y-16426000D01*
X15805500Y-16426000D01*
X15899500Y-16332000D01*
X15899500Y-15700500D01*
X15900500Y-15700500D01*
X15900500Y-16332000D01*
X15994500Y-16426000D01*
X16374791Y-16426000D01*
X16512987Y-16368757D01*
X16618757Y-16262987D01*
X16676000Y-16124791D01*
X16676000Y-15794500D01*
X16724000Y-15794500D01*
X16724000Y-16124791D01*
X16781243Y-16262987D01*
X16887013Y-16368757D01*
X17025209Y-16426000D01*
X17405500Y-16426000D01*
X17499500Y-16332000D01*
X17499500Y-15700500D01*
X17500500Y-15700500D01*
X17500500Y-16332000D01*
X17594500Y-16426000D01*
X17974791Y-16426000D01*
X18112987Y-16368757D01*
X18218757Y-16262987D01*
X18276000Y-16124791D01*
X18276000Y-15794500D01*
X18182000Y-15700500D01*
X17500500Y-15700500D01*
X17499500Y-15700500D01*
X16818000Y-15700500D01*
X16724000Y-15794500D01*
X16676000Y-15794500D01*
X16582000Y-15700500D01*
X15900500Y-15700500D01*
X15899500Y-15700500D01*
X15879500Y-15700500D01*
X15879500Y-15699500D01*
X15899500Y-15699500D01*
X15899500Y-15679500D01*
X15900500Y-15679500D01*
X15900500Y-15699500D01*
X16582000Y-15699500D01*
X16676000Y-15605500D01*
X16676000Y-15275209D01*
X16618757Y-15137013D01*
X16512987Y-15031243D01*
X16444275Y-15002782D01*
X16487449Y-14975000D01*
X16911404Y-14975000D01*
X16951246Y-15002223D01*
X16955160Y-15003016D01*
X16887013Y-15031243D01*
X16781243Y-15137013D01*
X16724000Y-15275209D01*
X16724000Y-15605500D01*
X16818000Y-15699500D01*
X17499500Y-15699500D01*
X17499500Y-15679500D01*
X17500500Y-15679500D01*
X17500500Y-15699500D01*
X18182000Y-15699500D01*
X18276000Y-15605500D01*
X18276000Y-15275209D01*
X18218757Y-15137013D01*
X18112987Y-15031243D01*
X18044275Y-15002782D01*
X18166599Y-14924069D01*
X18252223Y-14798754D01*
X18267158Y-14725000D01*
X19400000Y-14725000D01*
X19614437Y-14682346D01*
X19900000Y-14682346D01*
X20038966Y-14656198D01*
X20166599Y-14574069D01*
X20252223Y-14448754D01*
X20282346Y-14300000D01*
X20282346Y-13800000D01*
X20256198Y-13661034D01*
X20174069Y-13533401D01*
X20048754Y-13447777D01*
X19900000Y-13417654D01*
X19614437Y-13417654D01*
X19400000Y-13375000D01*
X17750000Y-13375000D01*
X17491689Y-13426381D01*
X17280259Y-13567654D01*
X17100000Y-13567654D01*
X16961034Y-13593802D01*
X16912551Y-13625000D01*
X16488596Y-13625000D01*
X16448754Y-13597777D01*
X16300000Y-13567654D01*
X15500000Y-13567654D01*
X15361034Y-13593802D01*
X15233401Y-13675931D01*
X15147777Y-13801246D01*
X15136000Y-13859404D01*
X14422703Y-14572701D01*
X14276381Y-14791686D01*
X14250138Y-14923618D01*
X14225000Y-15049998D01*
X14225000Y-16850000D01*
X14276381Y-17108312D01*
X14422703Y-17327297D01*
X15117654Y-18022248D01*
X15117654Y-18150000D01*
X15143802Y-18288966D01*
X15225931Y-18416599D01*
X15349646Y-18501130D01*
X15233401Y-18575931D01*
X15147777Y-18701246D01*
X15117654Y-18850000D01*
X15117654Y-18977752D01*
X13522703Y-20572703D01*
X13376381Y-20791688D01*
X13376381Y-20791689D01*
X13325000Y-21050000D01*
X450000Y-21050000D01*
X450000Y-5222687D01*
X1085720Y-5859517D01*
X2325726Y-6374413D01*
X3668384Y-6375584D01*
X4909286Y-5862854D01*
X5859517Y-4914280D01*
X6230508Y-4020834D01*
X6924632Y-4020834D01*
X7247462Y-4802143D01*
X7844713Y-5400437D01*
X8625457Y-5724630D01*
X9470834Y-5725368D01*
X10252143Y-5402538D01*
X10850437Y-4805287D01*
X11174630Y-4024543D01*
X11174633Y-4020834D01*
X38824632Y-4020834D01*
X39147462Y-4802143D01*
X39744713Y-5400437D01*
X40525457Y-5724630D01*
X41370834Y-5725368D01*
X42152143Y-5402538D01*
X42750437Y-4805287D01*
X43074630Y-4024543D01*
X43074633Y-4020834D01*
X46924632Y-4020834D01*
X47247462Y-4802143D01*
X47844713Y-5400437D01*
X48625457Y-5724630D01*
X49470834Y-5725368D01*
X50252143Y-5402538D01*
X50850437Y-4805287D01*
X51174630Y-4024543D01*
X51174633Y-4020834D01*
X78824632Y-4020834D01*
X79147462Y-4802143D01*
X79744713Y-5400437D01*
X80525457Y-5724630D01*
X81370834Y-5725368D01*
X82152143Y-5402538D01*
X82750437Y-4805287D01*
X83074630Y-4024543D01*
X83075368Y-3179166D01*
X82752538Y-2397857D01*
X82155287Y-1799563D01*
X81374543Y-1475370D01*
X80529166Y-1474632D01*
X79747857Y-1797462D01*
X79149563Y-2394713D01*
X78825370Y-3175457D01*
X78824632Y-4020834D01*
X51174633Y-4020834D01*
X51175368Y-3179166D01*
X50852538Y-2397857D01*
X50255287Y-1799563D01*
X49474543Y-1475370D01*
X48629166Y-1474632D01*
X47847857Y-1797462D01*
X47249563Y-2394713D01*
X46925370Y-3175457D01*
X46924632Y-4020834D01*
X43074633Y-4020834D01*
X43075368Y-3179166D01*
X42752538Y-2397857D01*
X42155287Y-1799563D01*
X41374543Y-1475370D01*
X40529166Y-1474632D01*
X39747857Y-1797462D01*
X39149563Y-2394713D01*
X38825370Y-3175457D01*
X38824632Y-4020834D01*
X11174633Y-4020834D01*
X11175368Y-3179166D01*
X10852538Y-2397857D01*
X10255287Y-1799563D01*
X9474543Y-1475370D01*
X8629166Y-1474632D01*
X7847857Y-1797462D01*
X7249563Y-2394713D01*
X6925370Y-3175457D01*
X6924632Y-4020834D01*
X6230508Y-4020834D01*
X6374413Y-3674274D01*
X6375584Y-2331616D01*
X5862854Y-1090714D01*
X5223257Y-450000D01*
X84777313Y-450000D01*
X84140483Y-1085720D01*
X84140483Y-1085720D01*
G37*
X84140483Y-1085720D02*
X83625587Y-2325726D01*
X83624416Y-3668384D01*
X84137146Y-4909286D01*
X85085720Y-5859517D01*
X86325726Y-6374413D01*
X87668384Y-6375584D01*
X88909286Y-5862854D01*
X89550000Y-5223257D01*
X89550000Y-84777313D01*
X88914280Y-84140483D01*
X87674274Y-83625587D01*
X86331616Y-83624416D01*
X85090714Y-84137146D01*
X84140483Y-85085720D01*
X83625587Y-86325726D01*
X83624416Y-87668384D01*
X84137146Y-88909286D01*
X84776743Y-89550000D01*
X5222687Y-89550000D01*
X5859517Y-88914280D01*
X6374413Y-87674274D01*
X6375157Y-86820834D01*
X6924632Y-86820834D01*
X7247462Y-87602143D01*
X7844713Y-88200437D01*
X8625457Y-88524630D01*
X9470834Y-88525368D01*
X10252143Y-88202538D01*
X10850437Y-87605287D01*
X11174630Y-86824543D01*
X11174633Y-86820834D01*
X38824632Y-86820834D01*
X39147462Y-87602143D01*
X39744713Y-88200437D01*
X40525457Y-88524630D01*
X41370834Y-88525368D01*
X42152143Y-88202538D01*
X42750437Y-87605287D01*
X43074630Y-86824543D01*
X43074633Y-86820834D01*
X46924632Y-86820834D01*
X47247462Y-87602143D01*
X47844713Y-88200437D01*
X48625457Y-88524630D01*
X49470834Y-88525368D01*
X50252143Y-88202538D01*
X50850437Y-87605287D01*
X51174630Y-86824543D01*
X51174633Y-86820834D01*
X78824632Y-86820834D01*
X79147462Y-87602143D01*
X79744713Y-88200437D01*
X80525457Y-88524630D01*
X81370834Y-88525368D01*
X82152143Y-88202538D01*
X82750437Y-87605287D01*
X83074630Y-86824543D01*
X83075368Y-85979166D01*
X82752538Y-85197857D01*
X82155287Y-84599563D01*
X81374543Y-84275370D01*
X80529166Y-84274632D01*
X79747857Y-84597462D01*
X79149563Y-85194713D01*
X78825370Y-85975457D01*
X78824632Y-86820834D01*
X51174633Y-86820834D01*
X51175368Y-85979166D01*
X50852538Y-85197857D01*
X50255287Y-84599563D01*
X49474543Y-84275370D01*
X48629166Y-84274632D01*
X47847857Y-84597462D01*
X47249563Y-85194713D01*
X46925370Y-85975457D01*
X46924632Y-86820834D01*
X43074633Y-86820834D01*
X43075368Y-85979166D01*
X42752538Y-85197857D01*
X42155287Y-84599563D01*
X41374543Y-84275370D01*
X40529166Y-84274632D01*
X39747857Y-84597462D01*
X39149563Y-85194713D01*
X38825370Y-85975457D01*
X38824632Y-86820834D01*
X11174633Y-86820834D01*
X11175368Y-85979166D01*
X10852538Y-85197857D01*
X10255287Y-84599563D01*
X9474543Y-84275370D01*
X8629166Y-84274632D01*
X7847857Y-84597462D01*
X7249563Y-85194713D01*
X6925370Y-85975457D01*
X6924632Y-86820834D01*
X6375157Y-86820834D01*
X6375584Y-86331616D01*
X5862854Y-85090714D01*
X4914280Y-84140483D01*
X3674274Y-83625587D01*
X2331616Y-83624416D01*
X1090714Y-84137146D01*
X450000Y-84776743D01*
X450000Y-54820834D01*
X6924632Y-54820834D01*
X7247462Y-55602143D01*
X7844713Y-56200437D01*
X8625457Y-56524630D01*
X9470834Y-56525368D01*
X10252143Y-56202538D01*
X10850437Y-55605287D01*
X11174630Y-54824543D01*
X11175368Y-53979166D01*
X10852538Y-53197857D01*
X10255287Y-52599563D01*
X9474543Y-52275370D01*
X8629166Y-52274632D01*
X7847857Y-52597462D01*
X7249563Y-53194713D01*
X6925370Y-53975457D01*
X6924632Y-54820834D01*
X450000Y-54820834D01*
X450000Y-36020834D01*
X6924632Y-36020834D01*
X7247462Y-36802143D01*
X7844713Y-37400437D01*
X8625457Y-37724630D01*
X9470834Y-37725368D01*
X10252143Y-37402538D01*
X10850437Y-36805287D01*
X11174630Y-36024543D01*
X11175368Y-35179166D01*
X10852538Y-34397857D01*
X10255287Y-33799563D01*
X9474543Y-33475370D01*
X8629166Y-33474632D01*
X7847857Y-33797462D01*
X7249563Y-34394713D01*
X6925370Y-35175457D01*
X6924632Y-36020834D01*
X450000Y-36020834D01*
X450000Y-21050000D01*
X13325000Y-21050000D01*
X13325000Y-57800000D01*
X13376381Y-58058312D01*
X13522703Y-58277297D01*
X20291202Y-65045796D01*
X20510187Y-65192118D01*
X20768499Y-65243499D01*
X69531501Y-65243499D01*
X69789813Y-65192118D01*
X70008798Y-65045796D01*
X76277297Y-58777297D01*
X76334744Y-58691322D01*
X76423619Y-58558311D01*
X76475000Y-58300000D01*
X76475000Y-54820834D01*
X78824632Y-54820834D01*
X79147462Y-55602143D01*
X79744713Y-56200437D01*
X80525457Y-56524630D01*
X81370834Y-56525368D01*
X82152143Y-56202538D01*
X82750437Y-55605287D01*
X83074630Y-54824543D01*
X83075368Y-53979166D01*
X82752538Y-53197857D01*
X82155287Y-52599563D01*
X81374543Y-52275370D01*
X80529166Y-52274632D01*
X79747857Y-52597462D01*
X79149563Y-53194713D01*
X78825370Y-53975457D01*
X78824632Y-54820834D01*
X76475000Y-54820834D01*
X76475000Y-49794500D01*
X85224000Y-49794500D01*
X85224000Y-50124791D01*
X85281243Y-50262987D01*
X85387013Y-50368757D01*
X85525209Y-50426000D01*
X85905500Y-50426000D01*
X85999500Y-50332000D01*
X85999500Y-49700500D01*
X86000500Y-49700500D01*
X86000500Y-50332000D01*
X86094500Y-50426000D01*
X86474791Y-50426000D01*
X86612987Y-50368757D01*
X86718757Y-50262987D01*
X86776000Y-50124791D01*
X86776000Y-49794500D01*
X87224000Y-49794500D01*
X87224000Y-50124791D01*
X87281243Y-50262987D01*
X87387013Y-50368757D01*
X87525209Y-50426000D01*
X87905500Y-50426000D01*
X87999500Y-50332000D01*
X87999500Y-49700500D01*
X88000500Y-49700500D01*
X88000500Y-50332000D01*
X88094500Y-50426000D01*
X88474791Y-50426000D01*
X88612987Y-50368757D01*
X88718757Y-50262987D01*
X88776000Y-50124791D01*
X88776000Y-49794500D01*
X88682000Y-49700500D01*
X88000500Y-49700500D01*
X87999500Y-49700500D01*
X87318000Y-49700500D01*
X87224000Y-49794500D01*
X86776000Y-49794500D01*
X86682000Y-49700500D01*
X86000500Y-49700500D01*
X85999500Y-49700500D01*
X85318000Y-49700500D01*
X85224000Y-49794500D01*
X76475000Y-49794500D01*
X76475000Y-37000000D01*
X76423619Y-36741689D01*
X76277297Y-36522703D01*
X75775428Y-36020834D01*
X78824632Y-36020834D01*
X79147462Y-36802143D01*
X79744713Y-37400437D01*
X80525457Y-37724630D01*
X81370834Y-37725368D01*
X82152143Y-37402538D01*
X82750437Y-36805287D01*
X83074630Y-36024543D01*
X83075368Y-35179166D01*
X82752538Y-34397857D01*
X82155287Y-33799563D01*
X81374543Y-33475370D01*
X80529166Y-33474632D01*
X79747857Y-33797462D01*
X79149563Y-34394713D01*
X78825370Y-35175457D01*
X78824632Y-36020834D01*
X75775428Y-36020834D01*
X72282346Y-32527752D01*
X72282346Y-32350000D01*
X72256198Y-32211034D01*
X72174069Y-32083401D01*
X72048754Y-31997777D01*
X72044840Y-31996984D01*
X72112987Y-31968757D01*
X72218757Y-31862987D01*
X72276000Y-31724791D01*
X72276000Y-31394500D01*
X72182000Y-31300500D01*
X71500500Y-31300500D01*
X71500500Y-31320500D01*
X71499500Y-31320500D01*
X71499500Y-31300500D01*
X70818000Y-31300500D01*
X70724000Y-31394500D01*
X70724000Y-31724791D01*
X70781243Y-31862987D01*
X70887013Y-31968757D01*
X70955725Y-31997218D01*
X70833401Y-32075931D01*
X70747777Y-32201246D01*
X70717654Y-32350000D01*
X70717654Y-32527752D01*
X70650406Y-32595000D01*
X69357346Y-32595000D01*
X69357346Y-32470000D01*
X69331198Y-32331034D01*
X69249069Y-32203401D01*
X69123754Y-32117777D01*
X68975000Y-32087654D01*
X67375000Y-32087654D01*
X67236034Y-32113802D01*
X67108401Y-32195931D01*
X67022777Y-32321246D01*
X66992654Y-32470000D01*
X66992654Y-34070000D01*
X67018802Y-34208966D01*
X67100931Y-34336599D01*
X67226246Y-34422223D01*
X67375000Y-34452346D01*
X68975000Y-34452346D01*
X69113966Y-34426198D01*
X69241599Y-34344069D01*
X69327223Y-34218754D01*
X69357346Y-34070000D01*
X69357346Y-33945000D01*
X70930000Y-33945000D01*
X71188312Y-33893619D01*
X71407297Y-33747297D01*
X71500000Y-33654594D01*
X75125000Y-37279594D01*
X75125000Y-54754999D01*
X63125001Y-54754999D01*
X62866689Y-54806380D01*
X62647704Y-54952702D01*
X62052752Y-55547654D01*
X61025000Y-55547654D01*
X60886034Y-55573802D01*
X60758401Y-55655931D01*
X60672777Y-55781246D01*
X60642654Y-55930000D01*
X60642654Y-56055000D01*
X59070000Y-56055000D01*
X58811688Y-56106381D01*
X58592703Y-56252703D01*
X58277752Y-56567654D01*
X58100000Y-56567654D01*
X57961034Y-56593802D01*
X57833401Y-56675931D01*
X57747777Y-56801246D01*
X57717654Y-56950000D01*
X57717654Y-57650000D01*
X57743802Y-57788966D01*
X57825931Y-57916599D01*
X57951246Y-58002223D01*
X57955160Y-58003016D01*
X57887013Y-58031243D01*
X57781243Y-58137013D01*
X57724000Y-58275209D01*
X57724000Y-58605500D01*
X57818000Y-58699500D01*
X58499500Y-58699500D01*
X58499500Y-58679500D01*
X58500500Y-58679500D01*
X58500500Y-58699500D01*
X59182000Y-58699500D01*
X59276000Y-58605500D01*
X59276000Y-58275209D01*
X59218757Y-58137013D01*
X59112987Y-58031243D01*
X59044275Y-58002782D01*
X59166599Y-57924069D01*
X59252223Y-57798754D01*
X59282346Y-57650000D01*
X59282346Y-57472248D01*
X59349594Y-57405000D01*
X60642654Y-57405000D01*
X60642654Y-57530000D01*
X60668802Y-57668966D01*
X60750931Y-57796599D01*
X60876246Y-57882223D01*
X61025000Y-57912346D01*
X62625000Y-57912346D01*
X62763966Y-57886198D01*
X62891599Y-57804069D01*
X62977223Y-57678754D01*
X63007346Y-57530000D01*
X63007346Y-56502248D01*
X63315083Y-56194511D01*
X63190204Y-56495253D01*
X63189796Y-56962697D01*
X63368302Y-57394715D01*
X63698547Y-57725536D01*
X63865000Y-57794653D01*
X63865000Y-58461135D01*
X63799373Y-58299663D01*
X63374424Y-58103973D01*
X62906935Y-58085801D01*
X62468078Y-58247913D01*
X62390627Y-58299663D01*
X62313973Y-58488266D01*
X63095000Y-59269293D01*
X63109143Y-59255151D01*
X63109850Y-59255858D01*
X63095707Y-59270000D01*
X63109850Y-59284143D01*
X63109143Y-59284850D01*
X63095000Y-59270707D01*
X63080858Y-59284850D01*
X63080151Y-59284143D01*
X63094293Y-59270000D01*
X62313266Y-58488973D01*
X62124663Y-58565627D01*
X61928973Y-58990576D01*
X61910801Y-59458065D01*
X62072203Y-59895001D01*
X58274927Y-59895001D01*
X57174426Y-58794500D01*
X57724000Y-58794500D01*
X57724000Y-59124791D01*
X57781243Y-59262987D01*
X57887013Y-59368757D01*
X58025209Y-59426000D01*
X58405500Y-59426000D01*
X58499500Y-59332000D01*
X58499500Y-58700500D01*
X58500500Y-58700500D01*
X58500500Y-59332000D01*
X58594500Y-59426000D01*
X58974791Y-59426000D01*
X59112987Y-59368757D01*
X59218757Y-59262987D01*
X59276000Y-59124791D01*
X59276000Y-58794500D01*
X59182000Y-58700500D01*
X58500500Y-58700500D01*
X58499500Y-58700500D01*
X57818000Y-58700500D01*
X57724000Y-58794500D01*
X57174426Y-58794500D01*
X56100000Y-57720074D01*
X56100000Y-53595687D01*
X56134766Y-53770468D01*
X56134766Y-53770473D01*
X56146997Y-53800000D01*
X56201958Y-53932690D01*
X56201963Y-53932695D01*
X56418730Y-54257111D01*
X56418731Y-54257114D01*
X56461618Y-54300000D01*
X56542886Y-54381268D01*
X56542889Y-54381269D01*
X56867307Y-54598039D01*
X56867310Y-54598042D01*
X56948418Y-54631637D01*
X57029527Y-54665234D01*
X57029532Y-54665234D01*
X57412210Y-54741353D01*
X57456529Y-54741353D01*
X57500000Y-54750000D01*
X72500000Y-54750000D01*
X72543471Y-54741353D01*
X72587790Y-54741353D01*
X72970468Y-54665234D01*
X72970473Y-54665234D01*
X73037665Y-54637402D01*
X73132690Y-54598042D01*
X73132695Y-54598037D01*
X73457111Y-54381270D01*
X73457114Y-54381269D01*
X73538382Y-54300000D01*
X73581268Y-54257114D01*
X73581269Y-54257111D01*
X73798039Y-53932693D01*
X73798042Y-53932690D01*
X73853003Y-53800000D01*
X73865234Y-53770473D01*
X73865234Y-53770468D01*
X73941353Y-53387790D01*
X73941353Y-53343471D01*
X73950000Y-53300000D01*
X73950000Y-36700000D01*
X73941353Y-36656529D01*
X73941353Y-36612210D01*
X73865234Y-36229532D01*
X73865234Y-36229527D01*
X73818104Y-36115746D01*
X73798042Y-36067310D01*
X73798039Y-36067307D01*
X73581268Y-35742887D01*
X73581268Y-35742886D01*
X73519191Y-35680809D01*
X73457114Y-35618731D01*
X73457111Y-35618730D01*
X73132695Y-35401963D01*
X73132690Y-35401958D01*
X73037665Y-35362598D01*
X72970473Y-35334766D01*
X72970468Y-35334766D01*
X72587790Y-35258647D01*
X72543471Y-35258647D01*
X72500000Y-35250000D01*
X57500000Y-35250000D01*
X57456529Y-35258647D01*
X57412210Y-35258647D01*
X57029532Y-35334766D01*
X56948418Y-35368363D01*
X56867310Y-35401958D01*
X56867307Y-35401961D01*
X56542889Y-35618731D01*
X56542886Y-35618732D01*
X56480809Y-35680809D01*
X56418731Y-35742886D01*
X56418731Y-35742887D01*
X56201963Y-36067305D01*
X56201958Y-36067310D01*
X56167591Y-36150281D01*
X56134766Y-36229527D01*
X56134766Y-36229532D01*
X56058647Y-36612210D01*
X56058647Y-36656529D01*
X56050000Y-36700000D01*
X56050000Y-52890789D01*
X56005680Y-52824460D01*
X55953554Y-52746447D01*
X50675311Y-47468205D01*
X55553553Y-42589963D01*
X55661940Y-42427752D01*
X55668167Y-42396447D01*
X55700000Y-42236410D01*
X55700000Y-36001104D01*
X59049894Y-32651211D01*
X59049762Y-32802305D01*
X59258652Y-33307857D01*
X59645108Y-33694989D01*
X60150296Y-33904761D01*
X60697305Y-33905238D01*
X61202857Y-33696348D01*
X61589989Y-33309892D01*
X61799761Y-32804704D01*
X61800238Y-32257695D01*
X61654446Y-31904852D01*
X62057697Y-31905204D01*
X62489715Y-31726698D01*
X62595000Y-31621596D01*
X62595000Y-32205243D01*
X62430285Y-32273302D01*
X62099464Y-32603547D01*
X61920204Y-33035253D01*
X61919796Y-33502697D01*
X62098302Y-33934715D01*
X62428547Y-34265536D01*
X62860253Y-34444796D01*
X63327697Y-34445204D01*
X63759715Y-34266698D01*
X64090536Y-33936453D01*
X64269796Y-33504747D01*
X64270204Y-33037303D01*
X64091698Y-32605285D01*
X63761453Y-32274464D01*
X63595000Y-32205347D01*
X63595000Y-31621808D01*
X63698547Y-31725536D01*
X64130253Y-31904796D01*
X64597697Y-31905204D01*
X65029715Y-31726698D01*
X65135000Y-31621596D01*
X65135000Y-32205243D01*
X64970285Y-32273302D01*
X64639464Y-32603547D01*
X64460204Y-33035253D01*
X64459796Y-33502697D01*
X64638302Y-33934715D01*
X64968547Y-34265536D01*
X65400253Y-34444796D01*
X65867697Y-34445204D01*
X66299715Y-34266698D01*
X66630536Y-33936453D01*
X66809796Y-33504747D01*
X66810204Y-33037303D01*
X66631698Y-32605285D01*
X66301453Y-32274464D01*
X66135000Y-32205347D01*
X66135000Y-31538865D01*
X66200627Y-31700337D01*
X66625576Y-31896027D01*
X67093065Y-31914199D01*
X67531922Y-31752087D01*
X67609373Y-31700337D01*
X67686027Y-31511734D01*
X66905000Y-30730707D01*
X66890858Y-30744850D01*
X66890151Y-30744143D01*
X66904293Y-30730000D01*
X66905707Y-30730000D01*
X67686734Y-31511027D01*
X67875337Y-31434373D01*
X68071027Y-31009424D01*
X68076244Y-30875209D01*
X70724000Y-30875209D01*
X70724000Y-31205500D01*
X70818000Y-31299500D01*
X71499500Y-31299500D01*
X71499500Y-30668000D01*
X71500500Y-30668000D01*
X71500500Y-31299500D01*
X72182000Y-31299500D01*
X72276000Y-31205500D01*
X72276000Y-30875209D01*
X72218757Y-30737013D01*
X72112987Y-30631243D01*
X71974791Y-30574000D01*
X71594500Y-30574000D01*
X71500500Y-30668000D01*
X71499500Y-30668000D01*
X71405500Y-30574000D01*
X71025209Y-30574000D01*
X70887013Y-30631243D01*
X70781243Y-30737013D01*
X70724000Y-30875209D01*
X68076244Y-30875209D01*
X68089199Y-30541935D01*
X67927087Y-30103078D01*
X67875337Y-30025627D01*
X67686734Y-29948973D01*
X66905707Y-30730000D01*
X66904293Y-30730000D01*
X66123266Y-29948973D01*
X66000260Y-29998966D01*
X65988553Y-29981445D01*
X65955374Y-29948266D01*
X66123973Y-29948266D01*
X66905000Y-30729293D01*
X67686027Y-29948266D01*
X67609373Y-29759663D01*
X67184424Y-29563973D01*
X66716935Y-29545801D01*
X66278078Y-29707913D01*
X66200627Y-29759663D01*
X66123973Y-29948266D01*
X65955374Y-29948266D01*
X64358534Y-28351426D01*
X64196323Y-28243039D01*
X64004981Y-28204979D01*
X60379789Y-28204979D01*
X60188447Y-28243039D01*
X60026235Y-28351426D01*
X53496420Y-34881242D01*
X53388033Y-35043453D01*
X53349973Y-35234795D01*
X53349972Y-41342921D01*
X49442894Y-45250000D01*
X47827205Y-45250000D01*
X47828412Y-45249500D01*
X48032000Y-45249500D01*
X48126000Y-45155500D01*
X48126000Y-45050209D01*
X48105203Y-45000000D01*
X48126000Y-44949791D01*
X48126000Y-44844500D01*
X48032000Y-44750500D01*
X47828412Y-44750500D01*
X47825998Y-44749500D01*
X48032000Y-44749500D01*
X48126000Y-44655500D01*
X48126000Y-44550209D01*
X48106432Y-44502968D01*
X48132346Y-44375000D01*
X48132346Y-44125000D01*
X48107694Y-43993985D01*
X48126000Y-43949791D01*
X48126000Y-43844500D01*
X48032000Y-43750500D01*
X47788745Y-43750500D01*
X47787608Y-43750270D01*
X47789041Y-43750000D01*
X48000000Y-43750000D01*
X48002514Y-43749500D01*
X48032000Y-43749500D01*
X48039321Y-43742179D01*
X48191342Y-43711940D01*
X48353553Y-43603553D01*
X49553553Y-42403554D01*
X49661940Y-42241342D01*
X49674679Y-42177297D01*
X49700000Y-42050000D01*
X49700000Y-40100000D01*
X49661940Y-39908658D01*
X49598534Y-39813765D01*
X49553553Y-39746446D01*
X46800000Y-36992894D01*
X46800000Y-36020834D01*
X46924632Y-36020834D01*
X47247462Y-36802143D01*
X47844713Y-37400437D01*
X48625457Y-37724630D01*
X49470834Y-37725368D01*
X50252143Y-37402538D01*
X50850437Y-36805287D01*
X51174630Y-36024543D01*
X51175368Y-35179166D01*
X50852538Y-34397857D01*
X50255287Y-33799563D01*
X49474543Y-33475370D01*
X48629166Y-33474632D01*
X47847857Y-33797462D01*
X47249563Y-34394713D01*
X46925370Y-35175457D01*
X46924632Y-36020834D01*
X46800000Y-36020834D01*
X46800000Y-33157106D01*
X52706553Y-27250553D01*
X52765145Y-27274883D01*
X53033677Y-27275117D01*
X53281857Y-27172571D01*
X53354555Y-27100000D01*
X78856484Y-27100000D01*
X84660201Y-32903717D01*
X84660201Y-40260201D01*
X84678770Y-40353554D01*
X84698261Y-40451543D01*
X84806648Y-40613754D01*
X85999972Y-41807079D01*
X85999883Y-41908677D01*
X86102429Y-42156857D01*
X86292144Y-42346903D01*
X86540145Y-42449883D01*
X86808677Y-42450117D01*
X87056857Y-42347571D01*
X87246903Y-42157856D01*
X87349883Y-41909855D01*
X87350117Y-41641323D01*
X87247571Y-41393143D01*
X87057856Y-41203097D01*
X86809855Y-41100117D01*
X86707134Y-41100027D01*
X86632223Y-41025116D01*
X86633677Y-41025117D01*
X86881857Y-40922571D01*
X87071903Y-40732856D01*
X87174883Y-40484855D01*
X87175117Y-40216323D01*
X87072571Y-39968143D01*
X86882856Y-39778097D01*
X86634855Y-39675117D01*
X86532134Y-39675027D01*
X86110212Y-39253106D01*
X86110212Y-32510212D01*
X86072152Y-32318870D01*
X86041704Y-32273302D01*
X85963765Y-32156658D01*
X79353544Y-25546438D01*
X79191333Y-25438051D01*
X79191328Y-25438050D01*
X78999991Y-25399991D01*
X74436401Y-25399991D01*
X54106312Y-25399990D01*
X54174883Y-25234855D01*
X54175117Y-24966323D01*
X54072571Y-24718143D01*
X53882856Y-24528097D01*
X53663610Y-24437057D01*
X53663610Y-22113610D01*
X53625550Y-21922268D01*
X53582136Y-21857296D01*
X53517164Y-21760057D01*
X53053555Y-21296449D01*
X53053553Y-21296446D01*
X50603553Y-18846447D01*
X50441342Y-18738060D01*
X50358170Y-18721516D01*
X50356198Y-18711034D01*
X50274069Y-18583401D01*
X50148754Y-18497777D01*
X50000000Y-18467654D01*
X49524761Y-18467654D01*
X48675000Y-17617894D01*
X48675000Y-17334757D01*
X48839715Y-17266698D01*
X49170536Y-16936453D01*
X49187791Y-16894898D01*
X50111446Y-17818553D01*
X50257796Y-17916341D01*
X50273658Y-17926940D01*
X50465000Y-17965000D01*
X78923998Y-17965000D01*
X87272071Y-26313074D01*
X87272071Y-38104761D01*
X87121347Y-38167039D01*
X86931301Y-38356754D01*
X86828321Y-38604755D01*
X86828087Y-38873287D01*
X86930633Y-39121467D01*
X87120348Y-39311513D01*
X87368349Y-39414493D01*
X87636881Y-39414727D01*
X87722081Y-39379523D01*
X87722081Y-46323325D01*
X87720406Y-46325000D01*
X86500589Y-46325000D01*
X86366323Y-46324883D01*
X86118143Y-46427429D01*
X85928097Y-46617144D01*
X85927980Y-46617426D01*
X85522703Y-47022703D01*
X85376381Y-47241688D01*
X85353166Y-47358401D01*
X85325000Y-47500000D01*
X85325000Y-47688226D01*
X85247777Y-47801246D01*
X85217654Y-47950000D01*
X85217654Y-48650000D01*
X85243802Y-48788966D01*
X85325931Y-48916599D01*
X85451246Y-49002223D01*
X85455160Y-49003016D01*
X85387013Y-49031243D01*
X85281243Y-49137013D01*
X85224000Y-49275209D01*
X85224000Y-49605500D01*
X85318000Y-49699500D01*
X85999500Y-49699500D01*
X85999500Y-49679500D01*
X86000500Y-49679500D01*
X86000500Y-49699500D01*
X86682000Y-49699500D01*
X86776000Y-49605500D01*
X86776000Y-49275209D01*
X86718757Y-49137013D01*
X86612987Y-49031243D01*
X86544275Y-49002782D01*
X86666599Y-48924069D01*
X86752223Y-48798754D01*
X86782346Y-48650000D01*
X86782346Y-47950000D01*
X86756198Y-47811034D01*
X86712096Y-47742498D01*
X86779594Y-47675000D01*
X87325000Y-47675000D01*
X87325000Y-47688226D01*
X87247777Y-47801246D01*
X87217654Y-47950000D01*
X87217654Y-48650000D01*
X87243802Y-48788966D01*
X87325931Y-48916599D01*
X87451246Y-49002223D01*
X87455160Y-49003016D01*
X87387013Y-49031243D01*
X87281243Y-49137013D01*
X87224000Y-49275209D01*
X87224000Y-49605500D01*
X87318000Y-49699500D01*
X87999500Y-49699500D01*
X87999500Y-49679500D01*
X88000500Y-49679500D01*
X88000500Y-49699500D01*
X88682000Y-49699500D01*
X88776000Y-49605500D01*
X88776000Y-49275209D01*
X88718757Y-49137013D01*
X88612987Y-49031243D01*
X88544275Y-49002782D01*
X88666599Y-48924069D01*
X88752223Y-48798754D01*
X88782346Y-48650000D01*
X88782346Y-47950000D01*
X88756198Y-47811034D01*
X88675000Y-47684848D01*
X88675000Y-47279594D01*
X88874378Y-47080216D01*
X89020700Y-46861231D01*
X89072081Y-46602919D01*
X89072081Y-25847081D01*
X89020700Y-25588770D01*
X88874378Y-25369784D01*
X77327297Y-13822703D01*
X77108312Y-13676381D01*
X76850000Y-13625000D01*
X53675000Y-13625000D01*
X53675000Y-13300589D01*
X53675117Y-13166323D01*
X53572571Y-12918143D01*
X53382856Y-12728097D01*
X53134855Y-12625117D01*
X52866323Y-12624883D01*
X52618143Y-12727429D01*
X52428097Y-12917144D01*
X52325117Y-13165145D01*
X52324883Y-13433677D01*
X52325000Y-13433960D01*
X52325000Y-13688226D01*
X52247777Y-13801246D01*
X52217654Y-13950000D01*
X52217654Y-14650000D01*
X52243802Y-14788966D01*
X52325931Y-14916599D01*
X52451246Y-15002223D01*
X52455160Y-15003016D01*
X52387013Y-15031243D01*
X52281243Y-15137013D01*
X52224000Y-15275209D01*
X52224000Y-15605500D01*
X52318000Y-15699500D01*
X52999500Y-15699500D01*
X52999500Y-15679500D01*
X53000500Y-15679500D01*
X53000500Y-15699500D01*
X53682000Y-15699500D01*
X53776000Y-15605500D01*
X53776000Y-15275209D01*
X53718757Y-15137013D01*
X53612987Y-15031243D01*
X53544275Y-15002782D01*
X53587449Y-14975000D01*
X76570406Y-14975000D01*
X78560406Y-16965000D01*
X50672107Y-16965000D01*
X50611904Y-16904797D01*
X51117305Y-16905238D01*
X51622857Y-16696348D01*
X52009989Y-16309892D01*
X52219761Y-15804704D01*
X52219769Y-15794500D01*
X52224000Y-15794500D01*
X52224000Y-16124791D01*
X52281243Y-16262987D01*
X52387013Y-16368757D01*
X52525209Y-16426000D01*
X52905500Y-16426000D01*
X52999500Y-16332000D01*
X52999500Y-15700500D01*
X53000500Y-15700500D01*
X53000500Y-16332000D01*
X53094500Y-16426000D01*
X53474791Y-16426000D01*
X53612987Y-16368757D01*
X53718757Y-16262987D01*
X53776000Y-16124791D01*
X53776000Y-15794500D01*
X53682000Y-15700500D01*
X53000500Y-15700500D01*
X52999500Y-15700500D01*
X52318000Y-15700500D01*
X52224000Y-15794500D01*
X52219769Y-15794500D01*
X52220238Y-15257695D01*
X52011348Y-14752143D01*
X51624892Y-14365011D01*
X51119704Y-14155239D01*
X50572695Y-14154762D01*
X50534309Y-14170623D01*
X50619796Y-13964747D01*
X50620204Y-13497303D01*
X50441698Y-13065285D01*
X50111453Y-12734464D01*
X49679747Y-12555204D01*
X49212303Y-12554796D01*
X49045729Y-12623623D01*
X48673552Y-12251446D01*
X48511341Y-12143059D01*
X48319999Y-12104999D01*
X43535001Y-12104999D01*
X43343659Y-12143059D01*
X43181448Y-12251446D01*
X42596448Y-12836446D01*
X42595169Y-12838361D01*
X42491453Y-12734464D01*
X42059747Y-12555204D01*
X41592303Y-12554796D01*
X41160285Y-12733302D01*
X40905684Y-12987460D01*
X40790927Y-12872703D01*
X40571942Y-12726381D01*
X40313630Y-12675000D01*
X26500000Y-12675000D01*
X26241688Y-12726381D01*
X26022703Y-12872703D01*
X25327752Y-13567654D01*
X25100000Y-13567654D01*
X24961034Y-13593802D01*
X24912551Y-13625000D01*
X24488596Y-13625000D01*
X24448754Y-13597777D01*
X24300000Y-13567654D01*
X24119741Y-13567654D01*
X23908312Y-13426381D01*
X23650000Y-13375000D01*
X22000000Y-13375000D01*
X21785563Y-13417654D01*
X21500000Y-13417654D01*
X21361034Y-13443802D01*
X21233401Y-13525931D01*
X21147777Y-13651246D01*
X21117654Y-13800000D01*
X21117654Y-14300000D01*
X21143802Y-14438966D01*
X21196850Y-14521406D01*
X21181243Y-14537013D01*
X21124000Y-14675209D01*
X21124000Y-14905500D01*
X21218000Y-14999500D01*
X21999500Y-14999500D01*
X21999500Y-14979500D01*
X22000500Y-14979500D01*
X22000500Y-14999500D01*
X22782000Y-14999500D01*
X22876000Y-14905500D01*
X22876000Y-14725000D01*
X23131766Y-14725000D01*
X23143802Y-14788966D01*
X23225931Y-14916599D01*
X23351246Y-15002223D01*
X23355160Y-15003016D01*
X23287013Y-15031243D01*
X23181243Y-15137013D01*
X23124000Y-15275209D01*
X23124000Y-15605500D01*
X23217998Y-15699498D01*
X23206604Y-15699498D01*
X23103553Y-15596447D01*
X22941342Y-15488060D01*
X22818182Y-15463562D01*
X22818757Y-15462987D01*
X22876000Y-15324791D01*
X22876000Y-15094500D01*
X22782000Y-15000500D01*
X22000500Y-15000500D01*
X22000500Y-15020500D01*
X21999500Y-15020500D01*
X21999500Y-15000500D01*
X21218000Y-15000500D01*
X21124000Y-15094500D01*
X21124000Y-15324791D01*
X21181243Y-15462987D01*
X21197187Y-15478931D01*
X21147777Y-15551246D01*
X21117654Y-15700000D01*
X21117654Y-16200000D01*
X21143802Y-16338966D01*
X21225931Y-16466599D01*
X21351246Y-16552223D01*
X21500000Y-16582346D01*
X22500000Y-16582346D01*
X22638966Y-16556198D01*
X22645127Y-16552234D01*
X22821447Y-16728554D01*
X22928375Y-16800001D01*
X22983659Y-16836941D01*
X23175001Y-16875001D01*
X26374999Y-16875001D01*
X26566341Y-16836941D01*
X26728552Y-16728554D01*
X27024760Y-16432346D01*
X27500000Y-16432346D01*
X27638966Y-16406198D01*
X27766599Y-16324069D01*
X27852223Y-16198754D01*
X27856250Y-16178866D01*
X27941342Y-16161940D01*
X28103553Y-16053553D01*
X28512107Y-15644999D01*
X39372654Y-15644999D01*
X39372654Y-17070000D01*
X39398802Y-17208966D01*
X39480931Y-17336599D01*
X39606246Y-17422223D01*
X39755000Y-17452346D01*
X40081325Y-17452346D01*
X40093060Y-17511342D01*
X40201447Y-17673553D01*
X43481446Y-20953553D01*
X43513544Y-20975000D01*
X43643658Y-21061940D01*
X43835000Y-21100000D01*
X44317654Y-21100000D01*
X44317654Y-22050000D01*
X44343802Y-22188966D01*
X44425931Y-22316599D01*
X44500000Y-22367208D01*
X44500000Y-22392893D01*
X44375239Y-22517654D01*
X43950000Y-22517654D01*
X43811034Y-22543802D01*
X43683401Y-22625931D01*
X43598870Y-22749646D01*
X43524069Y-22633401D01*
X43398754Y-22547777D01*
X43250000Y-22517654D01*
X42550000Y-22517654D01*
X42411034Y-22543802D01*
X42283401Y-22625931D01*
X42197777Y-22751246D01*
X42167654Y-22900000D01*
X42167654Y-23700000D01*
X42193802Y-23838966D01*
X42225000Y-23887449D01*
X42225000Y-24311404D01*
X42197777Y-24351246D01*
X42167654Y-24500000D01*
X42167654Y-25300000D01*
X42193802Y-25438966D01*
X42225000Y-25487449D01*
X42225000Y-25825000D01*
X40800000Y-25825000D01*
X40541688Y-25876381D01*
X40322703Y-26022703D01*
X38000000Y-28345406D01*
X29477297Y-19822703D01*
X29258312Y-19676381D01*
X29000000Y-19625000D01*
X23067158Y-19625000D01*
X23082346Y-19550000D01*
X23082346Y-18850000D01*
X23056198Y-18711034D01*
X22974069Y-18583401D01*
X22848754Y-18497777D01*
X22844840Y-18496984D01*
X22912987Y-18468757D01*
X23018757Y-18362987D01*
X23076000Y-18224791D01*
X23076000Y-17894500D01*
X22982000Y-17800500D01*
X22300500Y-17800500D01*
X22300500Y-17820500D01*
X22299500Y-17820500D01*
X22299500Y-17800500D01*
X21618000Y-17800500D01*
X21524000Y-17894500D01*
X21524000Y-17916894D01*
X21482346Y-17875240D01*
X21482346Y-17450000D01*
X21468274Y-17375209D01*
X21524000Y-17375209D01*
X21524000Y-17705500D01*
X21618000Y-17799500D01*
X22299500Y-17799500D01*
X22299500Y-17168000D01*
X22300500Y-17168000D01*
X22300500Y-17799500D01*
X22982000Y-17799500D01*
X23076000Y-17705500D01*
X23076000Y-17375209D01*
X23018757Y-17237013D01*
X22912987Y-17131243D01*
X22774791Y-17074000D01*
X22394500Y-17074000D01*
X22300500Y-17168000D01*
X22299500Y-17168000D01*
X22205500Y-17074000D01*
X21825209Y-17074000D01*
X21687013Y-17131243D01*
X21581243Y-17237013D01*
X21524000Y-17375209D01*
X21468274Y-17375209D01*
X21456198Y-17311034D01*
X21374069Y-17183401D01*
X21248754Y-17097777D01*
X21100000Y-17067654D01*
X20674761Y-17067654D01*
X20114622Y-16507515D01*
X20166599Y-16474069D01*
X20252223Y-16348754D01*
X20282346Y-16200000D01*
X20282346Y-15700000D01*
X20256198Y-15561034D01*
X20174069Y-15433401D01*
X20048754Y-15347777D01*
X19900000Y-15317654D01*
X18900000Y-15317654D01*
X18761034Y-15343802D01*
X18633401Y-15425931D01*
X18547777Y-15551246D01*
X18517654Y-15700000D01*
X18517654Y-16200000D01*
X18543802Y-16338966D01*
X18625931Y-16466599D01*
X18751246Y-16552223D01*
X18900000Y-16582346D01*
X18916380Y-16582346D01*
X18938060Y-16691342D01*
X19046447Y-16853553D01*
X19266894Y-17074000D01*
X19194500Y-17074000D01*
X19100500Y-17168000D01*
X19100500Y-17799500D01*
X19782000Y-17799500D01*
X19876000Y-17705500D01*
X19876000Y-17683107D01*
X19917654Y-17724761D01*
X19917654Y-17975001D01*
X19876000Y-17975001D01*
X19876000Y-17894500D01*
X19782000Y-17800500D01*
X19100500Y-17800500D01*
X19100500Y-17820500D01*
X19099500Y-17820500D01*
X19099500Y-17800500D01*
X18418000Y-17800500D01*
X18324000Y-17894500D01*
X18324000Y-17975001D01*
X18276000Y-17975001D01*
X18276000Y-17894500D01*
X18182000Y-17800500D01*
X17500500Y-17800500D01*
X17500500Y-17820500D01*
X17499500Y-17820500D01*
X17499500Y-17800500D01*
X16818000Y-17800500D01*
X16737803Y-17880697D01*
X16682346Y-17825239D01*
X16682346Y-17450000D01*
X16668274Y-17375209D01*
X16724000Y-17375209D01*
X16724000Y-17705500D01*
X16818000Y-17799500D01*
X17499500Y-17799500D01*
X17499500Y-17168000D01*
X17500500Y-17168000D01*
X17500500Y-17799500D01*
X18182000Y-17799500D01*
X18276000Y-17705500D01*
X18276000Y-17375209D01*
X18324000Y-17375209D01*
X18324000Y-17705500D01*
X18418000Y-17799500D01*
X19099500Y-17799500D01*
X19099500Y-17168000D01*
X19005500Y-17074000D01*
X18625209Y-17074000D01*
X18487013Y-17131243D01*
X18381243Y-17237013D01*
X18324000Y-17375209D01*
X18276000Y-17375209D01*
X18218757Y-17237013D01*
X18112987Y-17131243D01*
X17974791Y-17074000D01*
X17594500Y-17074000D01*
X17500500Y-17168000D01*
X17499500Y-17168000D01*
X17405500Y-17074000D01*
X17025209Y-17074000D01*
X16887013Y-17131243D01*
X16781243Y-17237013D01*
X16724000Y-17375209D01*
X16668274Y-17375209D01*
X16656198Y-17311034D01*
X16574069Y-17183401D01*
X16448754Y-17097777D01*
X16300000Y-17067654D01*
X16072248Y-17067654D01*
X15575000Y-16570406D01*
X15575000Y-16426000D01*
X15805500Y-16426000D01*
X15899500Y-16332000D01*
X15899500Y-15700500D01*
X15900500Y-15700500D01*
X15900500Y-16332000D01*
X15994500Y-16426000D01*
X16374791Y-16426000D01*
X16512987Y-16368757D01*
X16618757Y-16262987D01*
X16676000Y-16124791D01*
X16676000Y-15794500D01*
X16724000Y-15794500D01*
X16724000Y-16124791D01*
X16781243Y-16262987D01*
X16887013Y-16368757D01*
X17025209Y-16426000D01*
X17405500Y-16426000D01*
X17499500Y-16332000D01*
X17499500Y-15700500D01*
X17500500Y-15700500D01*
X17500500Y-16332000D01*
X17594500Y-16426000D01*
X17974791Y-16426000D01*
X18112987Y-16368757D01*
X18218757Y-16262987D01*
X18276000Y-16124791D01*
X18276000Y-15794500D01*
X18182000Y-15700500D01*
X17500500Y-15700500D01*
X17499500Y-15700500D01*
X16818000Y-15700500D01*
X16724000Y-15794500D01*
X16676000Y-15794500D01*
X16582000Y-15700500D01*
X15900500Y-15700500D01*
X15899500Y-15700500D01*
X15879500Y-15700500D01*
X15879500Y-15699500D01*
X15899500Y-15699500D01*
X15899500Y-15679500D01*
X15900500Y-15679500D01*
X15900500Y-15699500D01*
X16582000Y-15699500D01*
X16676000Y-15605500D01*
X16676000Y-15275209D01*
X16618757Y-15137013D01*
X16512987Y-15031243D01*
X16444275Y-15002782D01*
X16487449Y-14975000D01*
X16911404Y-14975000D01*
X16951246Y-15002223D01*
X16955160Y-15003016D01*
X16887013Y-15031243D01*
X16781243Y-15137013D01*
X16724000Y-15275209D01*
X16724000Y-15605500D01*
X16818000Y-15699500D01*
X17499500Y-15699500D01*
X17499500Y-15679500D01*
X17500500Y-15679500D01*
X17500500Y-15699500D01*
X18182000Y-15699500D01*
X18276000Y-15605500D01*
X18276000Y-15275209D01*
X18218757Y-15137013D01*
X18112987Y-15031243D01*
X18044275Y-15002782D01*
X18166599Y-14924069D01*
X18252223Y-14798754D01*
X18267158Y-14725000D01*
X19400000Y-14725000D01*
X19614437Y-14682346D01*
X19900000Y-14682346D01*
X20038966Y-14656198D01*
X20166599Y-14574069D01*
X20252223Y-14448754D01*
X20282346Y-14300000D01*
X20282346Y-13800000D01*
X20256198Y-13661034D01*
X20174069Y-13533401D01*
X20048754Y-13447777D01*
X19900000Y-13417654D01*
X19614437Y-13417654D01*
X19400000Y-13375000D01*
X17750000Y-13375000D01*
X17491689Y-13426381D01*
X17280259Y-13567654D01*
X17100000Y-13567654D01*
X16961034Y-13593802D01*
X16912551Y-13625000D01*
X16488596Y-13625000D01*
X16448754Y-13597777D01*
X16300000Y-13567654D01*
X15500000Y-13567654D01*
X15361034Y-13593802D01*
X15233401Y-13675931D01*
X15147777Y-13801246D01*
X15136000Y-13859404D01*
X14422703Y-14572701D01*
X14276381Y-14791686D01*
X14250138Y-14923618D01*
X14225000Y-15049998D01*
X14225000Y-16850000D01*
X14276381Y-17108312D01*
X14422703Y-17327297D01*
X15117654Y-18022248D01*
X15117654Y-18150000D01*
X15143802Y-18288966D01*
X15225931Y-18416599D01*
X15349646Y-18501130D01*
X15233401Y-18575931D01*
X15147777Y-18701246D01*
X15117654Y-18850000D01*
X15117654Y-18977752D01*
X13522703Y-20572703D01*
X13376381Y-20791688D01*
X13376381Y-20791689D01*
X13325000Y-21050000D01*
X450000Y-21050000D01*
X450000Y-5222687D01*
X1085720Y-5859517D01*
X2325726Y-6374413D01*
X3668384Y-6375584D01*
X4909286Y-5862854D01*
X5859517Y-4914280D01*
X6230508Y-4020834D01*
X6924632Y-4020834D01*
X7247462Y-4802143D01*
X7844713Y-5400437D01*
X8625457Y-5724630D01*
X9470834Y-5725368D01*
X10252143Y-5402538D01*
X10850437Y-4805287D01*
X11174630Y-4024543D01*
X11174633Y-4020834D01*
X38824632Y-4020834D01*
X39147462Y-4802143D01*
X39744713Y-5400437D01*
X40525457Y-5724630D01*
X41370834Y-5725368D01*
X42152143Y-5402538D01*
X42750437Y-4805287D01*
X43074630Y-4024543D01*
X43074633Y-4020834D01*
X46924632Y-4020834D01*
X47247462Y-4802143D01*
X47844713Y-5400437D01*
X48625457Y-5724630D01*
X49470834Y-5725368D01*
X50252143Y-5402538D01*
X50850437Y-4805287D01*
X51174630Y-4024543D01*
X51174633Y-4020834D01*
X78824632Y-4020834D01*
X79147462Y-4802143D01*
X79744713Y-5400437D01*
X80525457Y-5724630D01*
X81370834Y-5725368D01*
X82152143Y-5402538D01*
X82750437Y-4805287D01*
X83074630Y-4024543D01*
X83075368Y-3179166D01*
X82752538Y-2397857D01*
X82155287Y-1799563D01*
X81374543Y-1475370D01*
X80529166Y-1474632D01*
X79747857Y-1797462D01*
X79149563Y-2394713D01*
X78825370Y-3175457D01*
X78824632Y-4020834D01*
X51174633Y-4020834D01*
X51175368Y-3179166D01*
X50852538Y-2397857D01*
X50255287Y-1799563D01*
X49474543Y-1475370D01*
X48629166Y-1474632D01*
X47847857Y-1797462D01*
X47249563Y-2394713D01*
X46925370Y-3175457D01*
X46924632Y-4020834D01*
X43074633Y-4020834D01*
X43075368Y-3179166D01*
X42752538Y-2397857D01*
X42155287Y-1799563D01*
X41374543Y-1475370D01*
X40529166Y-1474632D01*
X39747857Y-1797462D01*
X39149563Y-2394713D01*
X38825370Y-3175457D01*
X38824632Y-4020834D01*
X11174633Y-4020834D01*
X11175368Y-3179166D01*
X10852538Y-2397857D01*
X10255287Y-1799563D01*
X9474543Y-1475370D01*
X8629166Y-1474632D01*
X7847857Y-1797462D01*
X7249563Y-2394713D01*
X6925370Y-3175457D01*
X6924632Y-4020834D01*
X6230508Y-4020834D01*
X6374413Y-3674274D01*
X6375584Y-2331616D01*
X5862854Y-1090714D01*
X5223257Y-450000D01*
X84777313Y-450000D01*
X84140483Y-1085720D01*
G36*
X33825000Y-34979594D02*
X33825000Y-35299411D01*
X33824883Y-35433677D01*
X33927429Y-35681857D01*
X34117144Y-35871903D01*
X34365145Y-35974883D01*
X34633677Y-35975117D01*
X34749970Y-35927066D01*
X34749970Y-46459200D01*
X34783219Y-46626353D01*
X34788030Y-46650542D01*
X34896417Y-46812753D01*
X36637217Y-48553553D01*
X36799428Y-48661940D01*
X36990770Y-48700000D01*
X41550000Y-48700000D01*
X41741342Y-48661940D01*
X41903553Y-48553553D01*
X42207106Y-48250000D01*
X42213724Y-48250000D01*
X42250000Y-48257346D01*
X42950000Y-48257346D01*
X42992654Y-48249320D01*
X42992654Y-48750000D01*
X43000000Y-48789041D01*
X43000000Y-48792894D01*
X42846450Y-48946444D01*
X42846447Y-48946446D01*
X42818894Y-48974000D01*
X42679295Y-49113599D01*
X39392403Y-49113599D01*
X39227264Y-49146447D01*
X39201061Y-49151659D01*
X39038849Y-49260046D01*
X30950106Y-57348790D01*
X30950238Y-57197695D01*
X30741348Y-56692143D01*
X30354892Y-56305011D01*
X29849704Y-56095239D01*
X29302695Y-56094762D01*
X28797143Y-56303652D01*
X28410011Y-56690108D01*
X28200239Y-57195296D01*
X28199762Y-57742305D01*
X28345554Y-58095148D01*
X27942303Y-58094796D01*
X27510285Y-58273302D01*
X27405000Y-58378404D01*
X27405000Y-57794757D01*
X27569715Y-57726698D01*
X27900536Y-57396453D01*
X28079796Y-56964747D01*
X28080204Y-56497303D01*
X27901698Y-56065285D01*
X27571453Y-55734464D01*
X27139747Y-55555204D01*
X26672303Y-55554796D01*
X26240285Y-55733302D01*
X25909464Y-56063547D01*
X25730204Y-56495253D01*
X25729796Y-56962697D01*
X25908302Y-57394715D01*
X26238547Y-57725536D01*
X26405000Y-57794653D01*
X26405000Y-58378192D01*
X26301453Y-58274464D01*
X25869747Y-58095204D01*
X25402303Y-58094796D01*
X24970285Y-58273302D01*
X24865000Y-58378404D01*
X24865000Y-57794757D01*
X25029715Y-57726698D01*
X25360536Y-57396453D01*
X25539796Y-56964747D01*
X25540204Y-56497303D01*
X25361698Y-56065285D01*
X25031453Y-55734464D01*
X24599747Y-55555204D01*
X24132303Y-55554796D01*
X23700285Y-55733302D01*
X23369464Y-56063547D01*
X23190204Y-56495253D01*
X23189796Y-56962697D01*
X23368302Y-57394715D01*
X23698547Y-57725536D01*
X23865000Y-57794653D01*
X23865000Y-58461135D01*
X23799373Y-58299663D01*
X23374424Y-58103973D01*
X22906935Y-58085801D01*
X22468078Y-58247913D01*
X22390627Y-58299663D01*
X22313973Y-58488266D01*
X23095000Y-59269293D01*
X23109143Y-59255151D01*
X23109850Y-59255858D01*
X23095707Y-59270000D01*
X23876734Y-60051027D01*
X23999740Y-60001034D01*
X24011447Y-60018555D01*
X25641466Y-61648574D01*
X25803677Y-61756961D01*
X25995019Y-61795021D01*
X29620211Y-61795021D01*
X29811553Y-61756961D01*
X29973764Y-61648574D01*
X36801504Y-54820834D01*
X38824632Y-54820834D01*
X39147462Y-55602143D01*
X39744713Y-56200437D01*
X40525457Y-56524630D01*
X41370834Y-56525368D01*
X42152143Y-56202538D01*
X42750437Y-55605287D01*
X43074630Y-54824543D01*
X43074633Y-54820834D01*
X46924632Y-54820834D01*
X47247462Y-55602143D01*
X47844713Y-56200437D01*
X48625457Y-56524630D01*
X49470834Y-56525368D01*
X50252143Y-56202538D01*
X50850437Y-55605287D01*
X51174630Y-54824543D01*
X51175368Y-53979166D01*
X50852538Y-53197857D01*
X50255287Y-52599563D01*
X49474543Y-52275370D01*
X48629166Y-52274632D01*
X47847857Y-52597462D01*
X47249563Y-53194713D01*
X46925370Y-53975457D01*
X46924632Y-54820834D01*
X43074633Y-54820834D01*
X43075368Y-53979166D01*
X42752538Y-53197857D01*
X42155287Y-52599563D01*
X41374543Y-52275370D01*
X40529166Y-52274632D01*
X39747857Y-52597462D01*
X39149563Y-53194713D01*
X38825370Y-53975457D01*
X38824632Y-54820834D01*
X36801504Y-54820834D01*
X40158710Y-51463629D01*
X43445601Y-51463629D01*
X43636943Y-51425569D01*
X43799154Y-51317182D01*
X45092904Y-50023432D01*
X45146447Y-50103563D01*
X45996455Y-50953572D01*
X46158667Y-51061959D01*
X46350009Y-51100019D01*
X50983683Y-51100019D01*
X53749970Y-53866307D01*
X53749970Y-58499980D01*
X53788030Y-58691322D01*
X53896417Y-58853533D01*
X57141467Y-62098584D01*
X57238706Y-62163556D01*
X57303678Y-62206970D01*
X57495020Y-62245030D01*
X65699970Y-62245030D01*
X65891312Y-62206970D01*
X66053523Y-62098583D01*
X67775656Y-60376450D01*
X67940253Y-60444796D01*
X68407697Y-60445204D01*
X68839715Y-60266698D01*
X69170536Y-59936453D01*
X69349796Y-59504747D01*
X69350204Y-59037303D01*
X69264507Y-58829900D01*
X69300296Y-58844761D01*
X69847305Y-58845238D01*
X70352857Y-58636348D01*
X70739989Y-58249892D01*
X70949761Y-57744704D01*
X70950238Y-57197695D01*
X70741348Y-56692143D01*
X70354892Y-56305011D01*
X69873209Y-56104999D01*
X75125000Y-56104999D01*
X75125000Y-58020406D01*
X69251907Y-63893499D01*
X21048093Y-63893499D01*
X17206328Y-60051734D01*
X22313973Y-60051734D01*
X22390627Y-60240337D01*
X22815576Y-60436027D01*
X23283065Y-60454199D01*
X23721922Y-60292087D01*
X23799373Y-60240337D01*
X23876027Y-60051734D01*
X23095000Y-59270707D01*
X22313973Y-60051734D01*
X17206328Y-60051734D01*
X16612659Y-59458065D01*
X21910801Y-59458065D01*
X22072913Y-59896922D01*
X22124663Y-59974373D01*
X22313266Y-60051027D01*
X23094293Y-59270000D01*
X22313266Y-58488973D01*
X22124663Y-58565627D01*
X21928973Y-58990576D01*
X21910801Y-59458065D01*
X16612659Y-59458065D01*
X16454594Y-59300000D01*
X16960094Y-58794500D01*
X17724000Y-58794500D01*
X17724000Y-59124791D01*
X17781243Y-59262987D01*
X17887013Y-59368757D01*
X18025209Y-59426000D01*
X18405500Y-59426000D01*
X18499500Y-59332000D01*
X18499500Y-58700500D01*
X18500500Y-58700500D01*
X18500500Y-59332000D01*
X18594500Y-59426000D01*
X18974791Y-59426000D01*
X19112987Y-59368757D01*
X19218757Y-59262987D01*
X19276000Y-59124791D01*
X19276000Y-58794500D01*
X19182000Y-58700500D01*
X18500500Y-58700500D01*
X18499500Y-58700500D01*
X17818000Y-58700500D01*
X17724000Y-58794500D01*
X16960094Y-58794500D01*
X17779594Y-57975000D01*
X17911404Y-57975000D01*
X17951246Y-58002223D01*
X17955160Y-58003016D01*
X17887013Y-58031243D01*
X17781243Y-58137013D01*
X17724000Y-58275209D01*
X17724000Y-58605500D01*
X17818000Y-58699500D01*
X18499500Y-58699500D01*
X18499500Y-58679500D01*
X18500500Y-58679500D01*
X18500500Y-58699500D01*
X19182000Y-58699500D01*
X19276000Y-58605500D01*
X19276000Y-58275209D01*
X19218757Y-58137013D01*
X19112987Y-58031243D01*
X19044275Y-58002782D01*
X19087449Y-57975000D01*
X21255000Y-57975000D01*
X21513312Y-57923619D01*
X21530183Y-57912346D01*
X22625000Y-57912346D01*
X22763966Y-57886198D01*
X22891599Y-57804069D01*
X22977223Y-57678754D01*
X23007346Y-57530000D01*
X23007346Y-55930000D01*
X22981198Y-55791034D01*
X22899069Y-55663401D01*
X22773754Y-55577777D01*
X22625000Y-55547654D01*
X21025000Y-55547654D01*
X20886034Y-55573802D01*
X20758401Y-55655931D01*
X20672777Y-55781246D01*
X20642654Y-55930000D01*
X20642654Y-56625000D01*
X19088596Y-56625000D01*
X19048754Y-56597777D01*
X18900000Y-56567654D01*
X18100000Y-56567654D01*
X17961034Y-56593802D01*
X17912551Y-56625000D01*
X17500000Y-56625000D01*
X17241688Y-56676381D01*
X17022703Y-56822703D01*
X15500000Y-58345406D01*
X14675000Y-57520406D01*
X14675000Y-36700000D01*
X16050000Y-36700000D01*
X16050000Y-53300000D01*
X16058647Y-53343471D01*
X16058647Y-53387790D01*
X16134766Y-53770468D01*
X16134766Y-53770473D01*
X16146997Y-53800000D01*
X16201958Y-53932690D01*
X16201963Y-53932695D01*
X16418730Y-54257111D01*
X16418731Y-54257114D01*
X16461618Y-54300000D01*
X16542886Y-54381268D01*
X16542889Y-54381269D01*
X16867307Y-54598039D01*
X16867310Y-54598042D01*
X16948418Y-54631637D01*
X17029527Y-54665234D01*
X17029532Y-54665234D01*
X17412210Y-54741353D01*
X17456529Y-54741353D01*
X17500000Y-54750000D01*
X32500000Y-54750000D01*
X32543471Y-54741353D01*
X32587790Y-54741353D01*
X32970468Y-54665234D01*
X32970473Y-54665234D01*
X33037665Y-54637402D01*
X33132690Y-54598042D01*
X33132695Y-54598037D01*
X33457111Y-54381270D01*
X33457114Y-54381269D01*
X33538382Y-54300000D01*
X33581268Y-54257114D01*
X33581269Y-54257111D01*
X33798039Y-53932693D01*
X33798042Y-53932690D01*
X33853003Y-53800000D01*
X33865234Y-53770473D01*
X33865234Y-53770468D01*
X33941353Y-53387790D01*
X33941353Y-53343471D01*
X33950000Y-53300000D01*
X33950000Y-36700000D01*
X33941353Y-36656529D01*
X33941353Y-36612210D01*
X33865234Y-36229532D01*
X33865234Y-36229527D01*
X33818104Y-36115746D01*
X33798042Y-36067310D01*
X33798039Y-36067307D01*
X33581268Y-35742887D01*
X33581268Y-35742886D01*
X33519191Y-35680809D01*
X33457114Y-35618731D01*
X33457111Y-35618730D01*
X33132695Y-35401963D01*
X33132690Y-35401958D01*
X33037665Y-35362598D01*
X32970473Y-35334766D01*
X32970468Y-35334766D01*
X32587790Y-35258647D01*
X32543471Y-35258647D01*
X32500000Y-35250000D01*
X17500000Y-35250000D01*
X17456529Y-35258647D01*
X17412210Y-35258647D01*
X17029532Y-35334766D01*
X16948418Y-35368363D01*
X16867310Y-35401958D01*
X16867307Y-35401961D01*
X16542889Y-35618731D01*
X16542886Y-35618732D01*
X16480809Y-35680809D01*
X16418731Y-35742886D01*
X16418731Y-35742887D01*
X16201963Y-36067305D01*
X16201958Y-36067310D01*
X16167591Y-36150281D01*
X16134766Y-36229527D01*
X16134766Y-36229532D01*
X16058647Y-36612210D01*
X16058647Y-36656529D01*
X16050000Y-36700000D01*
X14675000Y-36700000D01*
X14675000Y-35245001D01*
X26874999Y-35245001D01*
X27133311Y-35193620D01*
X27352296Y-35047298D01*
X27947248Y-34452346D01*
X28975000Y-34452346D01*
X29113966Y-34426198D01*
X29241599Y-34344069D01*
X29327223Y-34218754D01*
X29357346Y-34070000D01*
X29357346Y-33945000D01*
X30930000Y-33945000D01*
X31188312Y-33893619D01*
X31407297Y-33747297D01*
X31722248Y-33432346D01*
X31900000Y-33432346D01*
X32038966Y-33406198D01*
X32087449Y-33375000D01*
X32220406Y-33375000D01*
X33825000Y-34979594D01*
X33825000Y-34979594D01*
G37*
X33825000Y-34979594D02*
X33825000Y-35299411D01*
X33824883Y-35433677D01*
X33927429Y-35681857D01*
X34117144Y-35871903D01*
X34365145Y-35974883D01*
X34633677Y-35975117D01*
X34749970Y-35927066D01*
X34749970Y-46459200D01*
X34783219Y-46626353D01*
X34788030Y-46650542D01*
X34896417Y-46812753D01*
X36637217Y-48553553D01*
X36799428Y-48661940D01*
X36990770Y-48700000D01*
X41550000Y-48700000D01*
X41741342Y-48661940D01*
X41903553Y-48553553D01*
X42207106Y-48250000D01*
X42213724Y-48250000D01*
X42250000Y-48257346D01*
X42950000Y-48257346D01*
X42992654Y-48249320D01*
X42992654Y-48750000D01*
X43000000Y-48789041D01*
X43000000Y-48792894D01*
X42846450Y-48946444D01*
X42846447Y-48946446D01*
X42818894Y-48974000D01*
X42679295Y-49113599D01*
X39392403Y-49113599D01*
X39227264Y-49146447D01*
X39201061Y-49151659D01*
X39038849Y-49260046D01*
X30950106Y-57348790D01*
X30950238Y-57197695D01*
X30741348Y-56692143D01*
X30354892Y-56305011D01*
X29849704Y-56095239D01*
X29302695Y-56094762D01*
X28797143Y-56303652D01*
X28410011Y-56690108D01*
X28200239Y-57195296D01*
X28199762Y-57742305D01*
X28345554Y-58095148D01*
X27942303Y-58094796D01*
X27510285Y-58273302D01*
X27405000Y-58378404D01*
X27405000Y-57794757D01*
X27569715Y-57726698D01*
X27900536Y-57396453D01*
X28079796Y-56964747D01*
X28080204Y-56497303D01*
X27901698Y-56065285D01*
X27571453Y-55734464D01*
X27139747Y-55555204D01*
X26672303Y-55554796D01*
X26240285Y-55733302D01*
X25909464Y-56063547D01*
X25730204Y-56495253D01*
X25729796Y-56962697D01*
X25908302Y-57394715D01*
X26238547Y-57725536D01*
X26405000Y-57794653D01*
X26405000Y-58378192D01*
X26301453Y-58274464D01*
X25869747Y-58095204D01*
X25402303Y-58094796D01*
X24970285Y-58273302D01*
X24865000Y-58378404D01*
X24865000Y-57794757D01*
X25029715Y-57726698D01*
X25360536Y-57396453D01*
X25539796Y-56964747D01*
X25540204Y-56497303D01*
X25361698Y-56065285D01*
X25031453Y-55734464D01*
X24599747Y-55555204D01*
X24132303Y-55554796D01*
X23700285Y-55733302D01*
X23369464Y-56063547D01*
X23190204Y-56495253D01*
X23189796Y-56962697D01*
X23368302Y-57394715D01*
X23698547Y-57725536D01*
X23865000Y-57794653D01*
X23865000Y-58461135D01*
X23799373Y-58299663D01*
X23374424Y-58103973D01*
X22906935Y-58085801D01*
X22468078Y-58247913D01*
X22390627Y-58299663D01*
X22313973Y-58488266D01*
X23095000Y-59269293D01*
X23109143Y-59255151D01*
X23109850Y-59255858D01*
X23095707Y-59270000D01*
X23876734Y-60051027D01*
X23999740Y-60001034D01*
X24011447Y-60018555D01*
X25641466Y-61648574D01*
X25803677Y-61756961D01*
X25995019Y-61795021D01*
X29620211Y-61795021D01*
X29811553Y-61756961D01*
X29973764Y-61648574D01*
X36801504Y-54820834D01*
X38824632Y-54820834D01*
X39147462Y-55602143D01*
X39744713Y-56200437D01*
X40525457Y-56524630D01*
X41370834Y-56525368D01*
X42152143Y-56202538D01*
X42750437Y-55605287D01*
X43074630Y-54824543D01*
X43074633Y-54820834D01*
X46924632Y-54820834D01*
X47247462Y-55602143D01*
X47844713Y-56200437D01*
X48625457Y-56524630D01*
X49470834Y-56525368D01*
X50252143Y-56202538D01*
X50850437Y-55605287D01*
X51174630Y-54824543D01*
X51175368Y-53979166D01*
X50852538Y-53197857D01*
X50255287Y-52599563D01*
X49474543Y-52275370D01*
X48629166Y-52274632D01*
X47847857Y-52597462D01*
X47249563Y-53194713D01*
X46925370Y-53975457D01*
X46924632Y-54820834D01*
X43074633Y-54820834D01*
X43075368Y-53979166D01*
X42752538Y-53197857D01*
X42155287Y-52599563D01*
X41374543Y-52275370D01*
X40529166Y-52274632D01*
X39747857Y-52597462D01*
X39149563Y-53194713D01*
X38825370Y-53975457D01*
X38824632Y-54820834D01*
X36801504Y-54820834D01*
X40158710Y-51463629D01*
X43445601Y-51463629D01*
X43636943Y-51425569D01*
X43799154Y-51317182D01*
X45092904Y-50023432D01*
X45146447Y-50103563D01*
X45996455Y-50953572D01*
X46158667Y-51061959D01*
X46350009Y-51100019D01*
X50983683Y-51100019D01*
X53749970Y-53866307D01*
X53749970Y-58499980D01*
X53788030Y-58691322D01*
X53896417Y-58853533D01*
X57141467Y-62098584D01*
X57238706Y-62163556D01*
X57303678Y-62206970D01*
X57495020Y-62245030D01*
X65699970Y-62245030D01*
X65891312Y-62206970D01*
X66053523Y-62098583D01*
X67775656Y-60376450D01*
X67940253Y-60444796D01*
X68407697Y-60445204D01*
X68839715Y-60266698D01*
X69170536Y-59936453D01*
X69349796Y-59504747D01*
X69350204Y-59037303D01*
X69264507Y-58829900D01*
X69300296Y-58844761D01*
X69847305Y-58845238D01*
X70352857Y-58636348D01*
X70739989Y-58249892D01*
X70949761Y-57744704D01*
X70950238Y-57197695D01*
X70741348Y-56692143D01*
X70354892Y-56305011D01*
X69873209Y-56104999D01*
X75125000Y-56104999D01*
X75125000Y-58020406D01*
X69251907Y-63893499D01*
X21048093Y-63893499D01*
X17206328Y-60051734D01*
X22313973Y-60051734D01*
X22390627Y-60240337D01*
X22815576Y-60436027D01*
X23283065Y-60454199D01*
X23721922Y-60292087D01*
X23799373Y-60240337D01*
X23876027Y-60051734D01*
X23095000Y-59270707D01*
X22313973Y-60051734D01*
X17206328Y-60051734D01*
X16612659Y-59458065D01*
X21910801Y-59458065D01*
X22072913Y-59896922D01*
X22124663Y-59974373D01*
X22313266Y-60051027D01*
X23094293Y-59270000D01*
X22313266Y-58488973D01*
X22124663Y-58565627D01*
X21928973Y-58990576D01*
X21910801Y-59458065D01*
X16612659Y-59458065D01*
X16454594Y-59300000D01*
X16960094Y-58794500D01*
X17724000Y-58794500D01*
X17724000Y-59124791D01*
X17781243Y-59262987D01*
X17887013Y-59368757D01*
X18025209Y-59426000D01*
X18405500Y-59426000D01*
X18499500Y-59332000D01*
X18499500Y-58700500D01*
X18500500Y-58700500D01*
X18500500Y-59332000D01*
X18594500Y-59426000D01*
X18974791Y-59426000D01*
X19112987Y-59368757D01*
X19218757Y-59262987D01*
X19276000Y-59124791D01*
X19276000Y-58794500D01*
X19182000Y-58700500D01*
X18500500Y-58700500D01*
X18499500Y-58700500D01*
X17818000Y-58700500D01*
X17724000Y-58794500D01*
X16960094Y-58794500D01*
X17779594Y-57975000D01*
X17911404Y-57975000D01*
X17951246Y-58002223D01*
X17955160Y-58003016D01*
X17887013Y-58031243D01*
X17781243Y-58137013D01*
X17724000Y-58275209D01*
X17724000Y-58605500D01*
X17818000Y-58699500D01*
X18499500Y-58699500D01*
X18499500Y-58679500D01*
X18500500Y-58679500D01*
X18500500Y-58699500D01*
X19182000Y-58699500D01*
X19276000Y-58605500D01*
X19276000Y-58275209D01*
X19218757Y-58137013D01*
X19112987Y-58031243D01*
X19044275Y-58002782D01*
X19087449Y-57975000D01*
X21255000Y-57975000D01*
X21513312Y-57923619D01*
X21530183Y-57912346D01*
X22625000Y-57912346D01*
X22763966Y-57886198D01*
X22891599Y-57804069D01*
X22977223Y-57678754D01*
X23007346Y-57530000D01*
X23007346Y-55930000D01*
X22981198Y-55791034D01*
X22899069Y-55663401D01*
X22773754Y-55577777D01*
X22625000Y-55547654D01*
X21025000Y-55547654D01*
X20886034Y-55573802D01*
X20758401Y-55655931D01*
X20672777Y-55781246D01*
X20642654Y-55930000D01*
X20642654Y-56625000D01*
X19088596Y-56625000D01*
X19048754Y-56597777D01*
X18900000Y-56567654D01*
X18100000Y-56567654D01*
X17961034Y-56593802D01*
X17912551Y-56625000D01*
X17500000Y-56625000D01*
X17241688Y-56676381D01*
X17022703Y-56822703D01*
X15500000Y-58345406D01*
X14675000Y-57520406D01*
X14675000Y-36700000D01*
X16050000Y-36700000D01*
X16050000Y-53300000D01*
X16058647Y-53343471D01*
X16058647Y-53387790D01*
X16134766Y-53770468D01*
X16134766Y-53770473D01*
X16146997Y-53800000D01*
X16201958Y-53932690D01*
X16201963Y-53932695D01*
X16418730Y-54257111D01*
X16418731Y-54257114D01*
X16461618Y-54300000D01*
X16542886Y-54381268D01*
X16542889Y-54381269D01*
X16867307Y-54598039D01*
X16867310Y-54598042D01*
X16948418Y-54631637D01*
X17029527Y-54665234D01*
X17029532Y-54665234D01*
X17412210Y-54741353D01*
X17456529Y-54741353D01*
X17500000Y-54750000D01*
X32500000Y-54750000D01*
X32543471Y-54741353D01*
X32587790Y-54741353D01*
X32970468Y-54665234D01*
X32970473Y-54665234D01*
X33037665Y-54637402D01*
X33132690Y-54598042D01*
X33132695Y-54598037D01*
X33457111Y-54381270D01*
X33457114Y-54381269D01*
X33538382Y-54300000D01*
X33581268Y-54257114D01*
X33581269Y-54257111D01*
X33798039Y-53932693D01*
X33798042Y-53932690D01*
X33853003Y-53800000D01*
X33865234Y-53770473D01*
X33865234Y-53770468D01*
X33941353Y-53387790D01*
X33941353Y-53343471D01*
X33950000Y-53300000D01*
X33950000Y-36700000D01*
X33941353Y-36656529D01*
X33941353Y-36612210D01*
X33865234Y-36229532D01*
X33865234Y-36229527D01*
X33818104Y-36115746D01*
X33798042Y-36067310D01*
X33798039Y-36067307D01*
X33581268Y-35742887D01*
X33581268Y-35742886D01*
X33519191Y-35680809D01*
X33457114Y-35618731D01*
X33457111Y-35618730D01*
X33132695Y-35401963D01*
X33132690Y-35401958D01*
X33037665Y-35362598D01*
X32970473Y-35334766D01*
X32970468Y-35334766D01*
X32587790Y-35258647D01*
X32543471Y-35258647D01*
X32500000Y-35250000D01*
X17500000Y-35250000D01*
X17456529Y-35258647D01*
X17412210Y-35258647D01*
X17029532Y-35334766D01*
X16948418Y-35368363D01*
X16867310Y-35401958D01*
X16867307Y-35401961D01*
X16542889Y-35618731D01*
X16542886Y-35618732D01*
X16480809Y-35680809D01*
X16418731Y-35742886D01*
X16418731Y-35742887D01*
X16201963Y-36067305D01*
X16201958Y-36067310D01*
X16167591Y-36150281D01*
X16134766Y-36229527D01*
X16134766Y-36229532D01*
X16058647Y-36612210D01*
X16058647Y-36656529D01*
X16050000Y-36700000D01*
X14675000Y-36700000D01*
X14675000Y-35245001D01*
X26874999Y-35245001D01*
X27133311Y-35193620D01*
X27352296Y-35047298D01*
X27947248Y-34452346D01*
X28975000Y-34452346D01*
X29113966Y-34426198D01*
X29241599Y-34344069D01*
X29327223Y-34218754D01*
X29357346Y-34070000D01*
X29357346Y-33945000D01*
X30930000Y-33945000D01*
X31188312Y-33893619D01*
X31407297Y-33747297D01*
X31722248Y-33432346D01*
X31900000Y-33432346D01*
X32038966Y-33406198D01*
X32087449Y-33375000D01*
X32220406Y-33375000D01*
X33825000Y-34979594D01*
G36*
X19917654Y-19174760D02*
X19917654Y-19550000D01*
X19943802Y-19688966D01*
X20025931Y-19816599D01*
X20151246Y-19902223D01*
X20300000Y-19932346D01*
X20527752Y-19932346D01*
X21372703Y-20777297D01*
X21591688Y-20923619D01*
X21850000Y-20975000D01*
X28720406Y-20975000D01*
X37325000Y-29579594D01*
X37325000Y-45400000D01*
X37376381Y-45658312D01*
X37522703Y-45877297D01*
X37922703Y-46277297D01*
X38031466Y-46349970D01*
X37757077Y-46349970D01*
X37100000Y-45692894D01*
X37099999Y-32890769D01*
X37061939Y-32699427D01*
X37060057Y-32696611D01*
X36953552Y-32537215D01*
X32317752Y-27901416D01*
X32155541Y-27793029D01*
X31964199Y-27754969D01*
X24300031Y-27754969D01*
X24108689Y-27793029D01*
X23946477Y-27901416D01*
X22224343Y-29623550D01*
X22059747Y-29555204D01*
X21592303Y-29554796D01*
X21160285Y-29733302D01*
X20829464Y-30063547D01*
X20650204Y-30495253D01*
X20649796Y-30962697D01*
X20735493Y-31170100D01*
X20699704Y-31155239D01*
X20152695Y-31154762D01*
X19647143Y-31363652D01*
X19260011Y-31750108D01*
X19050239Y-32255296D01*
X19049762Y-32802305D01*
X19258652Y-33307857D01*
X19645108Y-33694989D01*
X20126791Y-33895001D01*
X14675000Y-33895001D01*
X14675000Y-21329594D01*
X16072248Y-19932346D01*
X16300000Y-19932346D01*
X16438966Y-19906198D01*
X16487449Y-19875000D01*
X16911404Y-19875000D01*
X16951246Y-19902223D01*
X17100000Y-19932346D01*
X17900000Y-19932346D01*
X18038966Y-19906198D01*
X18087449Y-19875000D01*
X18511404Y-19875000D01*
X18551246Y-19902223D01*
X18700000Y-19932346D01*
X19500000Y-19932346D01*
X19638966Y-19906198D01*
X19766599Y-19824069D01*
X19852223Y-19698754D01*
X19882346Y-19550000D01*
X19882346Y-19139452D01*
X19917654Y-19174760D01*
X19917654Y-19174760D01*
G37*
X19917654Y-19174760D02*
X19917654Y-19550000D01*
X19943802Y-19688966D01*
X20025931Y-19816599D01*
X20151246Y-19902223D01*
X20300000Y-19932346D01*
X20527752Y-19932346D01*
X21372703Y-20777297D01*
X21591688Y-20923619D01*
X21850000Y-20975000D01*
X28720406Y-20975000D01*
X37325000Y-29579594D01*
X37325000Y-45400000D01*
X37376381Y-45658312D01*
X37522703Y-45877297D01*
X37922703Y-46277297D01*
X38031466Y-46349970D01*
X37757077Y-46349970D01*
X37100000Y-45692894D01*
X37099999Y-32890769D01*
X37061939Y-32699427D01*
X37060057Y-32696611D01*
X36953552Y-32537215D01*
X32317752Y-27901416D01*
X32155541Y-27793029D01*
X31964199Y-27754969D01*
X24300031Y-27754969D01*
X24108689Y-27793029D01*
X23946477Y-27901416D01*
X22224343Y-29623550D01*
X22059747Y-29555204D01*
X21592303Y-29554796D01*
X21160285Y-29733302D01*
X20829464Y-30063547D01*
X20650204Y-30495253D01*
X20649796Y-30962697D01*
X20735493Y-31170100D01*
X20699704Y-31155239D01*
X20152695Y-31154762D01*
X19647143Y-31363652D01*
X19260011Y-31750108D01*
X19050239Y-32255296D01*
X19049762Y-32802305D01*
X19258652Y-33307857D01*
X19645108Y-33694989D01*
X20126791Y-33895001D01*
X14675000Y-33895001D01*
X14675000Y-21329594D01*
X16072248Y-19932346D01*
X16300000Y-19932346D01*
X16438966Y-19906198D01*
X16487449Y-19875000D01*
X16911404Y-19875000D01*
X16951246Y-19902223D01*
X17100000Y-19932346D01*
X17900000Y-19932346D01*
X18038966Y-19906198D01*
X18087449Y-19875000D01*
X18511404Y-19875000D01*
X18551246Y-19902223D01*
X18700000Y-19932346D01*
X19500000Y-19932346D01*
X19638966Y-19906198D01*
X19766599Y-19824069D01*
X19852223Y-19698754D01*
X19882346Y-19550000D01*
X19882346Y-19139452D01*
X19917654Y-19174760D01*
G36*
X40525000Y-40579594D02*
X40525000Y-41111404D01*
X40497777Y-41151246D01*
X40496984Y-41155160D01*
X40468757Y-41087013D01*
X40362987Y-40981243D01*
X40224791Y-40924000D01*
X39894500Y-40924000D01*
X39800500Y-41018000D01*
X39800500Y-41699500D01*
X39820500Y-41699500D01*
X39820500Y-41700500D01*
X39800500Y-41700500D01*
X39800500Y-42382000D01*
X39894500Y-42476000D01*
X40224791Y-42476000D01*
X40362987Y-42418757D01*
X40468757Y-42312987D01*
X40497218Y-42244275D01*
X40575931Y-42366599D01*
X40701246Y-42452223D01*
X40850000Y-42482346D01*
X41225239Y-42482346D01*
X41260547Y-42517654D01*
X40850000Y-42517654D01*
X40711034Y-42543802D01*
X40583401Y-42625931D01*
X40497777Y-42751246D01*
X40496984Y-42755160D01*
X40468757Y-42687013D01*
X40362987Y-42581243D01*
X40224791Y-42524000D01*
X39894500Y-42524000D01*
X39800500Y-42618000D01*
X39800500Y-43299500D01*
X39820500Y-43299500D01*
X39820500Y-43300500D01*
X39800500Y-43300500D01*
X39800500Y-43982000D01*
X39894500Y-44076000D01*
X40224791Y-44076000D01*
X40362987Y-44018757D01*
X40468757Y-43912987D01*
X40497218Y-43844275D01*
X40525000Y-43887449D01*
X40525000Y-44311404D01*
X40497777Y-44351246D01*
X40496984Y-44355160D01*
X40468757Y-44287013D01*
X40362987Y-44181243D01*
X40224791Y-44124000D01*
X39894500Y-44124000D01*
X39800500Y-44218000D01*
X39800500Y-44899500D01*
X39820500Y-44899500D01*
X39820500Y-44900500D01*
X39800500Y-44900500D01*
X39800500Y-44920500D01*
X39799500Y-44920500D01*
X39799500Y-44900500D01*
X39168000Y-44900500D01*
X39074000Y-44994500D01*
X39074000Y-45125000D01*
X38679594Y-45125000D01*
X38675000Y-45120406D01*
X38675000Y-44425209D01*
X39074000Y-44425209D01*
X39074000Y-44805500D01*
X39168000Y-44899500D01*
X39799500Y-44899500D01*
X39799500Y-44218000D01*
X39705500Y-44124000D01*
X39375209Y-44124000D01*
X39237013Y-44181243D01*
X39131243Y-44287013D01*
X39074000Y-44425209D01*
X38675000Y-44425209D01*
X38675000Y-43394500D01*
X39074000Y-43394500D01*
X39074000Y-43774791D01*
X39131243Y-43912987D01*
X39237013Y-44018757D01*
X39375209Y-44076000D01*
X39705500Y-44076000D01*
X39799500Y-43982000D01*
X39799500Y-43300500D01*
X39168000Y-43300500D01*
X39074000Y-43394500D01*
X38675000Y-43394500D01*
X38675000Y-42825209D01*
X39074000Y-42825209D01*
X39074000Y-43205500D01*
X39168000Y-43299500D01*
X39799500Y-43299500D01*
X39799500Y-42618000D01*
X39705500Y-42524000D01*
X39375209Y-42524000D01*
X39237013Y-42581243D01*
X39131243Y-42687013D01*
X39074000Y-42825209D01*
X38675000Y-42825209D01*
X38675000Y-41794500D01*
X39074000Y-41794500D01*
X39074000Y-42174791D01*
X39131243Y-42312987D01*
X39237013Y-42418757D01*
X39375209Y-42476000D01*
X39705500Y-42476000D01*
X39799500Y-42382000D01*
X39799500Y-41700500D01*
X39168000Y-41700500D01*
X39074000Y-41794500D01*
X38675000Y-41794500D01*
X38675000Y-41225209D01*
X39074000Y-41225209D01*
X39074000Y-41605500D01*
X39168000Y-41699500D01*
X39799500Y-41699500D01*
X39799500Y-41018000D01*
X39705500Y-40924000D01*
X39375209Y-40924000D01*
X39237013Y-40981243D01*
X39131243Y-41087013D01*
X39074000Y-41225209D01*
X38675000Y-41225209D01*
X38675000Y-38729594D01*
X40525000Y-40579594D01*
X40525000Y-40579594D01*
G37*
X40525000Y-40579594D02*
X40525000Y-41111404D01*
X40497777Y-41151246D01*
X40496984Y-41155160D01*
X40468757Y-41087013D01*
X40362987Y-40981243D01*
X40224791Y-40924000D01*
X39894500Y-40924000D01*
X39800500Y-41018000D01*
X39800500Y-41699500D01*
X39820500Y-41699500D01*
X39820500Y-41700500D01*
X39800500Y-41700500D01*
X39800500Y-42382000D01*
X39894500Y-42476000D01*
X40224791Y-42476000D01*
X40362987Y-42418757D01*
X40468757Y-42312987D01*
X40497218Y-42244275D01*
X40575931Y-42366599D01*
X40701246Y-42452223D01*
X40850000Y-42482346D01*
X41225239Y-42482346D01*
X41260547Y-42517654D01*
X40850000Y-42517654D01*
X40711034Y-42543802D01*
X40583401Y-42625931D01*
X40497777Y-42751246D01*
X40496984Y-42755160D01*
X40468757Y-42687013D01*
X40362987Y-42581243D01*
X40224791Y-42524000D01*
X39894500Y-42524000D01*
X39800500Y-42618000D01*
X39800500Y-43299500D01*
X39820500Y-43299500D01*
X39820500Y-43300500D01*
X39800500Y-43300500D01*
X39800500Y-43982000D01*
X39894500Y-44076000D01*
X40224791Y-44076000D01*
X40362987Y-44018757D01*
X40468757Y-43912987D01*
X40497218Y-43844275D01*
X40525000Y-43887449D01*
X40525000Y-44311404D01*
X40497777Y-44351246D01*
X40496984Y-44355160D01*
X40468757Y-44287013D01*
X40362987Y-44181243D01*
X40224791Y-44124000D01*
X39894500Y-44124000D01*
X39800500Y-44218000D01*
X39800500Y-44899500D01*
X39820500Y-44899500D01*
X39820500Y-44900500D01*
X39800500Y-44900500D01*
X39800500Y-44920500D01*
X39799500Y-44920500D01*
X39799500Y-44900500D01*
X39168000Y-44900500D01*
X39074000Y-44994500D01*
X39074000Y-45125000D01*
X38679594Y-45125000D01*
X38675000Y-45120406D01*
X38675000Y-44425209D01*
X39074000Y-44425209D01*
X39074000Y-44805500D01*
X39168000Y-44899500D01*
X39799500Y-44899500D01*
X39799500Y-44218000D01*
X39705500Y-44124000D01*
X39375209Y-44124000D01*
X39237013Y-44181243D01*
X39131243Y-44287013D01*
X39074000Y-44425209D01*
X38675000Y-44425209D01*
X38675000Y-43394500D01*
X39074000Y-43394500D01*
X39074000Y-43774791D01*
X39131243Y-43912987D01*
X39237013Y-44018757D01*
X39375209Y-44076000D01*
X39705500Y-44076000D01*
X39799500Y-43982000D01*
X39799500Y-43300500D01*
X39168000Y-43300500D01*
X39074000Y-43394500D01*
X38675000Y-43394500D01*
X38675000Y-42825209D01*
X39074000Y-42825209D01*
X39074000Y-43205500D01*
X39168000Y-43299500D01*
X39799500Y-43299500D01*
X39799500Y-42618000D01*
X39705500Y-42524000D01*
X39375209Y-42524000D01*
X39237013Y-42581243D01*
X39131243Y-42687013D01*
X39074000Y-42825209D01*
X38675000Y-42825209D01*
X38675000Y-41794500D01*
X39074000Y-41794500D01*
X39074000Y-42174791D01*
X39131243Y-42312987D01*
X39237013Y-42418757D01*
X39375209Y-42476000D01*
X39705500Y-42476000D01*
X39799500Y-42382000D01*
X39799500Y-41700500D01*
X39168000Y-41700500D01*
X39074000Y-41794500D01*
X38675000Y-41794500D01*
X38675000Y-41225209D01*
X39074000Y-41225209D01*
X39074000Y-41605500D01*
X39168000Y-41699500D01*
X39799500Y-41699500D01*
X39799500Y-41018000D01*
X39705500Y-40924000D01*
X39375209Y-40924000D01*
X39237013Y-40981243D01*
X39131243Y-41087013D01*
X39074000Y-41225209D01*
X38675000Y-41225209D01*
X38675000Y-38729594D01*
X40525000Y-40579594D01*
G36*
X45000500Y-44999500D02*
X45020500Y-44999500D01*
X45020500Y-45000500D01*
X45000500Y-45000500D01*
X45000500Y-45020500D01*
X44999500Y-45020500D01*
X44999500Y-45000500D01*
X44979500Y-45000500D01*
X44979500Y-44999500D01*
X44999500Y-44999500D01*
X44999500Y-42028412D01*
X45000500Y-42025998D01*
X45000500Y-44999500D01*
X45000500Y-44999500D01*
G37*
X45000500Y-44999500D02*
X45020500Y-44999500D01*
X45020500Y-45000500D01*
X45000500Y-45000500D01*
X45000500Y-45020500D01*
X44999500Y-45020500D01*
X44999500Y-45000500D01*
X44979500Y-45000500D01*
X44979500Y-44999500D01*
X44999500Y-44999500D01*
X44999500Y-42028412D01*
X45000500Y-42025998D01*
X45000500Y-44999500D01*
G36*
X42401246Y-27252223D02*
X42550000Y-27282346D01*
X43100000Y-27282346D01*
X43100000Y-38100000D01*
X43131490Y-38258312D01*
X43138060Y-38291342D01*
X43246447Y-38453553D01*
X45000000Y-40207107D01*
X45000000Y-41172795D01*
X44999500Y-41171588D01*
X44999500Y-40968000D01*
X44905500Y-40874000D01*
X44800209Y-40874000D01*
X44750000Y-40894797D01*
X44699791Y-40874000D01*
X44594500Y-40874000D01*
X44500500Y-40968000D01*
X44500500Y-41171588D01*
X44500000Y-41172795D01*
X44499500Y-41171588D01*
X44499500Y-40968000D01*
X44405500Y-40874000D01*
X44300209Y-40874000D01*
X44250000Y-40894797D01*
X44199791Y-40874000D01*
X44094500Y-40874000D01*
X44000500Y-40968000D01*
X44000500Y-41171588D01*
X44000000Y-41172795D01*
X43999500Y-41171588D01*
X43999500Y-40968000D01*
X43905500Y-40874000D01*
X43800209Y-40874000D01*
X43750000Y-40894797D01*
X43699791Y-40874000D01*
X43594500Y-40874000D01*
X43500500Y-40968000D01*
X43500500Y-41171588D01*
X43499500Y-41174002D01*
X43499500Y-40968000D01*
X43405500Y-40874000D01*
X43300209Y-40874000D01*
X43162013Y-40931243D01*
X43056243Y-41037013D01*
X42999000Y-41175209D01*
X42999000Y-41505500D01*
X43093000Y-41599500D01*
X43499500Y-41599500D01*
X43499500Y-41506000D01*
X43500500Y-41507000D01*
X43500500Y-41599500D01*
X43999500Y-41599500D01*
X43999500Y-41507000D01*
X44000000Y-41506500D01*
X44000500Y-41507000D01*
X44000500Y-41599500D01*
X44499500Y-41599500D01*
X44499500Y-41507000D01*
X44500000Y-41506500D01*
X44500500Y-41507000D01*
X44500500Y-41599500D01*
X44520500Y-41599500D01*
X44520500Y-41600500D01*
X44500500Y-41600500D01*
X44500500Y-41620500D01*
X44499500Y-41620500D01*
X44499500Y-41600500D01*
X44000500Y-41600500D01*
X44000500Y-41620500D01*
X43999500Y-41620500D01*
X43999500Y-41600500D01*
X43500500Y-41600500D01*
X43500500Y-41620500D01*
X43499500Y-41620500D01*
X43499500Y-41600500D01*
X43093000Y-41600500D01*
X42999000Y-41694500D01*
X42999000Y-41749000D01*
X42694500Y-41749000D01*
X42600500Y-41843000D01*
X42600500Y-42249500D01*
X42620500Y-42249500D01*
X42620500Y-42250500D01*
X42600500Y-42250500D01*
X42600500Y-42270500D01*
X42599500Y-42270500D01*
X42599500Y-42250500D01*
X42579500Y-42250500D01*
X42579500Y-42249500D01*
X42599500Y-42249500D01*
X42599500Y-41843000D01*
X42505500Y-41749000D01*
X42175209Y-41749000D01*
X42037013Y-41806243D01*
X42000181Y-41843075D01*
X41932346Y-41775239D01*
X41932346Y-41300000D01*
X41906198Y-41161034D01*
X41875000Y-41112551D01*
X41875000Y-40300000D01*
X41852945Y-40189120D01*
X41823619Y-40041688D01*
X41677297Y-39822703D01*
X39377297Y-37522703D01*
X39377298Y-37522703D01*
X39282856Y-37428097D01*
X39158313Y-37376382D01*
X39158312Y-37376381D01*
X39158311Y-37376381D01*
X39034855Y-37325117D01*
X38766323Y-37324883D01*
X38675000Y-37362617D01*
X38675000Y-36020834D01*
X38824632Y-36020834D01*
X39147462Y-36802143D01*
X39744713Y-37400437D01*
X40525457Y-37724630D01*
X41370834Y-37725368D01*
X42152143Y-37402538D01*
X42750437Y-36805287D01*
X43074630Y-36024543D01*
X43075368Y-35179166D01*
X42752538Y-34397857D01*
X42155287Y-33799563D01*
X41374543Y-33475370D01*
X40529166Y-33474632D01*
X39747857Y-33797462D01*
X39149563Y-34394713D01*
X38825370Y-35175457D01*
X38824632Y-36020834D01*
X38675000Y-36020834D01*
X38675000Y-29579594D01*
X41079594Y-27175000D01*
X42288226Y-27175000D01*
X42401246Y-27252223D01*
X42401246Y-27252223D01*
G37*
X42401246Y-27252223D02*
X42550000Y-27282346D01*
X43100000Y-27282346D01*
X43100000Y-38100000D01*
X43131490Y-38258312D01*
X43138060Y-38291342D01*
X43246447Y-38453553D01*
X45000000Y-40207107D01*
X45000000Y-41172795D01*
X44999500Y-41171588D01*
X44999500Y-40968000D01*
X44905500Y-40874000D01*
X44800209Y-40874000D01*
X44750000Y-40894797D01*
X44699791Y-40874000D01*
X44594500Y-40874000D01*
X44500500Y-40968000D01*
X44500500Y-41171588D01*
X44500000Y-41172795D01*
X44499500Y-41171588D01*
X44499500Y-40968000D01*
X44405500Y-40874000D01*
X44300209Y-40874000D01*
X44250000Y-40894797D01*
X44199791Y-40874000D01*
X44094500Y-40874000D01*
X44000500Y-40968000D01*
X44000500Y-41171588D01*
X44000000Y-41172795D01*
X43999500Y-41171588D01*
X43999500Y-40968000D01*
X43905500Y-40874000D01*
X43800209Y-40874000D01*
X43750000Y-40894797D01*
X43699791Y-40874000D01*
X43594500Y-40874000D01*
X43500500Y-40968000D01*
X43500500Y-41171588D01*
X43499500Y-41174002D01*
X43499500Y-40968000D01*
X43405500Y-40874000D01*
X43300209Y-40874000D01*
X43162013Y-40931243D01*
X43056243Y-41037013D01*
X42999000Y-41175209D01*
X42999000Y-41505500D01*
X43093000Y-41599500D01*
X43499500Y-41599500D01*
X43499500Y-41506000D01*
X43500500Y-41507000D01*
X43500500Y-41599500D01*
X43999500Y-41599500D01*
X43999500Y-41507000D01*
X44000000Y-41506500D01*
X44000500Y-41507000D01*
X44000500Y-41599500D01*
X44499500Y-41599500D01*
X44499500Y-41507000D01*
X44500000Y-41506500D01*
X44500500Y-41507000D01*
X44500500Y-41599500D01*
X44520500Y-41599500D01*
X44520500Y-41600500D01*
X44500500Y-41600500D01*
X44500500Y-41620500D01*
X44499500Y-41620500D01*
X44499500Y-41600500D01*
X44000500Y-41600500D01*
X44000500Y-41620500D01*
X43999500Y-41620500D01*
X43999500Y-41600500D01*
X43500500Y-41600500D01*
X43500500Y-41620500D01*
X43499500Y-41620500D01*
X43499500Y-41600500D01*
X43093000Y-41600500D01*
X42999000Y-41694500D01*
X42999000Y-41749000D01*
X42694500Y-41749000D01*
X42600500Y-41843000D01*
X42600500Y-42249500D01*
X42620500Y-42249500D01*
X42620500Y-42250500D01*
X42600500Y-42250500D01*
X42600500Y-42270500D01*
X42599500Y-42270500D01*
X42599500Y-42250500D01*
X42579500Y-42250500D01*
X42579500Y-42249500D01*
X42599500Y-42249500D01*
X42599500Y-41843000D01*
X42505500Y-41749000D01*
X42175209Y-41749000D01*
X42037013Y-41806243D01*
X42000181Y-41843075D01*
X41932346Y-41775239D01*
X41932346Y-41300000D01*
X41906198Y-41161034D01*
X41875000Y-41112551D01*
X41875000Y-40300000D01*
X41852945Y-40189120D01*
X41823619Y-40041688D01*
X41677297Y-39822703D01*
X39377297Y-37522703D01*
X39377298Y-37522703D01*
X39282856Y-37428097D01*
X39158313Y-37376382D01*
X39158312Y-37376381D01*
X39158311Y-37376381D01*
X39034855Y-37325117D01*
X38766323Y-37324883D01*
X38675000Y-37362617D01*
X38675000Y-36020834D01*
X38824632Y-36020834D01*
X39147462Y-36802143D01*
X39744713Y-37400437D01*
X40525457Y-37724630D01*
X41370834Y-37725368D01*
X42152143Y-37402538D01*
X42750437Y-36805287D01*
X43074630Y-36024543D01*
X43075368Y-35179166D01*
X42752538Y-34397857D01*
X42155287Y-33799563D01*
X41374543Y-33475370D01*
X40529166Y-33474632D01*
X39747857Y-33797462D01*
X39149563Y-34394713D01*
X38825370Y-35175457D01*
X38824632Y-36020834D01*
X38675000Y-36020834D01*
X38675000Y-29579594D01*
X41079594Y-27175000D01*
X42288226Y-27175000D01*
X42401246Y-27252223D01*
G36*
X52213600Y-22585704D02*
X52213600Y-25692884D01*
X47510039Y-30396445D01*
X47510036Y-30396447D01*
X45496437Y-32410047D01*
X45388050Y-32572258D01*
X45349990Y-32763600D01*
X45349990Y-37386400D01*
X45377102Y-37522703D01*
X45388050Y-37577742D01*
X45496437Y-37739953D01*
X48249990Y-40493507D01*
X48249990Y-41656494D01*
X48031614Y-41874870D01*
X47962987Y-41806243D01*
X47824791Y-41749000D01*
X47494500Y-41749000D01*
X47400500Y-41843000D01*
X47400500Y-42242654D01*
X47399500Y-42242654D01*
X47399500Y-41843000D01*
X47305500Y-41749000D01*
X47007346Y-41749000D01*
X47007346Y-41250000D01*
X47000000Y-41210959D01*
X47000000Y-39727180D01*
X46961940Y-39535838D01*
X46853553Y-39373627D01*
X45300000Y-37820074D01*
X45300000Y-28942108D01*
X46753554Y-27488555D01*
X46818526Y-27391316D01*
X46861940Y-27326344D01*
X46871954Y-27276000D01*
X47005500Y-27276000D01*
X47099500Y-27182000D01*
X47099500Y-26500500D01*
X47100500Y-26500500D01*
X47100500Y-27182000D01*
X47194500Y-27276000D01*
X47524791Y-27276000D01*
X47662987Y-27218757D01*
X47768757Y-27112987D01*
X47826000Y-26974791D01*
X47826000Y-26594500D01*
X47732000Y-26500500D01*
X47100500Y-26500500D01*
X47099500Y-26500500D01*
X47079500Y-26500500D01*
X47079500Y-26499500D01*
X47099500Y-26499500D01*
X47099500Y-25818000D01*
X47100500Y-25818000D01*
X47100500Y-26499500D01*
X47732000Y-26499500D01*
X47826000Y-26405500D01*
X47826000Y-26025209D01*
X47768757Y-25887013D01*
X47662987Y-25781243D01*
X47524791Y-25724000D01*
X47194500Y-25724000D01*
X47100500Y-25818000D01*
X47099500Y-25818000D01*
X47005500Y-25724000D01*
X46900000Y-25724000D01*
X46900000Y-25676000D01*
X47005500Y-25676000D01*
X47099500Y-25582000D01*
X47099500Y-24900500D01*
X47100500Y-24900500D01*
X47100500Y-25582000D01*
X47194500Y-25676000D01*
X47524791Y-25676000D01*
X47662987Y-25618757D01*
X47768757Y-25512987D01*
X47826000Y-25374791D01*
X47826000Y-24994500D01*
X47732000Y-24900500D01*
X47100500Y-24900500D01*
X47099500Y-24900500D01*
X47079500Y-24900500D01*
X47079500Y-24899500D01*
X47099500Y-24899500D01*
X47099500Y-24218000D01*
X47100500Y-24218000D01*
X47100500Y-24899500D01*
X47732000Y-24899500D01*
X47826000Y-24805500D01*
X47826000Y-24425209D01*
X47768757Y-24287013D01*
X47662987Y-24181243D01*
X47524791Y-24124000D01*
X47194500Y-24124000D01*
X47100500Y-24218000D01*
X47099500Y-24218000D01*
X47005500Y-24124000D01*
X46675209Y-24124000D01*
X46537013Y-24181243D01*
X46431243Y-24287013D01*
X46402782Y-24355725D01*
X46324069Y-24233401D01*
X46198754Y-24147777D01*
X46050000Y-24117654D01*
X45350000Y-24117654D01*
X45211034Y-24143802D01*
X45083401Y-24225931D01*
X44998870Y-24349646D01*
X44924069Y-24233401D01*
X44798754Y-24147777D01*
X44650000Y-24117654D01*
X44239452Y-24117654D01*
X44274760Y-24082346D01*
X44650000Y-24082346D01*
X44788966Y-24056198D01*
X44916599Y-23974069D01*
X45001130Y-23850354D01*
X45075931Y-23966599D01*
X45201246Y-24052223D01*
X45350000Y-24082346D01*
X46050000Y-24082346D01*
X46188966Y-24056198D01*
X46316599Y-23974069D01*
X46402223Y-23848754D01*
X46403016Y-23844840D01*
X46431243Y-23912987D01*
X46537013Y-24018757D01*
X46675209Y-24076000D01*
X47005500Y-24076000D01*
X47099500Y-23982000D01*
X47099500Y-23300500D01*
X47100500Y-23300500D01*
X47100500Y-23982000D01*
X47194500Y-24076000D01*
X47524791Y-24076000D01*
X47662987Y-24018757D01*
X47768757Y-23912987D01*
X47826000Y-23774791D01*
X47826000Y-23394500D01*
X47732000Y-23300500D01*
X47100500Y-23300500D01*
X47099500Y-23300500D01*
X47079500Y-23300500D01*
X47079500Y-23299500D01*
X47099500Y-23299500D01*
X47099500Y-22618000D01*
X47100500Y-22618000D01*
X47100500Y-23299500D01*
X47732000Y-23299500D01*
X47826000Y-23205500D01*
X47826000Y-22825209D01*
X47768757Y-22687013D01*
X47662987Y-22581243D01*
X47524791Y-22524000D01*
X47194500Y-22524000D01*
X47100500Y-22618000D01*
X47099500Y-22618000D01*
X47005500Y-22524000D01*
X46675209Y-22524000D01*
X46537013Y-22581243D01*
X46431243Y-22687013D01*
X46402782Y-22755725D01*
X46324069Y-22633401D01*
X46198754Y-22547777D01*
X46050000Y-22517654D01*
X45500000Y-22517654D01*
X45500000Y-22366924D01*
X45566599Y-22324069D01*
X45652223Y-22198754D01*
X45682346Y-22050000D01*
X45682346Y-21100000D01*
X47250902Y-21100000D01*
X47325931Y-21216599D01*
X47451246Y-21302223D01*
X47600000Y-21332346D01*
X48400000Y-21332346D01*
X48538966Y-21306198D01*
X48666599Y-21224069D01*
X48751372Y-21100000D01*
X48850902Y-21100000D01*
X48925931Y-21216599D01*
X49051246Y-21302223D01*
X49200000Y-21332346D01*
X50000000Y-21332346D01*
X50138966Y-21306198D01*
X50266599Y-21224069D01*
X50352223Y-21098754D01*
X50382346Y-20950000D01*
X50382346Y-20754450D01*
X52213600Y-22585704D01*
X52213600Y-22585704D01*
G37*
X52213600Y-22585704D02*
X52213600Y-25692884D01*
X47510039Y-30396445D01*
X47510036Y-30396447D01*
X45496437Y-32410047D01*
X45388050Y-32572258D01*
X45349990Y-32763600D01*
X45349990Y-37386400D01*
X45377102Y-37522703D01*
X45388050Y-37577742D01*
X45496437Y-37739953D01*
X48249990Y-40493507D01*
X48249990Y-41656494D01*
X48031614Y-41874870D01*
X47962987Y-41806243D01*
X47824791Y-41749000D01*
X47494500Y-41749000D01*
X47400500Y-41843000D01*
X47400500Y-42242654D01*
X47399500Y-42242654D01*
X47399500Y-41843000D01*
X47305500Y-41749000D01*
X47007346Y-41749000D01*
X47007346Y-41250000D01*
X47000000Y-41210959D01*
X47000000Y-39727180D01*
X46961940Y-39535838D01*
X46853553Y-39373627D01*
X45300000Y-37820074D01*
X45300000Y-28942108D01*
X46753554Y-27488555D01*
X46818526Y-27391316D01*
X46861940Y-27326344D01*
X46871954Y-27276000D01*
X47005500Y-27276000D01*
X47099500Y-27182000D01*
X47099500Y-26500500D01*
X47100500Y-26500500D01*
X47100500Y-27182000D01*
X47194500Y-27276000D01*
X47524791Y-27276000D01*
X47662987Y-27218757D01*
X47768757Y-27112987D01*
X47826000Y-26974791D01*
X47826000Y-26594500D01*
X47732000Y-26500500D01*
X47100500Y-26500500D01*
X47099500Y-26500500D01*
X47079500Y-26500500D01*
X47079500Y-26499500D01*
X47099500Y-26499500D01*
X47099500Y-25818000D01*
X47100500Y-25818000D01*
X47100500Y-26499500D01*
X47732000Y-26499500D01*
X47826000Y-26405500D01*
X47826000Y-26025209D01*
X47768757Y-25887013D01*
X47662987Y-25781243D01*
X47524791Y-25724000D01*
X47194500Y-25724000D01*
X47100500Y-25818000D01*
X47099500Y-25818000D01*
X47005500Y-25724000D01*
X46900000Y-25724000D01*
X46900000Y-25676000D01*
X47005500Y-25676000D01*
X47099500Y-25582000D01*
X47099500Y-24900500D01*
X47100500Y-24900500D01*
X47100500Y-25582000D01*
X47194500Y-25676000D01*
X47524791Y-25676000D01*
X47662987Y-25618757D01*
X47768757Y-25512987D01*
X47826000Y-25374791D01*
X47826000Y-24994500D01*
X47732000Y-24900500D01*
X47100500Y-24900500D01*
X47099500Y-24900500D01*
X47079500Y-24900500D01*
X47079500Y-24899500D01*
X47099500Y-24899500D01*
X47099500Y-24218000D01*
X47100500Y-24218000D01*
X47100500Y-24899500D01*
X47732000Y-24899500D01*
X47826000Y-24805500D01*
X47826000Y-24425209D01*
X47768757Y-24287013D01*
X47662987Y-24181243D01*
X47524791Y-24124000D01*
X47194500Y-24124000D01*
X47100500Y-24218000D01*
X47099500Y-24218000D01*
X47005500Y-24124000D01*
X46675209Y-24124000D01*
X46537013Y-24181243D01*
X46431243Y-24287013D01*
X46402782Y-24355725D01*
X46324069Y-24233401D01*
X46198754Y-24147777D01*
X46050000Y-24117654D01*
X45350000Y-24117654D01*
X45211034Y-24143802D01*
X45083401Y-24225931D01*
X44998870Y-24349646D01*
X44924069Y-24233401D01*
X44798754Y-24147777D01*
X44650000Y-24117654D01*
X44239452Y-24117654D01*
X44274760Y-24082346D01*
X44650000Y-24082346D01*
X44788966Y-24056198D01*
X44916599Y-23974069D01*
X45001130Y-23850354D01*
X45075931Y-23966599D01*
X45201246Y-24052223D01*
X45350000Y-24082346D01*
X46050000Y-24082346D01*
X46188966Y-24056198D01*
X46316599Y-23974069D01*
X46402223Y-23848754D01*
X46403016Y-23844840D01*
X46431243Y-23912987D01*
X46537013Y-24018757D01*
X46675209Y-24076000D01*
X47005500Y-24076000D01*
X47099500Y-23982000D01*
X47099500Y-23300500D01*
X47100500Y-23300500D01*
X47100500Y-23982000D01*
X47194500Y-24076000D01*
X47524791Y-24076000D01*
X47662987Y-24018757D01*
X47768757Y-23912987D01*
X47826000Y-23774791D01*
X47826000Y-23394500D01*
X47732000Y-23300500D01*
X47100500Y-23300500D01*
X47099500Y-23300500D01*
X47079500Y-23300500D01*
X47079500Y-23299500D01*
X47099500Y-23299500D01*
X47099500Y-22618000D01*
X47100500Y-22618000D01*
X47100500Y-23299500D01*
X47732000Y-23299500D01*
X47826000Y-23205500D01*
X47826000Y-22825209D01*
X47768757Y-22687013D01*
X47662987Y-22581243D01*
X47524791Y-22524000D01*
X47194500Y-22524000D01*
X47100500Y-22618000D01*
X47099500Y-22618000D01*
X47005500Y-22524000D01*
X46675209Y-22524000D01*
X46537013Y-22581243D01*
X46431243Y-22687013D01*
X46402782Y-22755725D01*
X46324069Y-22633401D01*
X46198754Y-22547777D01*
X46050000Y-22517654D01*
X45500000Y-22517654D01*
X45500000Y-22366924D01*
X45566599Y-22324069D01*
X45652223Y-22198754D01*
X45682346Y-22050000D01*
X45682346Y-21100000D01*
X47250902Y-21100000D01*
X47325931Y-21216599D01*
X47451246Y-21302223D01*
X47600000Y-21332346D01*
X48400000Y-21332346D01*
X48538966Y-21306198D01*
X48666599Y-21224069D01*
X48751372Y-21100000D01*
X48850902Y-21100000D01*
X48925931Y-21216599D01*
X49051246Y-21302223D01*
X49200000Y-21332346D01*
X50000000Y-21332346D01*
X50138966Y-21306198D01*
X50266599Y-21224069D01*
X50352223Y-21098754D01*
X50382346Y-20950000D01*
X50382346Y-20754450D01*
X52213600Y-22585704D01*
G36*
X31666894Y-30574000D02*
X31594500Y-30574000D01*
X31500500Y-30668000D01*
X31500500Y-31299500D01*
X32182000Y-31299500D01*
X32276000Y-31205500D01*
X32276000Y-31183106D01*
X34749970Y-33657076D01*
X34749970Y-33995376D01*
X32977297Y-32222703D01*
X32758312Y-32076381D01*
X32500000Y-32025000D01*
X32088596Y-32025000D01*
X32048754Y-31997777D01*
X32044840Y-31996984D01*
X32112987Y-31968757D01*
X32218757Y-31862987D01*
X32276000Y-31724791D01*
X32276000Y-31394500D01*
X32182000Y-31300500D01*
X31500500Y-31300500D01*
X31500500Y-31320500D01*
X31499500Y-31320500D01*
X31499500Y-31300500D01*
X30818000Y-31300500D01*
X30724000Y-31394500D01*
X30724000Y-31724791D01*
X30781243Y-31862987D01*
X30887013Y-31968757D01*
X30955725Y-31997218D01*
X30833401Y-32075931D01*
X30747777Y-32201246D01*
X30717654Y-32350000D01*
X30717654Y-32527752D01*
X30650406Y-32595000D01*
X29357346Y-32595000D01*
X29357346Y-32470000D01*
X29331198Y-32331034D01*
X29249069Y-32203401D01*
X29123754Y-32117777D01*
X28975000Y-32087654D01*
X27375000Y-32087654D01*
X27236034Y-32113802D01*
X27108401Y-32195931D01*
X27022777Y-32321246D01*
X26992654Y-32470000D01*
X26992654Y-33497752D01*
X26684917Y-33805489D01*
X26809796Y-33504747D01*
X26810204Y-33037303D01*
X26631698Y-32605285D01*
X26301453Y-32274464D01*
X26135000Y-32205347D01*
X26135000Y-31538865D01*
X26200627Y-31700337D01*
X26625576Y-31896027D01*
X27093065Y-31914199D01*
X27531922Y-31752087D01*
X27609373Y-31700337D01*
X27686027Y-31511734D01*
X26905000Y-30730707D01*
X26890858Y-30744850D01*
X26890151Y-30744143D01*
X26904293Y-30730000D01*
X26890151Y-30715858D01*
X26890858Y-30715151D01*
X26905000Y-30729293D01*
X26919143Y-30715151D01*
X26919850Y-30715858D01*
X26905707Y-30730000D01*
X27686734Y-31511027D01*
X27875337Y-31434373D01*
X28071027Y-31009424D01*
X28076244Y-30875209D01*
X30724000Y-30875209D01*
X30724000Y-31205500D01*
X30818000Y-31299500D01*
X31499500Y-31299500D01*
X31499500Y-30668000D01*
X31405500Y-30574000D01*
X31025209Y-30574000D01*
X30887013Y-30631243D01*
X30781243Y-30737013D01*
X30724000Y-30875209D01*
X28076244Y-30875209D01*
X28089199Y-30541935D01*
X27927797Y-30104999D01*
X31197893Y-30104999D01*
X31666894Y-30574000D01*
X31666894Y-30574000D01*
G37*
X31666894Y-30574000D02*
X31594500Y-30574000D01*
X31500500Y-30668000D01*
X31500500Y-31299500D01*
X32182000Y-31299500D01*
X32276000Y-31205500D01*
X32276000Y-31183106D01*
X34749970Y-33657076D01*
X34749970Y-33995376D01*
X32977297Y-32222703D01*
X32758312Y-32076381D01*
X32500000Y-32025000D01*
X32088596Y-32025000D01*
X32048754Y-31997777D01*
X32044840Y-31996984D01*
X32112987Y-31968757D01*
X32218757Y-31862987D01*
X32276000Y-31724791D01*
X32276000Y-31394500D01*
X32182000Y-31300500D01*
X31500500Y-31300500D01*
X31500500Y-31320500D01*
X31499500Y-31320500D01*
X31499500Y-31300500D01*
X30818000Y-31300500D01*
X30724000Y-31394500D01*
X30724000Y-31724791D01*
X30781243Y-31862987D01*
X30887013Y-31968757D01*
X30955725Y-31997218D01*
X30833401Y-32075931D01*
X30747777Y-32201246D01*
X30717654Y-32350000D01*
X30717654Y-32527752D01*
X30650406Y-32595000D01*
X29357346Y-32595000D01*
X29357346Y-32470000D01*
X29331198Y-32331034D01*
X29249069Y-32203401D01*
X29123754Y-32117777D01*
X28975000Y-32087654D01*
X27375000Y-32087654D01*
X27236034Y-32113802D01*
X27108401Y-32195931D01*
X27022777Y-32321246D01*
X26992654Y-32470000D01*
X26992654Y-33497752D01*
X26684917Y-33805489D01*
X26809796Y-33504747D01*
X26810204Y-33037303D01*
X26631698Y-32605285D01*
X26301453Y-32274464D01*
X26135000Y-32205347D01*
X26135000Y-31538865D01*
X26200627Y-31700337D01*
X26625576Y-31896027D01*
X27093065Y-31914199D01*
X27531922Y-31752087D01*
X27609373Y-31700337D01*
X27686027Y-31511734D01*
X26905000Y-30730707D01*
X26890858Y-30744850D01*
X26890151Y-30744143D01*
X26904293Y-30730000D01*
X26890151Y-30715858D01*
X26890858Y-30715151D01*
X26905000Y-30729293D01*
X26919143Y-30715151D01*
X26919850Y-30715858D01*
X26905707Y-30730000D01*
X27686734Y-31511027D01*
X27875337Y-31434373D01*
X28071027Y-31009424D01*
X28076244Y-30875209D01*
X30724000Y-30875209D01*
X30724000Y-31205500D01*
X30818000Y-31299500D01*
X31499500Y-31299500D01*
X31499500Y-30668000D01*
X31405500Y-30574000D01*
X31025209Y-30574000D01*
X30887013Y-30631243D01*
X30781243Y-30737013D01*
X30724000Y-30875209D01*
X28076244Y-30875209D01*
X28089199Y-30541935D01*
X27927797Y-30104999D01*
X31197893Y-30104999D01*
X31666894Y-30574000D01*
G36*
X41928973Y-15990576D02*
X41910801Y-16458065D01*
X42072913Y-16896922D01*
X42124663Y-16974373D01*
X42313266Y-17051027D01*
X43094293Y-16270000D01*
X43080151Y-16255858D01*
X43080858Y-16255151D01*
X43095000Y-16269293D01*
X43109143Y-16255151D01*
X43109850Y-16255858D01*
X43095707Y-16270000D01*
X43876734Y-17051027D01*
X43999740Y-17001034D01*
X44011447Y-17018555D01*
X45071444Y-18078552D01*
X45233655Y-18186939D01*
X45424997Y-18224999D01*
X46042895Y-18224999D01*
X46075001Y-18257106D01*
X46075001Y-18374000D01*
X46044500Y-18374000D01*
X45950500Y-18468000D01*
X45950500Y-19249500D01*
X45970500Y-19249500D01*
X45970500Y-19250500D01*
X45950500Y-19250500D01*
X45950500Y-19270500D01*
X45949500Y-19270500D01*
X45949500Y-19250500D01*
X45929500Y-19250500D01*
X45929500Y-19249500D01*
X45949500Y-19249500D01*
X45949500Y-18468000D01*
X45855500Y-18374000D01*
X45575209Y-18374000D01*
X45437013Y-18431243D01*
X45331243Y-18537013D01*
X45274000Y-18675209D01*
X45274000Y-19155500D01*
X45367998Y-19249498D01*
X45306604Y-19249498D01*
X44953553Y-18896447D01*
X44791342Y-18788060D01*
X44732346Y-18776325D01*
X44732346Y-18750000D01*
X44706198Y-18611034D01*
X44624069Y-18483401D01*
X44498754Y-18397777D01*
X44350000Y-18367654D01*
X43750000Y-18367654D01*
X43611034Y-18393802D01*
X43483401Y-18475931D01*
X43397777Y-18601246D01*
X43367654Y-18750000D01*
X43367654Y-19425547D01*
X41388204Y-17446098D01*
X41493966Y-17426198D01*
X41621599Y-17344069D01*
X41707223Y-17218754D01*
X41737346Y-17070000D01*
X41737346Y-17051734D01*
X42313973Y-17051734D01*
X42390627Y-17240337D01*
X42815576Y-17436027D01*
X43283065Y-17454199D01*
X43721922Y-17292087D01*
X43799373Y-17240337D01*
X43876027Y-17051734D01*
X43095000Y-16270707D01*
X42313973Y-17051734D01*
X41737346Y-17051734D01*
X41737346Y-15644999D01*
X42075003Y-15644999D01*
X42089434Y-15642129D01*
X41928973Y-15990576D01*
X41928973Y-15990576D01*
G37*
X41928973Y-15990576D02*
X41910801Y-16458065D01*
X42072913Y-16896922D01*
X42124663Y-16974373D01*
X42313266Y-17051027D01*
X43094293Y-16270000D01*
X43080151Y-16255858D01*
X43080858Y-16255151D01*
X43095000Y-16269293D01*
X43109143Y-16255151D01*
X43109850Y-16255858D01*
X43095707Y-16270000D01*
X43876734Y-17051027D01*
X43999740Y-17001034D01*
X44011447Y-17018555D01*
X45071444Y-18078552D01*
X45233655Y-18186939D01*
X45424997Y-18224999D01*
X46042895Y-18224999D01*
X46075001Y-18257106D01*
X46075001Y-18374000D01*
X46044500Y-18374000D01*
X45950500Y-18468000D01*
X45950500Y-19249500D01*
X45970500Y-19249500D01*
X45970500Y-19250500D01*
X45950500Y-19250500D01*
X45950500Y-19270500D01*
X45949500Y-19270500D01*
X45949500Y-19250500D01*
X45929500Y-19250500D01*
X45929500Y-19249500D01*
X45949500Y-19249500D01*
X45949500Y-18468000D01*
X45855500Y-18374000D01*
X45575209Y-18374000D01*
X45437013Y-18431243D01*
X45331243Y-18537013D01*
X45274000Y-18675209D01*
X45274000Y-19155500D01*
X45367998Y-19249498D01*
X45306604Y-19249498D01*
X44953553Y-18896447D01*
X44791342Y-18788060D01*
X44732346Y-18776325D01*
X44732346Y-18750000D01*
X44706198Y-18611034D01*
X44624069Y-18483401D01*
X44498754Y-18397777D01*
X44350000Y-18367654D01*
X43750000Y-18367654D01*
X43611034Y-18393802D01*
X43483401Y-18475931D01*
X43397777Y-18601246D01*
X43367654Y-18750000D01*
X43367654Y-19425547D01*
X41388204Y-17446098D01*
X41493966Y-17426198D01*
X41621599Y-17344069D01*
X41707223Y-17218754D01*
X41737346Y-17070000D01*
X41737346Y-17051734D01*
X42313973Y-17051734D01*
X42390627Y-17240337D01*
X42815576Y-17436027D01*
X43283065Y-17454199D01*
X43721922Y-17292087D01*
X43799373Y-17240337D01*
X43876027Y-17051734D01*
X43095000Y-16270707D01*
X42313973Y-17051734D01*
X41737346Y-17051734D01*
X41737346Y-15644999D01*
X42075003Y-15644999D01*
X42089434Y-15642129D01*
X41928973Y-15990576D01*
G36*
X26324000Y-14724791D02*
X26381243Y-14862987D01*
X26487013Y-14968757D01*
X26555725Y-14997218D01*
X26433401Y-15075931D01*
X26347777Y-15201246D01*
X26317654Y-15350000D01*
X26317654Y-15725240D01*
X26262197Y-15780697D01*
X26182000Y-15700500D01*
X25500500Y-15700500D01*
X25500500Y-15720500D01*
X25499500Y-15720500D01*
X25499500Y-15700500D01*
X24818000Y-15700500D01*
X24724000Y-15794500D01*
X24724000Y-15875001D01*
X24676000Y-15875001D01*
X24676000Y-15794500D01*
X24582000Y-15700500D01*
X23900500Y-15700500D01*
X23900500Y-15720500D01*
X23899500Y-15720500D01*
X23899500Y-15700500D01*
X23879500Y-15700500D01*
X23879500Y-15699500D01*
X23899500Y-15699500D01*
X23899500Y-15679500D01*
X23900500Y-15679500D01*
X23900500Y-15699500D01*
X24582000Y-15699500D01*
X24676000Y-15605500D01*
X24676000Y-15275209D01*
X24618757Y-15137013D01*
X24512987Y-15031243D01*
X24444275Y-15002782D01*
X24487449Y-14975000D01*
X24911404Y-14975000D01*
X24951246Y-15002223D01*
X24955160Y-15003016D01*
X24887013Y-15031243D01*
X24781243Y-15137013D01*
X24724000Y-15275209D01*
X24724000Y-15605500D01*
X24818000Y-15699500D01*
X25499500Y-15699500D01*
X25499500Y-15679500D01*
X25500500Y-15679500D01*
X25500500Y-15699500D01*
X26182000Y-15699500D01*
X26276000Y-15605500D01*
X26276000Y-15275209D01*
X26218757Y-15137013D01*
X26112987Y-15031243D01*
X26044275Y-15002782D01*
X26166599Y-14924069D01*
X26252223Y-14798754D01*
X26282346Y-14650000D01*
X26282346Y-14522248D01*
X26324000Y-14480594D01*
X26324000Y-14724791D01*
X26324000Y-14724791D01*
G37*
X26324000Y-14724791D02*
X26381243Y-14862987D01*
X26487013Y-14968757D01*
X26555725Y-14997218D01*
X26433401Y-15075931D01*
X26347777Y-15201246D01*
X26317654Y-15350000D01*
X26317654Y-15725240D01*
X26262197Y-15780697D01*
X26182000Y-15700500D01*
X25500500Y-15700500D01*
X25500500Y-15720500D01*
X25499500Y-15720500D01*
X25499500Y-15700500D01*
X24818000Y-15700500D01*
X24724000Y-15794500D01*
X24724000Y-15875001D01*
X24676000Y-15875001D01*
X24676000Y-15794500D01*
X24582000Y-15700500D01*
X23900500Y-15700500D01*
X23900500Y-15720500D01*
X23899500Y-15720500D01*
X23899500Y-15700500D01*
X23879500Y-15700500D01*
X23879500Y-15699500D01*
X23899500Y-15699500D01*
X23899500Y-15679500D01*
X23900500Y-15679500D01*
X23900500Y-15699500D01*
X24582000Y-15699500D01*
X24676000Y-15605500D01*
X24676000Y-15275209D01*
X24618757Y-15137013D01*
X24512987Y-15031243D01*
X24444275Y-15002782D01*
X24487449Y-14975000D01*
X24911404Y-14975000D01*
X24951246Y-15002223D01*
X24955160Y-15003016D01*
X24887013Y-15031243D01*
X24781243Y-15137013D01*
X24724000Y-15275209D01*
X24724000Y-15605500D01*
X24818000Y-15699500D01*
X25499500Y-15699500D01*
X25499500Y-15679500D01*
X25500500Y-15679500D01*
X25500500Y-15699500D01*
X26182000Y-15699500D01*
X26276000Y-15605500D01*
X26276000Y-15275209D01*
X26218757Y-15137013D01*
X26112987Y-15031243D01*
X26044275Y-15002782D01*
X26166599Y-14924069D01*
X26252223Y-14798754D01*
X26282346Y-14650000D01*
X26282346Y-14522248D01*
X26324000Y-14480594D01*
X26324000Y-14724791D01*
G36*
X40216333Y-14207297D02*
X40435318Y-14353619D01*
X40693630Y-14405000D01*
X40838569Y-14405000D01*
X41078150Y-14644999D01*
X28305001Y-14644999D01*
X28117244Y-14682346D01*
X28113659Y-14683059D01*
X27951448Y-14791446D01*
X27706001Y-15036893D01*
X27648754Y-14997777D01*
X27644840Y-14996984D01*
X27712987Y-14968757D01*
X27818757Y-14862987D01*
X27876000Y-14724791D01*
X27876000Y-14394500D01*
X27782000Y-14300500D01*
X27100500Y-14300500D01*
X27100500Y-14320500D01*
X27099500Y-14320500D01*
X27099500Y-14300500D01*
X27079500Y-14300500D01*
X27079500Y-14299500D01*
X27099500Y-14299500D01*
X27099500Y-14279500D01*
X27100500Y-14279500D01*
X27100500Y-14299500D01*
X27782000Y-14299500D01*
X27876000Y-14205500D01*
X27876000Y-14025000D01*
X40034036Y-14025000D01*
X40216333Y-14207297D01*
X40216333Y-14207297D01*
G37*
X40216333Y-14207297D02*
X40435318Y-14353619D01*
X40693630Y-14405000D01*
X40838569Y-14405000D01*
X41078150Y-14644999D01*
X28305001Y-14644999D01*
X28117244Y-14682346D01*
X28113659Y-14683059D01*
X27951448Y-14791446D01*
X27706001Y-15036893D01*
X27648754Y-14997777D01*
X27644840Y-14996984D01*
X27712987Y-14968757D01*
X27818757Y-14862987D01*
X27876000Y-14724791D01*
X27876000Y-14394500D01*
X27782000Y-14300500D01*
X27100500Y-14300500D01*
X27100500Y-14320500D01*
X27099500Y-14320500D01*
X27099500Y-14300500D01*
X27079500Y-14300500D01*
X27079500Y-14299500D01*
X27099500Y-14299500D01*
X27099500Y-14279500D01*
X27100500Y-14279500D01*
X27100500Y-14299500D01*
X27782000Y-14299500D01*
X27876000Y-14205500D01*
X27876000Y-14025000D01*
X40034036Y-14025000D01*
X40216333Y-14207297D01*
M02*
