M48
;DRILL file {KiCad 4.0.7} date 2019 March 19, Tuesday 10:43:50
;FORMAT={-:-/ absolute / inch / decimal}
FMAT,2
INCH,TZ
T1C0.012
T2C0.033
%
G90
G05
M72
T1
X0.689Y-0.6634
X0.8189Y-0.5906
X0.9213Y-0.7008
X1.0593Y-1.0789
X1.1063Y-0.563
X1.3583Y-1.3898
X1.5315Y-1.4961
X1.5315Y-1.6417
X1.5315Y-1.7047
X1.5315Y-1.7677
X1.6772Y-1.6102
X1.8091Y-0.7224
X1.8917Y-1.0433
X1.9035Y-1.7618
X1.9039Y-1.7229
X2.0827Y-1.0472
X2.0866Y-0.5236
X2.0866Y-0.6535
X2.1063Y-0.9882
X3.4055Y-1.5886
X3.4055Y-1.8504
X3.4124Y-1.6447
X3.4252Y-1.8917
X3.4409Y-1.685
X3.445Y-1.5252
X3.4646Y-1.8504
T2
X0.8593Y-1.2098
X0.8593Y-2.2335
X0.9093Y-1.3098
X0.9093Y-2.3335
X0.9593Y-1.2098
X0.9593Y-2.2335
X1.0093Y-1.3098
X1.0093Y-2.3335
X1.0593Y-1.2098
X1.0593Y-2.2335
X1.1093Y-1.3098
X1.1093Y-2.3335
X1.5967Y-0.6406
X1.6467Y-0.5406
X1.6967Y-0.6406
X1.7467Y-0.5406
X1.7967Y-0.6406
X1.8467Y-0.5406
X1.8967Y-0.6406
X1.9467Y-0.5406
X2.4341Y-1.2098
X2.4341Y-2.2335
X2.4841Y-1.3098
X2.4841Y-2.3335
X2.5341Y-1.2098
X2.5341Y-2.2335
X2.5841Y-1.3098
X2.5841Y-2.3335
X2.6341Y-1.2098
X2.6341Y-2.2335
X2.6841Y-1.3098
X2.6841Y-2.3335
T0
M30
