M48
;DRILL file {KiCad 4.0.7} date 2019 March 19, Tuesday 10:43:50
;FORMAT={-:-/ absolute / inch / decimal}
FMAT,2
INCH,TZ
T1C0.059
T2C0.126
%
G90
G05
M72
T1
X0.8041Y-1.2807
X1.1644Y-2.2626
X2.0018Y-0.6114
X2.3789Y-1.2807
X2.7392Y-2.2626
T2
X0.1181Y-0.1181
X0.1181Y-3.4252
X0.3563Y-0.1417
X0.3563Y-1.4016
X0.3563Y-2.1417
X0.3563Y-3.4016
X1.6122Y-0.1417
X1.6122Y-1.4016
X1.6122Y-2.1417
X1.6122Y-3.4016
X1.9311Y-0.1417
X1.9311Y-1.4016
X1.9311Y-2.1417
X1.9311Y-3.4016
X3.187Y-0.1417
X3.187Y-1.4016
X3.187Y-2.1417
X3.187Y-3.4016
X3.4252Y-0.1181
X3.4252Y-3.4252
T0
M30
